<?xml version="1.0" encoding="utf-8"?>
<!-- Generator: Adobe Illustrator 17.0.0, SVG Export Plug-In . SVG Version: 6.00 Build 0)  -->
<!DOCTYPE svg PUBLIC "-//W3C//DTD SVG 1.1//EN" "http://www.w3.org/Graphics/SVG/1.1/DTD/svg11.dtd">
<svg version="1.1" id="Calque_1" xmlns="http://www.w3.org/2000/svg" xmlns:xlink="http://www.w3.org/1999/xlink" x="0px" y="0px"
	 width="214.987px" height="172.667px" viewBox="0 0 214.987 172.667" enable-background="new 0 0 214.987 172.667"
	 xml:space="preserve">
<g id="Brg">
	
		<rect x="-82.979" y="-54.061" stroke="#FFFFFF" stroke-linecap="round" stroke-linejoin="round" stroke-miterlimit="10" width="362.947" height="332.123"/>
</g>
<g id="Logo">
	<g>
		<g>
			
				<line fill="none" stroke="#FFFFFF" stroke-linecap="round" stroke-miterlimit="10" x1="174.496" y1="69.631" x2="174.496" y2="92.447"/>
			
				<line fill="none" stroke="#FFFFFF" stroke-linecap="round" stroke-miterlimit="10" x1="164.29" y1="71.277" x2="164.29" y2="91.925"/>
			
				<line fill="none" stroke="#FFFFFF" stroke-linecap="round" stroke-miterlimit="10" x1="194.79" y1="87.336" x2="194.79" y2="71.285"/>
			<path fill="#FFFFFF" stroke="#FFFFFF" stroke-linecap="round" stroke-linejoin="round" stroke-miterlimit="10" d="
				M184.757,33.377c-5.231-1.61-5.231-1.61-10.462,0l-1.006,11.221c6.237-1.61,6.237-1.61,12.474,0L184.757,33.377z"/>
			<path fill="#FFFFFF" stroke="#FFFFFF" stroke-linecap="round" stroke-linejoin="round" stroke-miterlimit="10" d="
				M185.763,46.208c-5.231-1.61-7.243-1.61-12.474,0l-9.054,25.033l10.261-1.61l20.32,1.61L185.763,46.208z"/>
			<path fill="#FFFFFF" stroke="#FFFFFF" stroke-linecap="round" stroke-linejoin="round" stroke-miterlimit="10" d="
				M184.757,31.767c-5.233-1.608-5.233-1.608-10.461,0l4.858-27.401L177.917,0.5h3.22l-1.22,3.862L184.757,31.767z"/>
			<path fill="#FFFFFF" d="M181.039,74.235c-1.271,0-2.319,0.701-2.492,1.612l-0.028-0.003v7.042l5.039,0.464v-7.042
				C183.559,75.272,182.431,74.235,181.039,74.235z"/>
			<path fill="#FFFFFF" d="M189.786,75.144c-1.111,0-2.012,0.671-2.012,1.498v7.042l4.024,0.354v-7.042
				C191.798,76.169,190.898,75.144,189.786,75.144z"/>
			<path fill="#FFFFFF" d="M168.143,76.504L168.143,76.504c0-0.442-0.444-0.801-0.991-0.801c-0.548,0-0.991,0.672-0.991,1.114v7.042
				l1.985-0.313v-7.042L168.143,76.504z"/>
			<path fill="#FFFFFF" d="M171.209,74.818c-0.694,0-1.257,0.849-1.257,1.409v7.042l2.515-0.394v-7.042
				C172.466,75.272,171.903,74.818,171.209,74.818z"/>
		</g>
		<g>
			<g>
				
					<linearGradient id="SVGID_1_" gradientUnits="userSpaceOnUse" x1="373.654" y1="-369.415" x2="373.654" y2="-255.816" gradientTransform="matrix(1 0 0 -1 -272.5 -222.333)">
					<stop  offset="0" style="stop-color:#F15A24"/>
					<stop  offset="0.0071" style="stop-color:#F15B24"/>
					<stop  offset="0.4134" style="stop-color:#F47921"/>
					<stop  offset="0.7587" style="stop-color:#F68C1F"/>
					<stop  offset="1" style="stop-color:#F7931E"/>
				</linearGradient>
				<path fill="url(#SVGID_1_)" d="M101.154,33.483c-34.839,0-63.081,28.243-63.081,63.081c0,20.667,9.94,39.012,25.298,50.518
					l10.654-1.879c0.4-0.114,0.829-0.192,1.286-0.227l78.611-13.861c6.513-9.926,10.313-21.792,10.313-34.551
					C164.235,61.725,135.993,33.483,101.154,33.483z"/>
				<path fill="none" stroke="#FFFFFF" stroke-width="2.4983" stroke-miterlimit="10" d="M101.154,33.483
					c-34.839,0-63.081,28.243-63.081,63.081c0,20.667,9.94,39.012,25.298,50.518l10.654-1.879c0.4-0.114,0.829-0.192,1.286-0.227
					l78.611-13.861c6.513-9.926,10.313-21.792,10.313-34.551C164.235,61.725,135.993,33.483,101.154,33.483z"/>
			</g>
			<g id="XMLID_1_">
				<g>
					<path fill="#105885" d="M82.586,36.342c44.469-13.778,88.426,24.596,80.719,70.514c-1.586,9.406-5.109,17.963-10.143,25.308
						c-0.275,0.025-0.537,0.075-0.787,0.125c-0.212-0.012-0.425-0.037-0.65-0.037c-0.275,0-0.537,0.025-0.787,0.05
						c-0.25-0.037-0.512-0.05-0.787-0.05c-0.062,0-0.112,0.012-0.187,0.012c2.149-2.985,4.085-6.208,5.784-9.681
						c0.55-1.124,1.199-2.286,1.349-3.498c1.062-8.169-0.125-16.026-3.473-23.571c-4.659-10.543-11.892-19.062-20.686-26.332
						c-2.298-1.899-4.722-3.61-7.183-5.471c-2.823,3.51-3.797,7.357-4.31,11.33c-1.012,7.982-0.1,15.926,0.575,23.871
						c0.687,8.232,1.524,16.451,1.986,24.695c0.262,4.547,0.275,9.069-0.087,13.578c-0.212,0.037-0.412,0.075-0.6,0.137
						c-0.65,0.012-1.237,0.125-1.774,0.275c-0.05,0-0.1-0.012-0.15-0.012c-0.025,0-0.05,0-0.075,0
						c0.887-9.806-0.087-19.599-0.899-29.392c-0.725-8.719-1.524-17.438-1.849-26.169c-0.262-6.845,0.65-13.591,5.071-19.849
						c-4.022-2.086-7.82-3.985-11.555-6.033c-1.736-0.937-2.636-0.475-3.672,1.124c-8.319,12.841-15.439,26.319-21.473,40.372
						c-4.984,11.592-9.518,23.396-11.167,36c-0.487,3.722-0.412,7.582-0.087,11.33c-0.987,0.025-1.849,0.237-2.586,0.587
						c-0.162-0.962-0.287-1.924-0.362-2.886c-0.462-6.583,0.812-12.991,2.486-19.287C80.45,103.833,88.969,85.683,98.9,68.158
						c2.636-4.659,5.521-9.181,8.382-13.94c-4.797-1.362-9.468-2.686-14.265-4.047c-0.662,1.786-1.112,3.185-1.686,4.534
						c-3.098,7.245-8.457,12.629-14.515,17.375c-7.17,5.596-14.54,10.93-21.698,16.551c-5.034,3.96-9.344,8.632-12.404,14.353
						c-1.037,1.936-1.399,3.772-0.899,5.996c3.647,16.089,12.054,28.618,25.208,37.599c-0.974,0.262-1.761,0.737-2.398,1.374
						c-17.513-12.379-27.568-32.64-26.432-54.975c0.15-2.786,0.512-5.559,0.774-8.332c0.987-3.498,1.986-7.008,2.985-10.505
						c1.399-3.023,2.811-6.033,4.222-9.044c0.175-0.375,0.3-0.787,0.525-1.124C55.755,50.995,67.159,41.127,82.586,36.342z
						 M160.32,109.092c3.41-17.475,0-33.514-10.28-48.067c-0.337-0.475-0.899-1.012-1.424-1.112
						c-5.746-1.112-11.505-1.874-17.226,0.1c-1.249,0.437-2.386,1.187-3.747,1.886c16.601,12.204,29.405,26.494,32.365,47.555
						C160.183,109.267,160.308,109.192,160.32,109.092z M146.167,56.766c0-0.212,0.062-0.387,0-0.475
						c-0.2-0.287-0.437-0.537-0.675-0.799c-5.734-6.183-12.479-10.967-20.211-14.29c-0.887-0.387-2.423-0.162-3.26,0.375
						c-4.484,2.898-7.445,7.22-10.505,11.305c4.409,2.423,8.607,4.772,12.866,7.02c0.475,0.262,1.399,0.262,1.824-0.025
						c3.96-2.798,8.432-3.598,13.128-3.535C141.608,56.379,143.881,56.616,146.167,56.766z M117.862,41.576
						c0.7-0.799,1.586-1.437,2.573-2.311c-9.156-3.023-18.137-3.86-27.231-2.636c0.15,3.735,0.287,7.27,0.45,11.105
						c4.684,1.337,9.506,2.748,14.353,4.01c0.525,0.137,1.461-0.475,1.911-0.987C112.603,47.735,115.189,44.612,117.862,41.576z
						 M91.13,47.435c-0.15-3.61-0.287-6.908-0.437-10.43c-11.467,2.136-21.173,6.808-29.492,14.44
						C70.607,47.023,80.525,46.273,91.13,47.435z M90.194,50.245c-0.25-0.2-0.35-0.325-0.475-0.35
						c-0.337-0.075-0.687-0.125-1.024-0.162c-6.97-0.687-13.878-0.387-20.548,1.861c-8.169,2.773-15.177,7.133-19.561,14.927
						c-3.01,5.346-5.271,10.98-6.583,16.963c-1.224,5.609-1.749,11.267-1.224,17.388c0.45-0.562,0.687-0.787,0.862-1.074
						c3.31-5.371,7.645-9.831,12.591-13.678c5.409-4.21,10.942-8.269,16.426-12.391c5.209-3.922,10.318-7.957,14.328-13.178
						C87.383,57.428,89.319,54.08,90.194,50.245z"/>
				</g>
			</g>
		</g>
		<polygon fill="#105885" points="36.329,92.878 19.705,139.749 33.593,160.178 116.999,141.869 156.491,129.479 76.927,103.024 		
			"/>
		<g>
			<g>
				<path fill="#FFFFFF" d="M84.039,107.876c-0.234,0-0.472-0.022-0.71-0.068c-3.347-0.643-5.595-2.874-6.167-6.122
					c-0.467-2.646,0.196-5.417,1.971-8.232c1.854-2.939,4.069-4.654,6.586-5.098c0.676-0.119,1.333-0.18,1.951-0.18
					c1.55,0,2.931,0.371,4.103,1.102c1.724,1.074,2.878,2.833,3.252,4.954c0.442,2.505-0.772,4.216-1.843,5.725l-0.163,0.229
					c-0.57,0.806-1.436,1.354-2.409,1.526l-0.394,0.069c-0.312,0.055-0.686,0.168-1.186,0.823c-0.771,1.008-1.191,1.76-1.361,2.438
					C87.244,106.735,85.724,107.876,84.039,107.876z"/>
				<path fill="#105885" d="M87.671,91.925c0.844,0,1.551,0.179,2.12,0.534c0.841,0.524,1.363,1.402,1.543,2.423
					c0.18,1.021-0.349,1.691-1.374,3.141l-0.394,0.069c-1.316,0.232-2.492,0.902-3.512,2.237c-1.02,1.334-1.698,2.525-2.019,3.8
					c-1.825-0.35-2.882-1.382-3.183-3.092s0.182-3.571,1.451-5.583s2.628-3.152,4.067-3.406
					C86.835,91.966,87.268,91.925,87.671,91.925 M87.671,84.43c-0.836,0-1.712,0.08-2.602,0.237
					c-3.601,0.635-6.665,2.919-9.105,6.789c-2.287,3.628-3.126,7.289-2.492,10.882c0.845,4.792,4.266,8.212,9.151,9.151
					c0.476,0.091,0.952,0.136,1.42,0.136c3.37,0,6.41-2.283,7.262-5.667l0,0c0.001,0,0.07-0.187,0.387-0.643
					c1.77-0.42,3.332-1.47,4.388-2.963l0.159-0.224c1.271-1.791,3.192-4.497,2.478-8.547c-0.561-3.181-2.322-5.838-4.96-7.482
					C91.979,84.991,89.932,84.43,87.671,84.43L87.671,84.43z"/>
			</g>
			<g>
				<path fill="#FFFFFF" d="M28.139,168.919c-13.09,0-21.302-7.338-23.75-21.22c-1.038-5.886-0.816-12.332,0.658-19.158
					c1.446-6.692,3.907-13.186,7.316-19.302c3.468-6.224,8.265-11.746,14.258-16.413c6.076-4.732,12.515-7.723,19.139-8.891
					c2.709-0.478,5.245-0.72,7.535-0.72c3.421,0,6.445,0.542,8.988,1.608c5.997,2.517,7.91,6.76,8.459,9.877
					c0.287,1.625,0.255,3.439-0.095,5.389c-0.737,3.721-2.686,7.035-5.805,9.914c-3.06,2.825-6.53,4.596-10.311,5.263
					c-0.727,0.128-1.438,0.193-2.114,0.193c-1.364,0-2.636-0.261-3.782-0.777c-2.16-0.971-3.565-2.723-3.956-4.934
					c-0.308-1.752,0.002-3.635,0.923-5.6c0.625-1.332,1.958-2.157,3.392-2.157c0.208,0,0.417,0.017,0.626,0.053
					c0.152,0.025,0.309,0.038,0.48,0.038c0.236,0,0.497-0.025,0.774-0.074c1.696-0.299,3.144-1.169,4.427-2.661
					c1.436-1.669,1.433-2.947,1.27-3.874c-0.163-0.921-0.27-1.529-2.256-1.529c-0.579,0-1.248,0.066-1.987,0.196
					c-5.868,1.035-11.363,4.152-16.333,9.264c-5.134,5.281-8.962,11.716-11.376,19.126c-2.407,7.387-3.012,14.625-1.798,21.511
					c1.875,10.635,6.959,11.999,11.18,11.999c1.082,0,2.263-0.112,3.511-0.332c5.829-1.028,11.792-4.516,17.726-10.368
					c5.954-5.872,9.586-11.71,10.796-17.352c0.708-2.966,1.586-5.911,2.629-8.839c2.172-5.872,5.324-9.209,9.386-9.96
					c0,0,4.921-1.059,4.967-1.066L84,107.952c0.217-0.039,0.435-0.057,0.651-0.057c1.213,0,2.368,0.59,3.076,1.608
					c0.076,0.109,0.145,0.22,0.208,0.334c0.071-0.462,0.23-0.913,0.473-1.326c0.556-0.946,1.499-1.601,2.58-1.792l4.133-0.729
					c1.052-0.186,2.059-0.28,2.991-0.28c1.54,0,2.844,0.251,3.875,0.746c0.851,0.381,1.598,0.986,2.181,1.745
					c3.674-3.203,7.658-5.195,11.908-5.944c0.812-0.144,1.599-0.216,2.335-0.216c4.519,0,7.704,2.765,8.521,7.397
					c0.26,1.476,0.304,2.992,0.13,4.509c-0.197,1.728-0.831,5.009-1.328,7.458c-1.058,5.204-1.521,8.571-1.699,10.732
					c0.665-0.832,1.223-1.658,1.663-2.467c0.697-1.278,1.455-2.926,2.318-5.037c0.523-1.286,1.003-2.484,1.419-3.569
					c0.77-3.733,2.252-7.453,4.409-11.061c4.477-7.518,10.628-12.017,18.279-13.366c1.085-0.191,2.147-0.289,3.159-0.289
					c2.564,0,4.89,0.615,6.912,1.829c2.662,1.597,4.439,3.895,5.187,6.688c0.152-0.418,0.309-0.823,0.471-1.215
					c1.666-4.052,3.703-6.816,6.228-8.452c2.294-1.494,5.364-2.566,9.38-3.274c0.268-0.047,0.52-0.067,0.757-0.067
					c2.023,0,3.688,1.409,4.046,3.426c0.228,1.277-0.122,2.587-1.037,3.894c-0.047,0.067-0.096,0.132-0.147,0.196
					c-1.332,1.66-3.328,5.217-5.272,12.736c-1.374,5.276-1.905,9.693-1.587,13.163c0.85-0.972,2.008-2.602,3.453-5.332
					c2.675-5.071,4.566-10.029,5.619-14.729l0.662-3.216c0.259-1.262,0.442-2.155,0.557-2.637c0.152-0.636,0.378-1.425,0.671-2.351
					c0.409-1.345,0.881-2.336,1.471-3.081l0.03-0.041c0.271-0.358,0.683-0.9,1.207-1.5c0.897-1.048,1.859-1.789,2.916-2.236
					c1.947-0.777,3.962-1.518,6-1.877l4.036-0.711c0.218-0.039,0.437-0.057,0.651-0.057c1.424,0,2.75,0.813,3.381,2.132
					c0.725,1.519,0.349,3.335-0.92,4.44c-0.411,0.359-1.87,2.029-3.36,8.475c-0.849,3.858-1.617,7.879-2.274,11.913
					c-0.572,3.519-0.936,5.679-1.073,6.497c-0.004,0.019-0.017,0.093-0.02,0.112c-0.13,0.702-0.415,2.494-0.874,5.477
					c-0.499,3.167-0.879,5.379-1.195,6.969c-0.923,5.34-2.291,9.609-4.183,13.051c-1.931,3.514-4.615,6.566-7.98,9.07
					c-3.426,2.525-7.09,4.141-10.904,4.813c-1.521,0.269-3.006,0.404-4.414,0.404c-2.198,0-4.284-0.331-6.198-0.983
					c-3.823-1.304-6.323-4.263-7.042-8.332c-0.401-2.28-0.06-4.473,1.018-6.519c1.557-2.96,3.802-3.921,5.412-4.205
					c0.61-0.107,1.214-0.162,1.794-0.162c1.217,0,2.366,0.236,3.417,0.702c1.46,0.647,2.624,1.538,3.46,2.647
					c0.657,0.872,0.901,1.986,0.67,3.052c-0.166,0.762-0.563,1.446-1.127,1.963c0.003,0.22,0.028,0.557,0.112,1.036
					c0.024,0.135,0.051,0.186,0.052,0.187c0.106,0.053,0.262,0.121,0.568,0.121c0.147,0,0.312-0.016,0.491-0.047
					c4.293-0.757,6.546-7.295,7.698-12.938c-0.957,0.873-1.841,1.509-2.683,1.94c-1.537,0.787-3.38,1.373-5.479,1.744
					c-0.565,0.1-1.129,0.15-1.678,0.15c-2.274,0-4.387-0.865-6.11-2.501c-0.926-0.87-1.69-1.933-2.3-3.202
					c-0.713,0.991-1.438,1.886-2.173,2.68c-4.201,4.367-8.811,6.996-13.75,7.866c-1.473,0.26-2.912,0.392-4.276,0.392
					c-3.286,0-6.275-0.756-8.885-2.248c-1.898-1.085-3.46-2.565-4.677-4.427c-1.274,2.086-2.708,4.031-4.284,5.808
					c-2.81,3.167-5.623,4.962-8.602,5.487c-0.748,0.132-1.478,0.199-2.168,0.199c-2.282,0-7.737-0.839-9.108-8.611
					c-0.823-4.666-0.005-13.217,2.574-26.843c-0.411,0.245-0.816,0.555-1.22,0.93c-1.117,1.038-2.093,2.464-2.902,4.241
					c-0.958,2.102-1.806,4.253-2.52,6.394c-0.692,2.075-1.264,4.466-1.699,7.106c-0.523,3.169-0.848,5.324-1.053,6.988
					c-0.065,0.53-0.133,1.051-0.201,1.574c-0.178,1.371-0.346,2.667-0.478,4.154c-0.349,3.981-0.541,6.176-3.466,6.687l-9.54,1.683
					c-0.217,0.038-0.435,0.057-0.651,0.057c-0.94,0-1.854-0.354-2.554-1.005c-0.139-0.129-0.267-0.268-0.382-0.414
					c-2.483,2.502-4.962,3.947-7.546,4.403c-0.628,0.111-1.248,0.167-1.843,0.167c-2.417,0-6.391-0.929-8.461-6.496
					c-2.874,2.967-6.248,5.68-10.081,8.093c-6.278,3.954-13.057,6.593-20.147,7.843C33.003,168.682,30.473,168.919,28.139,168.919z
					 M88.34,112.3c-0.076,0.428-0.228,0.847-0.456,1.236c-0.946,1.615-1.811,3.769-2.645,6.586c-0.928,3.151-1.648,5.742-2.17,7.621
					l-0.287,1.03c-0.468,1.675-0.972,4.095-1.54,7.397c-0.285,1.659-0.412,2.972-0.446,4.001c0.811-0.939,1.458-1.868,1.93-2.771
					c0.68-1.303,1.447-3.021,2.279-5.107c0.589-1.478,1.121-2.824,1.599-4.034l0.645-1.63c0.164-0.411,0.311-0.773,0.442-1.087
					c1.306-8.319,1.024-11.727,0.871-12.715C88.497,112.684,88.426,112.518,88.34,112.3z M145.478,125.877
					c-0.125,1.668-0.075,3.149,0.15,4.427c0.721,4.086,2.16,4.098,3.024,4.098c0.003,0,0.005,0,0.008,0
					c0.322,0,0.683-0.035,1.07-0.103c1.943-0.343,3.928-1.556,5.899-3.606c2.287-2.38,4.173-4.957,5.602-7.658
					c0.663-1.258,1.347-2.757,2.046-4.485c-0.16,0.158-0.323,0.314-0.492,0.468c-3.613,3.324-8.188,5.494-13.597,6.447
					C147.818,125.707,146.597,125.843,145.478,125.877z M154.532,107.116c-0.992,0.562-2.388,1.752-4.126,4.234
					c-1.153,1.646-1.825,2.874-2.217,3.759c1.309-0.494,2.687-1.647,4.108-3.44C153.563,110.067,154.303,108.564,154.532,107.116z"
					/>
				<path fill="#105885" d="M53.295,86.963c2.934,0,5.447,0.439,7.538,1.316c3.575,1.5,5.653,3.861,6.219,7.072
					c0.208,1.181,0.182,2.543-0.093,4.075c-0.571,2.878-2.127,5.487-4.658,7.823c-2.531,2.336-5.333,3.782-8.42,4.326
					c-0.514,0.091-1.002,0.136-1.464,0.136c-0.832,0-1.579-0.148-2.244-0.446c-1.033-0.465-1.629-1.184-1.803-2.168
					s0.036-2.099,0.626-3.357c0.354,0.06,0.722,0.091,1.105,0.091c0.452,0,0.926-0.043,1.425-0.131
					c2.559-0.451,4.764-1.753,6.617-3.907c1.853-2.153,2.56-4.472,2.12-6.969c-0.543-3.081-2.523-4.625-5.947-4.625
					c-0.8,0-1.68,0.084-2.638,0.253c-6.692,1.18-12.819,4.632-18.369,10.342c-5.551,5.71-9.643,12.57-12.252,20.578
					c-2.609,8.007-3.255,15.782-1.925,23.323c1.774,10.061,6.731,15.095,14.87,15.095c1.305,0,2.693-0.13,4.162-0.389
					c6.631-1.169,13.191-4.964,19.707-11.39c6.516-6.425,10.458-12.841,11.829-19.235c0.642-2.688,1.468-5.485,2.495-8.367
					c1.606-4.342,3.768-7.044,6.585-7.541l4.888-1.052l0.984-0.174c-0.829,1.415-1.884,3.63-3.005,7.417
					c-1.118,3.799-1.937,6.785-2.473,8.706s-1.072,4.565-1.623,7.77s-0.652,5.797-0.316,7.704c0.302,1.713,0.977,2.582,2.013,2.582
					c0.117,0,0.239-0.011,0.365-0.033c0.849-0.15,1.952-0.94,3.288-2.356c1.336-1.415,2.39-2.844,3.149-4.297
					s1.567-3.27,2.438-5.453s1.615-4.077,2.247-5.673c0.229-0.573,0.423-1.051,0.586-1.423c1.106-6.892,1.379-11.887,0.915-14.52
					c-0.115-0.652-0.183-0.462-0.597-1.658l4.133-0.729c0.894-0.158,1.676-0.223,2.341-0.223c1.046,0,1.804,0.161,2.253,0.377
					c0.73,0.328,1.195,1.02,1.333,1.807c0.139,0.787,0.077,2.523-0.221,5.075c4.585-6.225,9.677-9.786,15.25-10.769
					c0.602-0.106,1.163-0.159,1.684-0.159c2.715,0,4.326,1.441,4.83,4.3c0.197,1.12,0.233,2.255,0.098,3.433
					s-0.552,3.56-1.278,7.138c-1.596,7.854-2.168,13.028-1.727,15.525c0.245,1.391,0.843,2.086,1.793,2.086
					c0.126,0,0.257-0.012,0.395-0.036c0.849-0.15,1.95-0.953,3.28-2.405c1.329-1.452,2.392-2.908,3.187-4.367
					s1.618-3.266,2.496-5.412c0.584-1.435,1.112-2.758,1.563-3.941c0.666-3.415,1.996-6.808,4.014-10.183
					c3.914-6.576,9.156-10.442,15.713-11.599c0.876-0.154,1.712-0.232,2.508-0.232c1.887,0,3.549,0.433,4.986,1.295
					c2.043,1.225,3.256,2.927,3.638,5.092c0.649,3.678-0.565,6.936-3.654,9.777c-3.089,2.84-6.988,4.682-11.712,5.515
					c-1.374,0.242-2.583,0.364-3.629,0.364c-1.052,0-1.939-0.123-2.663-0.371c-0.652,3.565-0.759,6.628-0.308,9.187
					c0.846,4.796,3.084,7.195,6.723,7.195c0.543,0,1.117-0.053,1.722-0.16c2.755-0.486,5.408-2.057,7.949-4.699
					c2.54-2.642,4.615-5.481,6.213-8.503c1.378-2.615,2.824-6.142,4.314-10.565c-0.002-0.012,0.008-0.027,0.006-0.039
					c0.619-3.61,1.441-6.647,2.453-9.108c1.349-3.282,2.944-5.529,4.8-6.732c1.843-1.2,4.511-2.115,7.992-2.728
					c0.038-0.007,0.073-0.01,0.107-0.01c0.196,0,0.318,0.114,0.357,0.334c0.046,0.258-0.093,0.625-0.417,1.088
					c-2.278,2.837-4.275,7.552-5.979,14.144c-1.717,6.594-2.198,11.993-1.458,16.188c0.357,2.027,1.062,3.046,2.132,3.046
					c0.106,0,0.215-0.01,0.327-0.03c2.362-0.416,4.959-3.31,7.805-8.682c2.833-5.37,4.829-10.593,5.965-15.664
					c0.143-0.697,0.356-1.724,0.629-3.053s0.464-2.263,0.58-2.753c0.117-0.49,0.311-1.184,0.597-2.084
					c0.273-0.898,0.554-1.531,0.835-1.885c0.268-0.352,0.637-0.848,1.123-1.403c0.473-0.553,0.989-1.011,1.555-1.251
					c1.825-0.728,3.542-1.348,5.191-1.638l4.035-0.711c-1.825,1.59-3.326,5.165-4.549,10.455c-0.979,4.447-1.737,8.564-2.322,12.155
					c-0.584,3.591-0.95,5.761-1.081,6.533c-0.143,0.773-0.438,2.627-0.892,5.586c-0.467,2.962-0.852,5.237-1.176,6.854
					c-0.839,4.879-2.092,8.854-3.782,11.93s-4.007,5.691-6.933,7.869c-2.941,2.168-6.046,3.552-9.318,4.129
					c-1.313,0.232-2.568,0.347-3.763,0.347c-1.795,0-3.458-0.261-4.989-0.783c-2.551-0.869-4.075-2.681-4.561-5.436
					c-0.256-1.452-0.041-2.821,0.643-4.122c0.684-1.3,1.603-2.058,2.747-2.26c0.396-0.07,0.777-0.105,1.143-0.105
					c0.69,0,1.324,0.125,1.899,0.38c0.881,0.39,1.538,0.883,1.985,1.476c-1.112,0.602-1.459,2.084-1.043,4.446
					c0.219,1.242,0.838,2.161,1.858,2.767c0.726,0.424,1.543,0.638,2.452,0.638c0.366,0,0.747-0.035,1.143-0.105
					c5.314-0.937,8.928-6.483,10.868-16.63l2.972-15.948c-2.404,4.419-4.562,7.793-6.485,10.124
					c-1.923,2.33-3.488,3.811-4.698,4.431c-1.21,0.619-2.688,1.083-4.423,1.389c-0.352,0.062-0.694,0.093-1.027,0.093
					c-1.321,0-2.495-0.489-3.529-1.471c-1.307-1.228-2.176-3.206-2.619-5.931c-0.259-1.54-0.339-3.505-0.226-5.884
					c-0.718,1.611-1.662,3.451-2.825,5.559c-1.339,2.405-2.717,4.373-4.134,5.904c-3.602,3.743-7.481,5.987-11.651,6.722
					c-1.266,0.223-2.474,0.335-3.626,0.335c-2.641,0-4.982-0.586-7.026-1.754c-2.934-1.677-4.79-4.724-5.565-9.115
					c-0.111-0.627-0.197-1.259-0.258-1.895c-0.766,1.771-1.498,3.372-2.22,4.818c-1.526,3.072-3.381,5.86-5.582,8.341
					c-2.201,2.481-4.346,3.912-6.449,4.283c-0.536,0.094-1.041,0.142-1.517,0.142c-2.966,0-4.769-1.836-5.417-5.515
					c-0.753-4.269,0.198-13.264,2.852-26.987c0.154-0.636,0.179-1.287,0.064-1.939c-0.199-1.127-0.901-1.69-2.099-1.69
					c-0.266,0-0.557,0.028-0.873,0.083c-1.734,0.306-3.349,1.149-4.831,2.526c-1.482,1.378-2.736,3.184-3.761,5.432
					c-1.024,2.248-1.909,4.497-2.664,6.761c-0.755,2.264-1.37,4.82-1.842,7.682c-0.472,2.861-0.84,5.234-1.075,7.14
					s-0.501,3.703-0.693,5.855c-0.189,2.164-0.316,3.315-0.377,3.326l-9.546,1.683c0,0,0.493-4.755,1.886-11.964
					c-0.348,0.759-0.669,1.602-1.005,2.283c-1.526,3.072-3.37,5.921-5.571,8.402s-4.339,3.949-6.443,4.32
					c-0.415,0.073-0.812,0.11-1.192,0.11c-2.983,0-4.87-2.262-5.67-6.802c-0.271-1.538-0.448-3.117-0.523-4.766
					c-0.109,0.171-0.219,0.343-0.34,0.517c-3.425,5.107-8.103,9.508-14.005,13.226c-5.902,3.717-12.17,6.154-18.8,7.323
					c-2.453,0.432-4.741,0.649-6.868,0.649c-11.239,0-17.929-6.041-20.059-18.123c-0.961-5.45-0.745-11.348,0.631-17.717
					c1.376-6.369,3.689-12.459,6.926-18.269c3.237-5.809,7.667-10.903,13.288-15.281s11.446-7.092,17.486-8.157
					C48.918,87.184,51.213,86.963,53.295,86.963 M146.383,119.186c0.484,0,1.041-0.056,1.67-0.166
					c2.497-0.44,4.878-2.116,7.182-5.021c2.291-2.903,3.328-5.8,3.089-8.663c-0.287-1.629-1.124-2.439-2.505-2.439
					c-0.235,0-0.487,0.024-0.754,0.071c-2.559,0.451-5.135,2.529-7.729,6.234c-2.594,3.704-3.717,6.541-3.37,8.509
					C144.14,118.695,144.943,119.186,146.383,119.186 M207.49,91.251h0.005 M53.295,79.468L53.295,79.468
					c-2.508,0-5.262,0.261-8.187,0.777c-7.233,1.275-14.228,4.514-20.79,9.625c-6.391,4.978-11.515,10.881-15.229,17.545
					c-3.589,6.441-6.182,13.282-7.705,20.335c-1.577,7.303-1.808,14.234-0.686,20.601c2.765,15.681,12.51,24.316,27.44,24.316
					c2.552,0,5.3-0.257,8.169-0.762c7.571-1.335,14.802-4.148,21.493-8.362c2.605-1.641,5.016-3.415,7.221-5.313
					c2.357,2.768,5.663,4.291,9.324,4.291c0.813,0,1.652-0.075,2.493-0.224c2.527-0.446,4.924-1.562,7.248-3.387
					c0.824,0.302,1.698,0.46,2.584,0.46c0.433,0,0.868-0.038,1.302-0.114l9.546-1.683c1.675-0.296,5.635-1.609,6.287-7.398
					c0.069-0.614,0.153-1.483,0.255-2.657c0.093-1.048,0.208-2.017,0.333-2.997c1.315,5.276,5.191,10.491,12.54,10.491
					c0.909,0,1.857-0.086,2.818-0.256c3.791-0.668,7.41-2.919,10.755-6.69c0.652-0.736,1.283-1.497,1.889-2.283
					c0.822,0.681,1.64,1.229,2.409,1.668c3.184,1.82,6.799,2.742,10.745,2.742c1.582,0,3.239-0.151,4.927-0.448
					c2.125-0.375,4.189-1.021,6.186-1.936c-0.204,1.439-0.179,2.912,0.08,4.383c0.966,5.477,4.348,9.465,9.524,11.229
					c2.304,0.785,4.796,1.184,7.407,1.184c1.625,0,3.329-0.155,5.065-0.461c4.389-0.774,8.582-2.617,12.463-5.477
					c3.825-2.846,6.862-6.302,9.055-10.293c2.089-3.802,3.588-8.438,4.582-14.169c0.323-1.625,0.708-3.873,1.21-7.056
					c0.451-2.934,0.738-4.738,0.859-5.394c0.007-0.037,0.013-0.074,0.02-0.111c0.131-0.777,0.499-2.962,1.088-6.578
					c0.642-3.943,1.394-7.882,2.235-11.709c1.108-4.775,2.083-6.288,2.279-6.557c1.509-1.371,2.456-3.349,2.456-5.547
					c0-3.97-3.084-7.219-6.988-7.478c-0.168-0.011-0.337-0.017-0.506-0.017c-0.164,0-0.329,0.005-0.494,0.016
					c-0.324,0.021-0.642,0.062-0.954,0.123l-3.892,0.686c-2.371,0.418-4.605,1.236-6.665,2.057
					c-0.048,0.019-0.095,0.038-0.142,0.059c-1.594,0.674-3.002,1.737-4.303,3.248c-0.311,0.357-0.582,0.688-0.812,0.98
					c-1.451-1.736-3.622-2.815-6.013-2.815c-0.47,0-0.944,0.042-1.41,0.124c-4.522,0.797-8.048,2.05-10.78,3.829
					c-1.9,1.231-3.56,2.917-5.008,5.099c-0.853-0.816-1.821-1.55-2.897-2.196c-2.613-1.568-5.588-2.363-8.841-2.363
					c-1.228,0-2.51,0.116-3.81,0.345c-8.774,1.547-15.79,6.643-20.851,15.146c-0.034,0.056-0.067,0.112-0.1,0.169
					c-1.297-6.163-5.894-9.967-12.109-9.967c-0.954,0-1.958,0.092-2.985,0.273c-3.976,0.701-7.724,2.314-11.218,4.821
					c-0.223-0.125-0.452-0.243-0.687-0.351c-1.523-0.712-3.342-1.073-5.409-1.073c-1.15,0-2.375,0.113-3.642,0.337l-4.133,0.729
					c-1.234,0.217-2.377,0.737-3.339,1.495c-0.751-0.248-1.542-0.377-2.346-0.377c-0.432,0-0.868,0.037-1.303,0.114l-0.984,0.174
					c-0.092,0.016-0.184,0.034-0.275,0.054l-4.777,1.028c-2.346,0.443-4.443,1.469-6.28,3.067c1.635-2.375,2.733-4.951,3.278-7.7
					c0.009-0.044,0.017-0.089,0.025-0.133c0.428-2.384,0.461-4.639,0.097-6.701c-1.006-5.704-4.806-10.208-10.699-12.681
					C60.729,80.108,57.217,79.468,53.295,79.468L53.295,79.468L53.295,79.468z M34.001,152.295c-2.214,0-5.919,0-7.489-8.902
					c-1.106-6.275-0.544-12.903,1.67-19.7c2.236-6.861,5.768-12.808,10.5-17.675c1.1-1.131,2.212-2.146,3.34-3.047
					c-1.108,2.535-1.456,5.032-1.034,7.427c0.603,3.42,2.83,6.227,6.11,7.702c1.631,0.734,3.421,1.106,5.318,1.106
					c0.894,0,1.824-0.084,2.766-0.25c4.5-0.794,8.606-2.879,12.203-6.2c0.159-0.147,0.316-0.295,0.47-0.444
					c-1.019,1.572-1.917,3.405-2.69,5.496c-0.011,0.029-0.021,0.057-0.031,0.086c-1.089,3.059-2.006,6.134-2.724,9.14
					c-0.013,0.056-0.026,0.113-0.038,0.17c-1.054,4.916-4.339,10.121-9.764,15.47c-5.382,5.308-10.68,8.452-15.746,9.345
					C35.827,152.202,34.865,152.295,34.001,152.295L34.001,152.295z M149.258,129.254c0.192-0.031,0.386-0.064,0.582-0.098
					c0.878-0.155,1.736-0.338,2.576-0.55c-0.821,0.777-1.86,1.577-2.91,1.9c-0.062-0.228-0.126-0.509-0.187-0.852
					C149.297,129.531,149.277,129.398,149.258,129.254L149.258,129.254z"/>
			</g>
		</g>
		<g>
			<path fill="#FFFFFF" d="M34.154,74.682l-2.19-0.902l0.242-0.586l-5.37-2.213l-0.242,0.586l-2.204-0.908l2.489-6.04l2.206-0.918
				l2.511,1.035l0.363,0.9l0.906-0.377l2.232,0.92l0.241-0.586l2.19,0.902l-1.345,3.264l-3.668-1.512l-0.419,0.186l-0.558,1.353
				l1.771,0.73l0.242-0.585l2.189,0.902L34.154,74.682z M35.406,70.971l-1.73-0.712l-0.241,0.585l-2.232-0.919l0.702-1.702
				l0.61-0.254l3.529,1.455l1.144-2.776l-1.729-0.713l-0.236,0.572l-2.357-0.971l-1.058,0.429l-0.448-1.05l-2.273-0.937
				l-2.009,0.836l-2.351,5.705l1.729,0.713l0.236-0.572l5.83,2.403l-0.236,0.572l1.729,0.713L35.406,70.971z M33.834,73.914
				l-1.116-0.46l0.235-0.572l-6.444-2.656l-0.236,0.572l-1.116-0.46l2.162-5.245l1.806-0.74l1.967,0.811l0.531,1.247l1.255-0.511
				l2.524,1.041l0.241-0.586l1.116,0.46l-0.903,2.19l-3.348-1.38l-0.847,0.353l-0.874,2.12l2.832,1.167l0.242-0.586l1.116,0.46
				L33.834,73.914z M30.542,67.531l-0.361-0.867l-1.297-0.535l-0.833,0.358l-0.874,2.12l2.497,1.029L30.542,67.531z M29.488,69.217
				l-1.883-0.776l0.672-1.632l0.709-0.295l0.893,0.368l0.281,0.703L29.488,69.217z M29.9,67.543l-0.175-0.447l-0.781-0.322
				l-0.453,0.188l-0.552,1.339l1.409,0.581L29.9,67.543z"/>
			<path fill="#FFFFFF" d="M36.173,65.467l-6.263-3.514l-0.647-2.3l2.273-4.052l2.3-0.647l6.263,3.514l0.647,2.3l-2.273,4.052
				L36.173,65.467z M38.281,64.608l2.192-3.908l-0.577-2.054l-6.092-3.417l-2.095,0.589L29.532,59.7l0.578,2.054l6.118,3.432
				L38.281,64.608z M36.211,64.813l-5.763-3.233l-0.531-1.89l2-3.565l1.89-0.532l5.763,3.233l0.531,1.89l-2,3.565L36.211,64.813z
				 M37.535,62.823l1.019-1.815l-0.249-0.883l-4.934-2.768l-0.903,0.254l-1.011,1.803l0.248,0.883l4.947,2.775L37.535,62.823z
				 M36.636,62.699l-4.605-2.583l-0.202-0.719l0.827-1.474l0.719-0.202l4.605,2.583l0.202,0.719l-0.827,1.474L36.636,62.699z
				 M37.168,62.306l0.753-1.342l-0.127-0.452l-4.486-2.517l-0.452,0.127l-0.76,1.355l0.127,0.452l4.473,2.51L37.168,62.306z"/>
			<path fill="#FFFFFF" d="M35.125,54l-1.886-1.457l3.062-3.963l1.886,1.457l-0.055,0.072l1.321-0.18l-0.159-1.324l-0.074,0.096
				l-1.886-1.458l2.979-3.856l1.886,1.458l-0.526,0.681l0.613,4.782l1.898,1.467l0.387-0.501l1.874,1.448l-2.536,3.283l-1.875-1.448
				l0.378-0.489l-1.898-1.467l-4.782,0.614L35.125,54z M35.596,52.971l4.994-0.64l2.173,1.679l-0.387,0.501l1.492,1.153l2.241-2.901
				l-1.492-1.153l-0.396,0.514l-2.173-1.679l-0.631-5.006l0.424-0.549l-1.48-1.144l-2.666,3.45l1.48,1.144l0.286-0.37l0.28,2.18
				l-2.18,0.28l0.268-0.346l-1.48-1.144L33.6,52.498l1.48,1.144L35.596,52.971z M35.019,53.174l-0.955-0.738l2.343-3.032
				l0.955,0.738L36.8,50.87l3.301-0.423l-0.423-3.301l-0.563,0.729l-0.955-0.738l2.269-2.937l0.955,0.738l-0.295,0.382l0.657,5.293
				l2.543,1.965l0.387-0.501l1.051,0.812l-1.835,2.375l-1.051-0.812l0.387-0.501l-2.542-1.964l-5.279,0.688L35.019,53.174z"/>
			<path fill="#FFFFFF" d="M47.717,50.986l-1.677-1.672l0.447-0.449l-2.75-5.469l-0.33,0.332l-1.688-1.683l3.962-3.974l1.688,1.683
				l-0.373,0.374l5.477,2.733l0.437-0.438l1.677,1.672l-2.854,2.863l-1.677-1.672l0.256-0.256l-0.47-0.234l-1.428,1.432l0.225,0.479
				l0.255-0.256l1.677,1.672L47.717,50.986z M50.209,48.123l-1.325-1.321l-0.277,0.278l-0.524-0.863l1.747-1.752l0.854,0.532
				l-0.277,0.278l1.325,1.321l2.503-2.511l-1.325-1.321l-0.426,0.428l-5.893-3.021l0.416-0.417l-1.325-1.321l-3.601,3.611
				l1.325,1.321l0.362-0.363l3.039,5.884l-0.416,0.417l1.325,1.321L50.209,48.123z M47.716,50.153l-0.855-0.852l0.32-0.32
				l-3.306-6.556l-0.469,0.47l-0.854-0.852l3.142-3.152l0.854,0.852l-0.522,0.523l6.565,3.287l0.32-0.32l0.854,0.852l-2.034,2.041
				l-0.855-0.852l0.405-0.406l-1.548-0.776l-2.035,2.041l0.781,1.546l0.405-0.406l0.854,0.852L47.716,50.153z M48.901,43.687
				l-3.235-1.627l1.616,3.251L48.901,43.687z M47.43,44.735l-1.027-1.94l1.932,1.032L47.43,44.735z M47.941,43.838L46.98,43.37
				l0.471,0.959L47.941,43.838z"/>
			<path fill="#FFFFFF" d="M54.939,43.845l-1.443-1.878l0.502-0.386l-3.539-4.605l-0.502,0.386l-1.453-1.89l3.302-2.537l1.452,1.89
				l-0.502,0.386l3.539,4.605l1.507-1.158l-0.386-0.502l1.89-1.452l1.83,2.38L54.939,43.845z M60.776,39.036l-1.507-1.961
				l-1.483,1.14l0.377,0.49l-1.926,1.48l-3.852-5.012l0.515-0.396l-1.14-1.483l-2.895,2.225l1.14,1.483l0.502-0.386l3.842,5
				l-0.49,0.376l1.14,1.483L60.776,39.036z M55.048,43.02l-0.735-0.957l0.49-0.377l-4.247-5.526l-0.49,0.377l-0.735-0.957
				l2.38-1.829l0.735,0.957l-0.502,0.386l4.247,5.526l2.417-1.856l-0.386-0.502l0.969-0.745l1.122,1.459L55.048,43.02z"/>
			<path fill="#FFFFFF" d="M68.611,34.547l-0.961-2.165l0.579-0.257l-2.356-5.309l-0.579,0.257l-0.967-2.179l5.971-2.65l2.23,0.859
				l1.102,2.482l-0.353,0.916l0.916,0.353l1.249,2.813l-0.859,2.23L68.611,34.547z M74.381,31.706l0.782-2.031L74,27.055
				l-1.035-0.399l0.398-1.035l-1.028-2.316l-2.031-0.782l-5.64,2.503l0.759,1.71l0.565-0.251l2.558,5.764L67.981,32.5l0.759,1.71
				L74.381,31.706z M68.91,33.771l-0.49-1.103l0.565-0.251l-2.828-6.371l-0.565,0.251l-0.489-1.103l5.171-2.295l1.832,0.706
				l0.875,1.972l-0.483,1.254l1.254,0.483l1.034,2.33l-0.706,1.832L68.91,33.771z M70.949,26.875l0.33-0.856l-0.569-1.283
				l-0.856-0.33l-2.096,0.93l1.096,2.468L70.949,26.875z M69.008,27.373l-0.826-1.862l1.613-0.716l0.717,0.276l0.385,0.869
				l-0.276,0.717L69.008,27.373z M70.462,26.447l0.176-0.458l-0.336-0.758l-0.458-0.176l-1.324,0.587l0.618,1.393L70.462,26.447z
				 M72.681,30.777l0.33-0.856l-0.716-1.613l-0.856-0.33l-2.096,0.93l1.242,2.799L72.681,30.777z M70.74,31.275l-0.979-2.206
				l1.613-0.716l0.717,0.276l0.539,1.213l-0.276,0.717L70.74,31.275z M72.2,30.363l0.176-0.458l-0.496-1.117l-0.458-0.176
				l-1.324,0.587l0.777,1.751L72.2,30.363z"/>
			<path fill="#FFFFFF" d="M76.208,31.111l-0.678-2.27l0.607-0.181l0.188-6.118l-0.448,0.134l-0.682-2.284l5.377-1.606l0.683,2.284
				l-0.506,0.151l3.513,5.013l0.593-0.177l0.678,2.27l-3.874,1.157l-0.678-2.27l0.347-0.104l-0.301-0.43l-1.937,0.579l-0.031,0.529
				l0.347-0.104l0.678,2.27L76.208,31.111z M79.763,29.782l-0.536-1.792l-0.376,0.112l-0.049-1.009l2.371-0.708l0.498,0.875
				l-0.375,0.112l0.535,1.792l3.397-1.015l-0.536-1.792l-0.578,0.173l-3.742-5.463l0.563-0.168l-0.536-1.792l-4.886,1.459
				l0.536,1.792l0.492-0.147l-0.132,6.621L75.845,29l0.536,1.792L79.763,29.782z M76.603,30.379l-0.345-1.156l0.434-0.13
				l0.216-7.339l-0.636,0.19l-0.346-1.156l4.264-1.274l0.346,1.156l-0.708,0.212l4.207,6.017l0.434-0.129l0.345,1.156l-2.761,0.825
				l-0.346-1.157l0.549-0.164l-0.991-1.42l-2.761,0.825l-0.049,1.731l0.549-0.164l0.346,1.156L76.603,30.379z M80.726,25.259
				l-2.069-2.972l-0.128,3.628L80.726,25.259z M78.934,25.479l0.021-2.195l1.208,1.828L78.934,25.479z M79.81,24.934l-0.622-0.869
				l-0.043,1.067L79.81,24.934z"/>
			<path fill="#FFFFFF" d="M85.578,26.639l-0.322-1.996l2.859-0.462l0.159,0.983l0.413,0.285l1.489-0.241l0.29-0.383L90.3,23.798
				l-0.378-0.26l-3.053,0.494l-1.938-1.398l-0.499-3.083l1.398-1.938l4.587-0.742l1.938,1.398l0.332,2.055l-2.874,0.465
				l-0.169-1.042l-0.38-0.275l-1.549,0.25l-0.26,0.378l0.171,1.058l0.38,0.275l3.068-0.496l1.938,1.398l0.489,3.023l-1.398,1.938
				l-4.587,0.741L85.578,26.639z M87.55,27.772l4.438-0.717l1.251-1.715l-0.472-2.919l-1.71-1.221l-3.068,0.496l-0.59-0.439
				l-0.19-1.177l0.422-0.603l1.653-0.267l0.605,0.437l0.137,0.849l2.368-0.382l-0.282-1.743l-1.713-1.236l-4.468,0.723l-1.236,1.712
				l0.479,2.964l1.713,1.236l3.053-0.493l0.603,0.422l0.183,1.132l-0.452,0.608L88.651,25.7l-0.605-0.437l-0.127-0.79l-2.368,0.383
				l0.272,1.683L87.55,27.772z M86.114,26.263l-0.185-1.147l1.712-0.277l0.111,0.685l0.744,0.537l2.056-0.333l0.534-0.759
				l-0.241-1.489l-0.764-0.564l-3.008,0.486l-1.609-1.161l-0.404-2.502l1.148-1.591l4.021-0.65l1.611,1.176l0.19,1.177l-1.728,0.279
				l-0.116-0.715l-0.764-0.564l-2.04,0.33l-0.537,0.744l0.255,1.579l0.744,0.537l3.038-0.491l1.611,1.176l0.395,2.442l-1.134,1.589
				l-4.066,0.657L86.114,26.263z"/>
			<path fill="#FFFFFF" d="M94.057,26.91L94,24.542l0.633-0.015l-0.14-5.807l-0.633,0.016l-0.058-2.383l4.163-0.1l0.058,2.383
				l-0.633,0.015l0.036,1.493l1.457-1.529l-0.256,0.006l-0.057-2.383l5.007-0.121l0.058,2.383l-0.875,0.021l-2.796,2.935l3.012,2.87
				l0.799-0.02l0.057,2.368l-5.007,0.121l-0.057-2.368l0.286-0.007l-1.05-1.001l-0.471,0.494l0.013,0.543l0.633-0.015l0.057,2.368
				L94.057,26.91z M97.972,26.559l-0.045-1.87l-0.648,0.016l-0.021-0.845l0.736-0.772l1.637,1.56l-0.603,0.015l0.045,1.87
				l4.479-0.108l-0.045-1.87l-0.633,0.015l-3.259-3.105l3.047-3.197l0.708-0.017l-0.045-1.87l-4.495,0.108l0.045,1.87l0.603-0.015
				l-2.296,2.41L97.126,18.4l0.633-0.016l-0.045-1.87l-3.65,0.088l0.045,1.87l0.619-0.015l0.152,6.304l-0.619,0.015l0.045,1.87
				L97.972,26.559z M94.631,26.307L94.602,25.1l0.618-0.015l-0.168-6.968l-0.619,0.015l-0.029-1.207l3.001-0.072l0.029,1.207
				l-0.633,0.015l0.084,3.499l3.415-3.583l-1.116,0.027l-0.029-1.207l3.846-0.093l0.029,1.207l-0.633,0.015l-3.4,3.568l3.568,3.4
				l0.633-0.015l0.029,1.207l-3.846,0.093l-0.029-1.207l1.131-0.027l-2.487-2.385l-1.059,1.127l0.032,1.342l0.649-0.016l0.029,1.207
				L94.631,26.307z"/>
			<path fill="#FFFFFF" d="M104.566,26.735l0.241-2.356l0.63,0.064l0.591-5.778l-0.63-0.064l0.243-2.371l7.714,0.79l-0.286,2.792
				l-2.356-0.241l0.043-0.42l-1.846-0.189l-0.174,1.696l0.421,0.043l0.041-0.405l2.371,0.243l-0.325,3.182l-2.371-0.243l0.041-0.405
				l-0.42-0.043l-0.175,1.711l1.846,0.189l0.044-0.436l2.356,0.241l-0.285,2.792L104.566,26.735z M112.051,27.243l0.233-2.281
				l-1.86-0.19l-0.043,0.42l-2.341-0.24l0.227-2.221l0.931,0.095l-0.043,0.42l1.86,0.19l0.273-2.671l-1.86-0.19l-0.043,0.42
				l-0.931-0.095l0.228-2.221l2.341,0.24l-0.043,0.42l1.861,0.19l0.233-2.281l-7.204-0.737l-0.191,1.861l0.616,0.063l-0.642,6.273
				l-0.615-0.063l-0.191,1.861L112.051,27.243z M105.211,26.209l0.123-1.201l0.615,0.063l0.709-6.934l-0.615-0.063l0.123-1.201
				l6.558,0.671l-0.166,1.621l-1.215-0.124l0.043-0.42l-2.987-0.306l-0.293,2.867l1.576,0.161l0.043-0.42l1.2,0.123l-0.209,2.041
				l-1.2-0.123l0.043-0.42l-1.576-0.162l-0.293,2.867l2.986,0.306l0.043-0.42l1.216,0.125l-0.166,1.621L105.211,26.209z"/>
			<path fill="#FFFFFF" d="M114.207,20.146l0.674-2.925l8.688,2.002l-0.674,2.925l-2.323-0.535l0.139-0.603l-0.603-0.139
				l-1.304,5.66l0.603,0.139l-0.532,2.308l-4.058-0.935l0.532-2.308l0.617,0.143l1.305-5.66l-0.617-0.142l-0.14,0.603
				L114.207,20.146z M116.319,20.385l0.143-0.618l1.117,0.258l-1.416,6.145l-0.618-0.143l-0.42,1.823l3.572,0.823l0.421-1.823
				l-0.618-0.142l1.416-6.145l1.117,0.257l-0.142,0.617l1.808,0.417l0.562-2.44l-8.188-1.887l-0.562,2.44L116.319,20.385z
				 M114.909,19.72l0.413-1.793l7.557,1.741l-0.414,1.793l-1.19-0.274l0.143-0.618l-1.735-0.399l-1.564,6.792l0.603,0.139
				l-0.271,1.176l-2.926-0.674l0.271-1.176l0.618,0.143l1.564-6.792l-1.764-0.407l-0.143,0.618L114.909,19.72z"/>
			<path fill="#FFFFFF" d="M130.47,31.144l3.273-6.392l2.274-0.733l4.136,2.118l0.733,2.274l-1.072,2.095l-2.592-1.328l0.605-1.182
				l-0.145-0.447l-1.383-0.708l-0.446,0.144l-2.339,4.565l0.15,0.467l1.37,0.702l0.446-0.145l0.578-1.128l2.591,1.328l-1.038,2.027
				l-2.274,0.734l-4.136-2.119L130.47,31.144z M131.414,33.238l3.988,2.042l2.01-0.648l0.901-1.759l-2.135-1.093l-0.488,0.953
				l-0.711,0.229l-1.477-0.756l-0.229-0.711l2.394-4.673l0.71-0.229l1.478,0.756l0.229,0.711l-0.53,1.034l2.136,1.094l0.941-1.84
				l-0.654-2.03l-4.015-2.057l-2.018,0.662l-3.198,6.244L131.414,33.238z M131.124,31.157l3.013-5.881l1.868-0.603l3.639,1.864
				l0.603,1.868l-0.681,1.329l-1.558-0.798l0.461-0.899l-0.288-0.894l-1.84-0.942l-0.873,0.281l-2.586,5.049l0.281,0.873l1.84,0.942
				l0.894-0.288l0.433-0.846l1.585,0.812l-0.653,1.276l-1.868,0.603l-3.666-1.877L131.124,31.157z"/>
			<path fill="#FFFFFF" d="M137.3,36.57l1.33-1.96l0.524,0.355l3.26-4.807l-0.524-0.355l1.339-1.973l3.445,2.337l-1.338,1.973
				l-0.524-0.356l-3.261,4.807l1.573,1.067l0.355-0.524l1.973,1.338l-1.685,2.485L137.3,36.57z M143.699,40.601l1.389-2.047
				l-1.548-1.05l-0.348,0.512l-2.01-1.363l3.548-5.231l0.537,0.364l1.05-1.548l-3.021-2.05l-1.051,1.548l0.524,0.355l-3.54,5.219
				l-0.512-0.347l-1.05,1.548L143.699,40.601z M138.117,36.413l0.678-0.999l0.512,0.347l3.912-5.768l-0.512-0.347l0.678-0.999
				l2.484,1.686l-0.678,0.999l-0.524-0.356l-3.912,5.768l2.521,1.71l0.356-0.524l1.011,0.686l-1.033,1.523L138.117,36.413z"/>
			<path fill="#FFFFFF" d="M149.104,34.678l1.562-1.799l3.144,2.73l-1.563,1.799l-0.479-0.416l-3.592,4.134l0.033,0.468l1.173,1.019
				l0.469-0.033l3.592-4.134l-0.479-0.416l1.563-1.799l3.154,2.741l-1.563,1.799l-0.489-0.425l-4.255,4.897l-2.372,0.177
				l-3.508-3.048l-0.167-2.383l4.254-4.897L149.104,34.678z M149.932,35.058l-4.383,5.045l0.147,2.107l3.439,2.988l2.086-0.146
				l4.393-5.057l0.467,0.406l1.228-1.412l-2.756-2.395l-1.228,1.412l0.49,0.425l-3.79,4.362l-0.756,0.042l-1.253-1.088l-0.054-0.766
				l3.779-4.351l0.479,0.416l1.227-1.412l-2.756-2.394l-1.227,1.412L149.932,35.058z M149.933,34.62l0.792-0.911l2.267,1.969
				l-0.792,0.911l-0.479-0.416l-4.146,4.771l0.064,0.915l1.56,1.356l0.937-0.066l4.136-4.76l-0.478-0.416l0.791-0.911l2.267,1.969
				l-0.792,0.911l-0.478-0.416l-4.453,5.125l-1.958,0.137l-3.074-2.671l-0.14-1.979l4.443-5.113L149.933,34.62z"/>
			<path fill="#FFFFFF" d="M151.184,47.382l1.775-1.568l0.419,0.475l4.354-3.845l-0.42-0.475l1.786-1.578l4.325,4.896l-0.147,2.385
				l-2.035,1.798l-0.979-0.061l-0.062,0.979l-2.307,2.038l-2.385-0.147L151.184,47.382z M155.632,52.029l2.172,0.134l2.147-1.897
				l0.069-1.107l1.107,0.069l1.899-1.678l0.134-2.172l-4.085-4.625l-1.401,1.239l0.409,0.463l-4.726,4.175l-0.41-0.463l-1.401,1.238
				L155.632,52.029z M152.014,47.434l0.904-0.799l0.41,0.463l5.224-4.614l-0.409-0.463l0.904-0.799l3.745,4.24l-0.121,1.959
				l-1.617,1.428l-1.342-0.083l-0.083,1.342l-1.91,1.688l-1.959-0.121L152.014,47.434z M156.006,50.128l0.915,0.057l1.323-1.168
				l0.057-0.916l-1.518-1.719l-2.296,2.028L156.006,50.128z M154.946,48.428l1.809-1.598l1.169,1.323l-0.048,0.767l-0.995,0.879
				l-0.767-0.047L154.946,48.428z M156.256,49.545l0.489,0.03l0.916-0.809l0.03-0.49l-0.959-1.085l-1.436,1.269L156.256,49.545z
				 M159.205,47.302l0.916,0.057l1.052-0.929l0.057-0.916l-1.519-1.719l-2.023,1.788L159.205,47.302z M158.145,45.601l1.526-1.348
				l1.169,1.323l-0.048,0.767l-0.712,0.629l-0.767-0.048L158.145,45.601z M159.467,46.709l0.489,0.03l0.622-0.549l0.03-0.49
				l-0.959-1.085l-1.142,1.009L159.467,46.709z"/>
		</g>
	</g>
</g>
</svg>
