<?xml version="1.0" encoding="utf-8"?>
<!-- Generator: Adobe Illustrator 17.0.0, SVG Export Plug-In . SVG Version: 6.00 Build 0)  -->
<!DOCTYPE svg PUBLIC "-//W3C//DTD SVG 1.1//EN" "http://www.w3.org/Graphics/SVG/1.1/DTD/svg11.dtd">
<svg version="1.1" id="Calque_1" xmlns="http://www.w3.org/2000/svg" xmlns:xlink="http://www.w3.org/1999/xlink" x="0px" y="0px"
	 width="218.99px" height="174.67px" viewBox="0 0 218.99 174.67" enable-background="new 0 0 218.99 174.67" xml:space="preserve">
<g id="Brg">
</g>
<rect x="-5.716" y="-5.256" width="231.982" height="187.584"/>
<g>
	<g>
		
			<line fill="none" stroke="#FFFFFF" stroke-linecap="round" stroke-miterlimit="10" x1="176.498" y1="70.629" x2="176.497" y2="93.445"/>
		
			<line fill="none" stroke="#FFFFFF" stroke-linecap="round" stroke-miterlimit="10" x1="166.291" y1="72.275" x2="166.291" y2="92.923"/>
		
			<line fill="none" stroke="#FFFFFF" stroke-linecap="round" stroke-miterlimit="10" x1="196.791" y1="88.334" x2="196.791" y2="72.283"/>
		<path fill="#105885" stroke="#105885" stroke-width="0.4024" stroke-miterlimit="10" d="M166.343,75.145"/>
		<path fill="#FFFFFF" stroke="#FFFFFF" stroke-linecap="round" stroke-linejoin="round" stroke-miterlimit="10" d="M186.758,34.375
			c-5.231-1.61-5.231-1.61-10.462,0l-1.006,11.221c6.237-1.61,6.237-1.61,12.474,0L186.758,34.375z"/>
		<path fill="#FFFFFF" stroke="#FFFFFF" stroke-linecap="round" stroke-linejoin="round" stroke-miterlimit="10" d="M187.764,47.206
			c-5.231-1.61-7.243-1.61-12.474,0l-9.054,25.033l10.261-1.61l20.32,1.61L187.764,47.206z"/>
		<path fill="#FFFFFF" stroke="#FFFFFF" stroke-linecap="round" stroke-linejoin="round" stroke-miterlimit="10" d="M186.759,32.766
			c-5.233-1.608-5.233-1.608-10.461,0l4.858-27.399l-1.237-3.865h3.22l-1.22,3.86L186.759,32.766z"/>
		<path fill="#FFFFFF" d="M183.041,75.234c-1.271,0-2.319,0.701-2.492,1.612l-0.028-0.003v7.042l5.039,0.464v-7.042
			C185.56,76.271,184.432,75.234,183.041,75.234z"/>
		<path fill="#FFFFFF" d="M191.788,76.142c-1.111,0-2.012,0.671-2.012,1.498v7.042l4.024,0.354v-7.042
			C193.8,77.167,192.899,76.142,191.788,76.142z"/>
		<path fill="#FFFFFF" d="M170.144,77.502L170.144,77.502c0-0.442-0.444-0.801-0.991-0.801c-0.548,0-0.991,0.672-0.991,1.114v7.042
			l1.985-0.313v-7.042L170.144,77.502z"/>
		<path fill="#FFFFFF" d="M173.21,75.816c-0.694,0-1.257,0.849-1.257,1.409v7.042l2.515-0.394v-7.042
			C174.467,76.27,173.904,75.816,173.21,75.816z"/>
	</g>
	<g>
		<g>
			<path fill="none" d="M103.155,34.481c-34.839,0-63.081,28.243-63.081,63.081c0,20.667,9.94,39.012,25.298,50.518l10.654-1.879
				c0.4-0.114,0.829-0.192,1.286-0.227l78.611-13.861c6.513-9.926,10.313-21.792,10.313-34.551
				C166.237,62.723,137.994,34.481,103.155,34.481z"/>
			<path fill="none" stroke="#FFFFFF" stroke-width="2.4983" stroke-miterlimit="10" d="M103.155,34.481
				c-34.839,0-63.081,28.243-63.081,63.081c0,20.667,9.94,39.012,25.298,50.518l10.654-1.879c0.4-0.114,0.829-0.192,1.286-0.227
				l78.611-13.861c6.513-9.926,10.313-21.792,10.313-34.551C166.237,62.723,137.994,34.481,103.155,34.481z"/>
		</g>
		<g>
			<g id="XMLID_1_">
				<g>
					<path fill="#FFFFFF" d="M162.325,110.095c3.41-17.48,0-33.52-10.28-48.07c-0.34-0.48-0.9-1.01-1.43-1.11
						c-5.74-1.12-11.5-1.88-17.22,0.1c-1.25,0.43-2.39,1.18-3.75,1.88c16.6,12.21,29.4,26.5,32.36,47.56
						C162.185,110.265,162.305,110.195,162.325,110.095z M127.285,42.205c-0.89-0.39-2.43-0.17-3.26,0.37
						c-4.49,2.9-7.45,7.22-10.51,11.31c4.41,2.42,8.61,4.77,12.87,7.02c0.47,0.26,1.4,0.26,1.82-0.03c3.96-2.8,8.44-3.6,13.13-3.53
						c2.27,0.03,4.55,0.27,6.83,0.42c0-0.21,0.07-0.39,0-0.48c-0.2-0.28-0.43-0.53-0.67-0.79
						C141.765,50.305,135.015,45.525,127.285,42.205z M95.205,37.625c0.15,3.74,0.29,7.27,0.45,11.11
						c4.68,1.33,9.51,2.75,14.35,4.01c0.53,0.13,1.46-0.48,1.91-0.99c2.69-3.02,5.27-6.14,7.95-9.18c0.7-0.8,1.58-1.44,2.57-2.31
						C113.275,37.245,104.295,36.405,95.205,37.625z M78.815,73.085c-7.17,5.59-14.54,10.93-21.7,16.55
						c-5.03,3.96-9.34,8.63-12.4,14.35c-1.04,1.94-1.4,3.77-0.9,6c3.65,16.08,12.05,28.61,25.21,37.59
						c-0.98,0.27-1.76,0.74-2.4,1.38c-17.51-12.38-27.57-32.64-26.43-54.98c0.15-2.78,0.51-5.56,0.77-8.33
						c0.99-3.5,1.99-7.01,2.99-10.5c1.4-3.03,2.81-6.04,4.22-9.05c0.17-0.37,0.3-0.78,0.52-1.12c9.06-12.98,20.47-22.85,35.89-27.63
						c44.47-13.78,88.43,24.59,80.72,70.51c-1.58,9.41-5.11,17.96-10.14,25.31c-0.28,0.02-0.54,0.07-0.79,0.12
						c-0.21-0.01-0.42-0.03-0.65-0.03c-0.27,0-0.54,0.02-0.79,0.05c-0.25-0.04-0.51-0.05-0.78-0.05c-0.06,0-0.11,0.01-0.19,0.01
						c2.15-2.99,4.09-6.21,5.78-9.68c0.55-1.13,1.2-2.29,1.35-3.5c1.07-8.17-0.12-16.03-3.47-23.57
						c-4.66-10.55-11.89-19.06-20.69-26.33c-2.29-1.9-4.72-3.61-7.18-5.48c-2.82,3.51-3.8,7.36-4.31,11.33
						c-1.01,7.99-0.1,15.93,0.58,23.88c0.68,8.23,1.52,16.45,1.98,24.69c0.26,4.55,0.28,9.07-0.08,13.58
						c-0.22,0.04-0.42,0.07-0.6,0.14c-0.65,0.01-1.24,0.12-1.78,0.27c-0.05,0-0.1-0.01-0.15-0.01c-0.02,0-0.05,0-0.07,0
						c0.88-9.81-0.09-19.6-0.9-29.39c-0.73-8.72-1.53-17.44-1.85-26.17c-0.26-6.85,0.65-13.59,5.07-19.85
						c-4.02-2.09-7.82-3.99-11.56-6.03c-1.73-0.94-2.63-0.48-3.67,1.12c-8.32,12.84-15.44,26.32-21.47,40.37
						c-4.98,11.59-9.52,23.4-11.17,36c-0.48,3.72-0.41,7.58-0.08,11.33c-0.99,0.03-1.85,0.24-2.59,0.59
						c-0.16-0.96-0.29-1.92-0.36-2.89c-0.46-6.58,0.81-12.99,2.48-19.28c5.22-19.55,13.74-37.7,23.67-55.23
						c2.64-4.66,5.53-9.18,8.39-13.94c-4.8-1.36-9.47-2.68-14.27-4.04c-0.66,1.78-1.11,3.18-1.68,4.53
						C90.235,62.955,84.875,68.335,78.815,73.085z M56.235,87.115c5.41-4.21,10.94-8.27,16.42-12.39
						c5.21-3.92,10.32-7.95,14.33-13.18c2.4-3.12,4.34-6.47,5.21-10.3c-0.25-0.2-0.35-0.33-0.48-0.35
						c-0.33-0.08-0.68-0.13-1.02-0.16c-6.97-0.69-13.88-0.39-20.55,1.86c-8.17,2.77-15.17,7.13-19.56,14.92
						c-3.01,5.35-5.27,10.98-6.58,16.97c-1.23,5.61-1.75,11.26-1.23,17.39c0.45-0.57,0.69-0.79,0.87-1.08
						C46.955,95.425,51.285,90.965,56.235,87.115z M92.695,38.005c-11.47,2.13-21.17,6.81-29.49,14.44
						c9.4-4.42,19.32-5.17,29.93-4.01C92.985,44.825,92.845,41.525,92.695,38.005z"/>
				</g>
				<g>
				</g>
			</g>
		</g>
	</g>
	<polygon fill="#FFFFFF" points="38.33,93.876 21.706,140.747 35.595,161.176 119.001,142.867 158.493,130.477 78.928,104.022 	"/>
	<g>
		<g>
			<path d="M86.04,108.875c-0.234,0-0.472-0.022-0.71-0.068c-3.347-0.643-5.595-2.874-6.167-6.122
				c-0.467-2.646,0.196-5.417,1.971-8.232c1.854-2.939,4.069-4.654,6.586-5.098c0.676-0.119,1.333-0.18,1.951-0.18
				c1.55,0,2.931,0.371,4.103,1.102c1.724,1.074,2.878,2.833,3.252,4.954c0.442,2.505-0.772,4.216-1.843,5.725l-0.163,0.229
				c-0.57,0.806-1.436,1.354-2.409,1.526l-0.394,0.069c-0.312,0.055-0.686,0.168-1.186,0.823c-0.771,1.008-1.191,1.76-1.361,2.438
				C89.245,107.733,87.725,108.875,86.04,108.875z"/>
			<path fill="#FFFFFF" d="M89.672,92.923c0.844,0,1.551,0.179,2.121,0.534c0.841,0.524,1.363,1.402,1.543,2.423
				c0.18,1.021-0.349,1.691-1.374,3.141l-0.394,0.069c-1.316,0.232-2.492,0.902-3.512,2.237c-1.02,1.334-1.698,2.525-2.019,3.8
				c-1.825-0.35-2.882-1.382-3.183-3.092c-0.302-1.71,0.182-3.571,1.451-5.583s2.628-3.152,4.067-3.406
				C88.836,92.964,89.269,92.923,89.672,92.923 M89.672,85.428c-0.836,0-1.712,0.08-2.602,0.237
				c-3.601,0.635-6.665,2.919-9.105,6.789c-2.287,3.628-3.126,7.289-2.492,10.882c0.845,4.792,4.266,8.212,9.151,9.151
				c0.476,0.091,0.952,0.136,1.42,0.136c3.37,0,6.41-2.283,7.262-5.667l0,0c0.001,0,0.07-0.187,0.387-0.643
				c1.77-0.42,3.332-1.47,4.388-2.963l0.159-0.224c1.271-1.791,3.192-4.497,2.478-8.547c-0.561-3.181-2.322-5.838-4.96-7.482
				C93.98,85.989,91.933,85.428,89.672,85.428L89.672,85.428z"/>
		</g>
		<g>
			<path d="M30.141,169.918c-13.09,0-21.303-7.338-23.75-21.22c-1.038-5.886-0.816-12.332,0.658-19.158
				c1.446-6.692,3.907-13.186,7.316-19.302c3.468-6.223,8.265-11.745,14.258-16.413c6.076-4.732,12.515-7.724,19.139-8.891
				c2.709-0.478,5.245-0.72,7.535-0.72c3.421,0,6.445,0.542,8.988,1.608c5.997,2.517,7.91,6.76,8.459,9.877
				c0.287,1.625,0.255,3.439-0.095,5.389c-0.737,3.721-2.686,7.035-5.805,9.914c-3.06,2.825-6.53,4.596-10.311,5.263
				c-0.727,0.128-1.438,0.193-2.114,0.193c-1.364,0-2.636-0.261-3.782-0.777c-2.16-0.971-3.565-2.723-3.956-4.934
				c-0.308-1.752,0.002-3.635,0.923-5.6c0.625-1.332,1.958-2.157,3.392-2.157c0.208,0,0.417,0.017,0.626,0.053
				c0.149,0.025,0.311,0.038,0.48,0.038c0.236,0,0.497-0.025,0.774-0.074c1.695-0.299,3.144-1.169,4.427-2.661
				c1.436-1.669,1.433-2.947,1.27-3.874c-0.163-0.921-0.27-1.529-2.256-1.529c-0.579,0-1.248,0.066-1.987,0.196
				c-5.868,1.035-11.363,4.152-16.333,9.264c-5.134,5.281-8.962,11.716-11.376,19.126c-2.407,7.387-3.012,14.625-1.798,21.511
				c1.875,10.635,6.959,11.999,11.18,11.999c1.082,0,2.263-0.112,3.511-0.332c5.829-1.028,11.792-4.516,17.726-10.368
				c5.954-5.872,9.586-11.71,10.796-17.352c0.708-2.966,1.586-5.911,2.629-8.839c2.172-5.872,5.324-9.208,9.386-9.96
				c0,0,4.92-1.059,4.967-1.066l0.984-0.173c0.217-0.039,0.435-0.057,0.651-0.057c1.213,0,2.368,0.59,3.076,1.608
				c0.075,0.108,0.145,0.22,0.208,0.334c0.071-0.462,0.23-0.913,0.473-1.326c0.556-0.946,1.499-1.601,2.58-1.792l4.133-0.729
				c1.052-0.186,2.059-0.28,2.991-0.28c1.54,0,2.844,0.251,3.875,0.746c0.851,0.381,1.598,0.986,2.181,1.745
				c3.674-3.203,7.658-5.195,11.908-5.944c0.812-0.144,1.599-0.216,2.335-0.216c4.519,0,7.704,2.765,8.521,7.397
				c0.26,1.476,0.304,2.993,0.13,4.509c-0.197,1.728-0.831,5.009-1.328,7.458c-1.058,5.204-1.521,8.571-1.699,10.732
				c0.665-0.832,1.222-1.658,1.663-2.468c0.697-1.279,1.455-2.926,2.318-5.037c0.523-1.286,1.003-2.484,1.419-3.568
				c0.77-3.733,2.252-7.453,4.409-11.061c4.477-7.518,10.628-12.017,18.279-13.366c1.085-0.191,2.147-0.289,3.157-0.289
				c2.565,0,4.892,0.616,6.914,1.829c2.662,1.597,4.439,3.895,5.187,6.688c0.152-0.418,0.309-0.823,0.471-1.215
				c1.666-4.052,3.703-6.816,6.228-8.452c2.294-1.494,5.364-2.566,9.38-3.274c0.268-0.047,0.52-0.067,0.757-0.067
				c2.023,0,3.688,1.409,4.046,3.426c0.228,1.277-0.122,2.587-1.037,3.894c-0.047,0.067-0.096,0.132-0.147,0.196
				c-1.332,1.66-3.328,5.217-5.272,12.736c-1.374,5.276-1.905,9.693-1.587,13.163c0.85-0.972,2.008-2.602,3.453-5.332
				c2.675-5.071,4.566-10.029,5.619-14.729l0.662-3.219c0.259-1.26,0.442-2.152,0.557-2.634c0.152-0.638,0.378-1.426,0.671-2.351
				c0.409-1.344,0.88-2.335,1.469-3.08l0.038-0.051c0.3-0.395,0.697-0.916,1.201-1.492c0.897-1.048,1.859-1.789,2.916-2.236
				c1.947-0.777,3.962-1.518,6-1.877l4.036-0.711c0.218-0.039,0.437-0.057,0.651-0.057c1.424,0,2.75,0.813,3.381,2.132
				c0.725,1.519,0.349,3.335-0.92,4.44c-0.411,0.358-1.87,2.029-3.36,8.475c-0.849,3.858-1.617,7.879-2.274,11.913
				c-0.572,3.519-0.936,5.679-1.073,6.497c-0.004,0.019-0.017,0.093-0.02,0.112c-0.13,0.702-0.415,2.494-0.874,5.477
				c-0.499,3.167-0.879,5.38-1.195,6.969c-0.923,5.339-2.291,9.608-4.183,13.05c-1.931,3.514-4.615,6.566-7.98,9.07
				c-3.426,2.525-7.09,4.141-10.904,4.813c-1.521,0.268-3.006,0.404-4.414,0.404c-2.199,0-4.284-0.331-6.198-0.982
				c-3.823-1.304-6.323-4.263-7.042-8.333c-0.401-2.28-0.06-4.473,1.018-6.519c1.558-2.961,3.804-3.921,5.413-4.205
				c0.609-0.107,1.213-0.162,1.793-0.162c1.217,0,2.366,0.236,3.417,0.702c1.46,0.647,2.624,1.538,3.46,2.647
				c0.657,0.872,0.901,1.986,0.67,3.052c-0.166,0.762-0.563,1.446-1.127,1.963c0.003,0.22,0.028,0.557,0.112,1.036
				c0.024,0.135,0.051,0.186,0.052,0.187c0.106,0.053,0.262,0.121,0.568,0.121c0.147,0,0.312-0.016,0.491-0.047
				c4.293-0.757,6.546-7.295,7.698-12.938c-0.958,0.873-1.841,1.51-2.684,1.941c-1.535,0.786-3.378,1.373-5.479,1.744
				c-0.565,0.1-1.129,0.15-1.678,0.15c-2.274,0-4.387-0.865-6.11-2.501c-0.926-0.871-1.69-1.933-2.3-3.203
				c-0.713,0.991-1.438,1.886-2.173,2.68c-4.201,4.366-8.811,6.995-13.75,7.866c-1.473,0.26-2.912,0.392-4.276,0.392
				c-3.286,0-6.275-0.756-8.885-2.248c-1.898-1.085-3.46-2.565-4.677-4.427c-1.274,2.086-2.708,4.031-4.284,5.808
				c-2.81,3.167-5.623,4.962-8.602,5.487c-0.748,0.132-1.478,0.199-2.168,0.199c-2.282,0-7.737-0.839-9.108-8.611
				c-0.823-4.666-0.005-13.217,2.574-26.843c-0.411,0.245-0.816,0.555-1.22,0.93c-1.117,1.038-2.093,2.464-2.902,4.241
				c-0.958,2.103-1.805,4.253-2.52,6.394c-0.692,2.075-1.264,4.466-1.699,7.106c-0.523,3.169-0.848,5.324-1.053,6.988
				c-0.065,0.53-0.133,1.051-0.201,1.574c-0.178,1.371-0.346,2.667-0.478,4.154c-0.349,3.981-0.541,6.176-3.466,6.687l-9.54,1.683
				c-0.217,0.038-0.435,0.057-0.651,0.057c-0.94,0-1.854-0.354-2.554-1.005c-0.139-0.129-0.267-0.268-0.382-0.414
				c-2.483,2.502-4.962,3.947-7.546,4.403c-0.628,0.111-1.248,0.167-1.843,0.167c-2.417,0-6.391-0.929-8.461-6.496
				c-2.874,2.967-6.248,5.68-10.081,8.093c-6.278,3.954-13.057,6.593-20.146,7.843C35.004,169.68,32.475,169.918,30.141,169.918z
				 M90.341,113.297c-0.076,0.429-0.228,0.848-0.456,1.237c-0.946,1.615-1.811,3.77-2.645,6.586
				c-0.926,3.145-1.645,5.73-2.167,7.608l-0.29,1.042c-0.468,1.675-0.972,4.095-1.54,7.397c-0.285,1.66-0.412,2.972-0.446,4.001
				c0.811-0.939,1.458-1.868,1.93-2.771c0.68-1.303,1.447-3.021,2.279-5.107c0.59-1.479,1.122-2.826,1.6-4.037l0.644-1.627
				c0.164-0.411,0.311-0.773,0.442-1.087c1.306-8.319,1.024-11.727,0.871-12.715C90.499,113.682,90.427,113.516,90.341,113.297z
				 M147.48,126.876c-0.125,1.668-0.075,3.149,0.15,4.427c0.721,4.086,2.16,4.098,3.024,4.098c0.003,0,0.005,0,0.008,0
				c0.322,0,0.683-0.035,1.07-0.103c1.943-0.343,3.928-1.556,5.899-3.606c2.288-2.38,4.173-4.957,5.602-7.659
				c0.662-1.257,1.347-2.757,2.046-4.484c-0.16,0.157-0.323,0.313-0.492,0.468c-3.613,3.324-8.188,5.494-13.597,6.447
				C149.82,126.705,148.599,126.841,147.48,126.876z M156.533,108.114c-0.992,0.562-2.388,1.752-4.126,4.234
				c-1.153,1.646-1.825,2.874-2.217,3.76c1.309-0.494,2.687-1.647,4.108-3.44C155.565,111.066,156.304,109.562,156.533,108.114z"/>
			<path fill="#FFFFFF" d="M55.297,87.961c2.934,0,5.447,0.439,7.538,1.316c3.575,1.5,5.653,3.861,6.219,7.072
				c0.208,1.181,0.182,2.543-0.093,4.075c-0.571,2.878-2.127,5.487-4.658,7.823s-5.333,3.782-8.42,4.326
				c-0.514,0.091-1.002,0.136-1.464,0.136c-0.832,0-1.579-0.148-2.244-0.447c-1.033-0.465-1.629-1.184-1.803-2.168
				s0.036-2.099,0.626-3.357c0.354,0.06,0.722,0.091,1.105,0.091c0.452,0,0.926-0.043,1.425-0.131
				c2.559-0.451,4.764-1.753,6.617-3.907c1.853-2.153,2.56-4.472,2.12-6.969c-0.543-3.081-2.523-4.625-5.947-4.625
				c-0.8,0-1.68,0.084-2.638,0.253c-6.692,1.18-12.819,4.632-18.369,10.342c-5.551,5.71-9.643,12.57-12.252,20.578
				c-2.609,8.007-3.255,15.782-1.925,23.323c1.774,10.061,6.731,15.095,14.87,15.095c1.305,0,2.693-0.13,4.162-0.389
				c6.631-1.169,13.191-4.964,19.707-11.39c6.516-6.425,10.458-12.841,11.829-19.235c0.642-2.688,1.468-5.485,2.495-8.367
				c1.606-4.342,3.768-7.045,6.585-7.541l4.888-1.052l0.984-0.174c-0.829,1.415-1.884,3.63-3.005,7.417
				c-1.118,3.799-1.937,6.785-2.473,8.706s-1.072,4.565-1.623,7.77s-0.652,5.797-0.316,7.704c0.302,1.713,0.977,2.582,2.013,2.582
				c0.117,0,0.239-0.011,0.365-0.033c0.849-0.15,1.952-0.94,3.288-2.356c1.336-1.415,2.39-2.844,3.149-4.297s1.567-3.27,2.438-5.453
				s1.615-4.077,2.247-5.673c0.229-0.573,0.423-1.051,0.586-1.423c1.106-6.892,1.379-11.887,0.915-14.52
				c-0.115-0.652-0.183-0.462-0.597-1.658l4.133-0.729c0.894-0.158,1.676-0.223,2.341-0.223c1.046,0,1.804,0.161,2.253,0.377
				c0.73,0.328,1.195,1.02,1.333,1.807c0.139,0.787,0.077,2.523-0.221,5.075c4.585-6.225,9.677-9.786,15.25-10.769
				c0.602-0.106,1.163-0.159,1.684-0.159c2.715,0,4.326,1.441,4.83,4.3c0.197,1.12,0.233,2.255,0.098,3.433s-0.552,3.56-1.278,7.138
				c-1.596,7.854-2.168,13.028-1.727,15.525c0.245,1.391,0.843,2.086,1.793,2.086c0.126,0,0.257-0.012,0.395-0.036
				c0.849-0.15,1.95-0.953,3.28-2.405c1.329-1.452,2.392-2.908,3.187-4.367s1.618-3.266,2.496-5.412
				c0.584-1.435,1.112-2.758,1.563-3.941c0.666-3.415,1.996-6.808,4.014-10.183c3.914-6.576,9.156-10.442,15.713-11.599
				c0.876-0.154,1.712-0.232,2.508-0.232c1.887,0,3.549,0.433,4.986,1.295c2.043,1.225,3.256,2.927,3.638,5.092
				c0.649,3.678-0.565,6.936-3.654,9.777c-3.089,2.84-6.988,4.682-11.712,5.515c-1.374,0.242-2.583,0.364-3.629,0.364
				c-1.052,0-1.939-0.123-2.663-0.371c-0.652,3.565-0.759,6.628-0.308,9.187c0.846,4.796,3.084,7.195,6.723,7.195
				c0.543,0,1.117-0.053,1.722-0.16c2.755-0.486,5.408-2.057,7.949-4.699c2.54-2.642,4.615-5.481,6.213-8.503
				c1.378-2.615,2.824-6.142,4.314-10.565c-0.002-0.012,0.008-0.027,0.006-0.039c0.619-3.61,1.441-6.647,2.453-9.108
				c1.349-3.282,2.944-5.529,4.8-6.732c1.843-1.2,4.511-2.115,7.992-2.728c0.038-0.007,0.073-0.01,0.107-0.01
				c0.196,0,0.318,0.114,0.357,0.334c0.046,0.258-0.093,0.625-0.417,1.088c-2.278,2.837-4.275,7.552-5.979,14.144
				c-1.717,6.594-2.198,11.993-1.458,16.188c0.357,2.027,1.062,3.046,2.132,3.046c0.106,0,0.215-0.01,0.327-0.03
				c2.362-0.416,4.959-3.31,7.805-8.682c2.833-5.37,4.829-10.593,5.965-15.664c0.143-0.697,0.356-1.724,0.629-3.053
				s0.464-2.263,0.58-2.753c0.117-0.49,0.311-1.184,0.597-2.084c0.273-0.898,0.554-1.531,0.835-1.885
				c0.268-0.352,0.637-0.848,1.123-1.403c0.473-0.553,0.989-1.011,1.555-1.251c1.825-0.728,3.542-1.348,5.191-1.638l4.035-0.711
				c-1.825,1.59-3.326,5.165-4.549,10.455c-0.979,4.447-1.737,8.564-2.322,12.155c-0.584,3.591-0.95,5.761-1.081,6.533
				c-0.143,0.773-0.438,2.627-0.892,5.586c-0.467,2.962-0.852,5.237-1.176,6.854c-0.839,4.879-2.092,8.854-3.782,11.93
				s-4.007,5.691-6.933,7.869c-2.941,2.168-6.046,3.552-9.318,4.129c-1.313,0.232-2.568,0.347-3.764,0.347
				c-1.795,0-3.458-0.261-4.989-0.783c-2.551-0.869-4.075-2.681-4.561-5.436c-0.256-1.452-0.041-2.821,0.643-4.122
				c0.684-1.3,1.603-2.058,2.747-2.26c0.396-0.07,0.777-0.105,1.143-0.105c0.69,0,1.324,0.125,1.899,0.38
				c0.881,0.39,1.538,0.883,1.985,1.476c-1.112,0.602-1.459,2.084-1.043,4.446c0.219,1.242,0.838,2.161,1.858,2.767
				c0.726,0.424,1.543,0.638,2.452,0.638c0.366,0,0.747-0.035,1.143-0.105c5.314-0.937,8.928-6.483,10.868-16.63l2.972-15.948
				c-2.404,4.419-4.562,7.793-6.485,10.124s-3.488,3.811-4.698,4.431c-1.21,0.619-2.688,1.083-4.423,1.389
				c-0.352,0.062-0.694,0.093-1.027,0.093c-1.321,0-2.495-0.489-3.529-1.471c-1.307-1.228-2.176-3.206-2.619-5.931
				c-0.259-1.54-0.339-3.504-0.226-5.884c-0.718,1.611-1.662,3.451-2.825,5.559c-1.339,2.405-2.717,4.373-4.134,5.904
				c-3.602,3.743-7.481,5.987-11.651,6.722c-1.266,0.223-2.474,0.335-3.626,0.335c-2.641,0-4.982-0.586-7.026-1.754
				c-2.934-1.677-4.79-4.724-5.565-9.115c-0.111-0.627-0.197-1.259-0.258-1.895c-0.766,1.771-1.498,3.372-2.22,4.818
				c-1.526,3.072-3.381,5.86-5.582,8.341c-2.201,2.481-4.346,3.912-6.449,4.283c-0.536,0.094-1.041,0.142-1.517,0.142
				c-2.966,0-4.769-1.836-5.417-5.515c-0.753-4.269,0.198-13.264,2.852-26.987c0.154-0.636,0.179-1.287,0.064-1.939
				c-0.199-1.127-0.901-1.69-2.1-1.69c-0.266,0-0.557,0.028-0.873,0.083c-1.734,0.306-3.349,1.149-4.831,2.526
				c-1.482,1.378-2.736,3.184-3.761,5.432c-1.024,2.248-1.909,4.497-2.664,6.761c-0.755,2.264-1.37,4.821-1.842,7.682
				s-0.84,5.234-1.075,7.14s-0.501,3.703-0.693,5.855c-0.189,2.164-0.316,3.315-0.377,3.326l-9.546,1.683
				c0,0,0.493-4.755,1.886-11.964c-0.348,0.759-0.669,1.602-1.005,2.283c-1.526,3.072-3.37,5.921-5.571,8.402
				s-4.339,3.949-6.443,4.32c-0.415,0.073-0.812,0.11-1.192,0.11c-2.983,0-4.87-2.262-5.67-6.802
				c-0.271-1.538-0.448-3.117-0.523-4.766c-0.109,0.171-0.219,0.343-0.34,0.517c-3.425,5.107-8.103,9.508-14.005,13.225
				c-5.902,3.717-12.17,6.154-18.8,7.323c-2.453,0.432-4.741,0.649-6.868,0.649c-11.239,0-17.929-6.041-20.059-18.123
				c-0.961-5.45-0.745-11.348,0.631-17.717s3.689-12.459,6.926-18.269c3.237-5.809,7.667-10.903,13.288-15.281
				s11.446-7.092,17.486-8.157C50.919,88.182,53.214,87.961,55.297,87.961 M148.384,120.184c0.484,0,1.041-0.056,1.67-0.166
				c2.497-0.44,4.878-2.116,7.182-5.021c2.291-2.903,3.328-5.8,3.089-8.663c-0.287-1.629-1.124-2.439-2.505-2.439
				c-0.235,0-0.487,0.024-0.754,0.071c-2.559,0.451-5.135,2.529-7.729,6.234c-2.594,3.704-3.717,6.541-3.37,8.509
				C146.141,119.694,146.945,120.184,148.384,120.184 M209.491,92.249h0.005 M55.297,80.466L55.297,80.466
				c-2.508,0-5.262,0.261-8.187,0.777c-7.233,1.275-14.228,4.514-20.79,9.625c-6.391,4.978-11.515,10.881-15.229,17.545
				c-3.589,6.441-6.182,13.282-7.705,20.335c-1.577,7.303-1.808,14.234-0.686,20.601c2.765,15.681,12.51,24.316,27.44,24.316
				c2.552,0,5.3-0.257,8.169-0.762c7.571-1.335,14.802-4.148,21.493-8.362c2.606-1.641,5.015-3.414,7.221-5.313
				c2.357,2.768,5.663,4.291,9.324,4.291c0.813,0,1.652-0.075,2.493-0.224c2.527-0.446,4.924-1.562,7.248-3.387
				c0.824,0.302,1.698,0.46,2.584,0.46c0.433,0,0.868-0.038,1.302-0.114l9.546-1.683c1.675-0.296,5.635-1.609,6.287-7.398
				c0.069-0.614,0.153-1.483,0.255-2.657c0.093-1.048,0.208-2.017,0.333-2.997c1.315,5.276,5.191,10.491,12.54,10.491
				c0.909,0,1.857-0.086,2.818-0.256c3.791-0.668,7.41-2.919,10.755-6.69c0.652-0.736,1.282-1.497,1.889-2.283
				c0.822,0.681,1.64,1.229,2.409,1.668c3.184,1.82,6.799,2.742,10.745,2.742c1.582,0,3.239-0.151,4.927-0.449
				c2.125-0.375,4.189-1.021,6.186-1.936c-0.204,1.439-0.179,2.912,0.08,4.383c0.966,5.477,4.348,9.465,9.524,11.229
				c2.304,0.785,4.796,1.184,7.407,1.184c1.625,0,3.329-0.155,5.065-0.461c4.389-0.774,8.582-2.617,12.463-5.477
				c3.825-2.846,6.862-6.302,9.055-10.293c2.089-3.802,3.588-8.438,4.582-14.169c0.323-1.625,0.708-3.873,1.21-7.056
				c0.451-2.934,0.738-4.738,0.859-5.394c0.007-0.037,0.013-0.074,0.02-0.111c0.131-0.777,0.499-2.962,1.088-6.578
				c0.642-3.943,1.394-7.882,2.235-11.709c1.108-4.775,2.083-6.288,2.279-6.557c1.509-1.371,2.456-3.349,2.456-5.547
				c0-3.97-3.084-7.219-6.988-7.478c-0.168-0.011-0.337-0.017-0.506-0.017c-0.164,0-0.329,0.005-0.494,0.016
				c-0.324,0.021-0.642,0.062-0.954,0.123l-3.892,0.686c-2.371,0.418-4.604,1.236-6.665,2.057c-0.048,0.019-0.095,0.039-0.143,0.059
				c-1.594,0.674-3.002,1.737-4.303,3.249c-0.311,0.357-0.582,0.688-0.812,0.98c-1.451-1.736-3.622-2.815-6.014-2.815
				c-0.47,0-0.944,0.042-1.41,0.124c-4.522,0.797-8.048,2.05-10.78,3.829c-1.9,1.231-3.559,2.917-5.007,5.098
				c-0.853-0.816-1.821-1.55-2.897-2.196c-2.613-1.568-5.588-2.363-8.841-2.363c-1.228,0-2.51,0.116-3.81,0.345
				c-8.774,1.547-15.79,6.643-20.851,15.146c-0.034,0.056-0.067,0.112-0.1,0.169c-1.297-6.163-5.894-9.967-12.109-9.967
				c-0.954,0-1.958,0.092-2.985,0.273c-3.976,0.701-7.724,2.314-11.218,4.821c-0.223-0.125-0.452-0.243-0.687-0.351
				c-1.523-0.712-3.342-1.073-5.409-1.073c-1.15,0-2.375,0.113-3.642,0.337l-4.133,0.729c-1.234,0.217-2.377,0.737-3.339,1.495
				c-0.751-0.248-1.542-0.377-2.346-0.377c-0.432,0-0.868,0.037-1.303,0.114l-0.984,0.174c-0.092,0.016-0.184,0.034-0.275,0.054
				l-4.777,1.028c-2.346,0.443-4.443,1.469-6.28,3.067c1.635-2.375,2.733-4.951,3.278-7.7c0.009-0.044,0.017-0.089,0.025-0.133
				c0.428-2.384,0.461-4.639,0.097-6.701c-1.006-5.704-4.806-10.208-10.699-12.681C62.731,81.106,59.219,80.466,55.297,80.466
				L55.297,80.466L55.297,80.466z M36.002,153.293c-2.214,0-5.919,0-7.489-8.902c-1.106-6.275-0.544-12.903,1.67-19.7
				c2.236-6.861,5.768-12.808,10.5-17.675c1.1-1.131,2.212-2.146,3.34-3.047c-1.108,2.535-1.456,5.032-1.034,7.427
				c0.603,3.42,2.83,6.227,6.11,7.702c1.631,0.734,3.421,1.106,5.318,1.106c0.894,0,1.824-0.084,2.765-0.25
				c4.5-0.794,8.606-2.879,12.203-6.2c0.159-0.147,0.316-0.295,0.47-0.444c-1.019,1.573-1.917,3.406-2.69,5.496
				c-0.011,0.029-0.021,0.057-0.031,0.086c-1.089,3.059-2.006,6.134-2.724,9.14c-0.013,0.056-0.026,0.113-0.038,0.17
				c-1.054,4.916-4.339,10.121-9.764,15.47c-5.382,5.308-10.68,8.452-15.746,9.345C37.829,153.2,36.867,153.293,36.002,153.293
				L36.002,153.293z M151.26,130.252c0.192-0.031,0.386-0.064,0.582-0.098c0.878-0.155,1.736-0.338,2.576-0.55
				c-0.821,0.777-1.86,1.577-2.91,1.9c-0.062-0.228-0.126-0.509-0.187-0.852C151.299,130.529,151.278,130.396,151.26,130.252
				L151.26,130.252z"/>
		</g>
	</g>
	<g>
		<path fill="#FFFFFF" d="M36.155,75.68l-2.19-0.902l0.242-0.586l-5.37-2.213l-0.242,0.586l-2.204-0.908l2.489-6.04l2.206-0.918
			l2.511,1.035l0.363,0.9l0.906-0.377l2.232,0.92l0.241-0.586l2.19,0.902l-1.345,3.264l-3.668-1.512l-0.419,0.186l-0.558,1.353
			l1.771,0.73l0.242-0.585l2.189,0.902L36.155,75.68z M37.407,71.969l-1.73-0.712l-0.241,0.585l-2.232-0.919l0.702-1.702l0.61-0.254
			l3.529,1.455l1.144-2.776l-1.729-0.713l-0.236,0.572l-2.357-0.971l-1.058,0.429l-0.448-1.05l-2.273-0.937l-2.009,0.836
			l-2.351,5.705l1.729,0.713l0.236-0.572l5.83,2.403l-0.236,0.572l1.729,0.713L37.407,71.969z M35.836,74.912l-1.116-0.46
			l0.235-0.572l-6.444-2.656l-0.236,0.572l-1.116-0.46l2.162-5.245l1.806-0.74l1.967,0.811l0.531,1.247l1.255-0.511l2.524,1.041
			l0.241-0.586l1.116,0.46l-0.903,2.19l-3.348-1.38l-0.847,0.353l-0.874,2.12l2.832,1.167l0.242-0.586l1.116,0.46L35.836,74.912z
			 M32.543,68.529l-0.361-0.867l-1.297-0.535l-0.833,0.358l-0.874,2.12l2.497,1.029L32.543,68.529z M31.489,70.215l-1.883-0.776
			l0.672-1.632l0.709-0.295l0.893,0.368l0.281,0.703L31.489,70.215z M31.902,68.542l-0.175-0.447l-0.781-0.322l-0.453,0.188
			L29.941,69.3l1.409,0.581L31.902,68.542z"/>
		<path fill="#FFFFFF" d="M38.174,66.465l-6.263-3.514l-0.647-2.3l2.273-4.052l2.3-0.647l6.263,3.514l0.647,2.3l-2.273,4.052
			L38.174,66.465z M40.282,65.607l2.192-3.908l-0.577-2.054l-6.092-3.417l-2.095,0.589l-2.177,3.881l0.578,2.054l6.118,3.432
			L40.282,65.607z M38.213,65.812l-5.763-3.233l-0.531-1.89l2-3.565l1.89-0.532l5.763,3.233l0.531,1.89l-2,3.565L38.213,65.812z
			 M39.536,63.821l1.019-1.815l-0.249-0.883l-4.934-2.768l-0.903,0.254l-1.011,1.803l0.248,0.883l4.947,2.775L39.536,63.821z
			 M38.637,63.697l-4.605-2.583l-0.202-0.719l0.827-1.474l0.719-0.202l4.605,2.583l0.202,0.719l-0.827,1.474L38.637,63.697z
			 M39.17,63.304l0.753-1.342l-0.127-0.452l-4.486-2.517l-0.452,0.127l-0.76,1.355l0.127,0.452l4.473,2.51L39.17,63.304z"/>
		<path fill="#FFFFFF" d="M37.127,54.998l-1.886-1.457l3.062-3.963l1.886,1.457l-0.055,0.072l1.321-0.18l-0.159-1.324l-0.074,0.096
			l-1.886-1.458l2.979-3.856l1.886,1.458l-0.526,0.681l0.613,4.782l1.898,1.467l0.387-0.501l1.874,1.448l-2.536,3.283l-1.875-1.448
			l0.378-0.489l-1.898-1.467l-4.782,0.614L37.127,54.998z M37.597,53.969l4.994-0.64l2.173,1.679l-0.387,0.501l1.492,1.153
			l2.241-2.901l-1.492-1.153l-0.396,0.514l-2.173-1.679l-0.631-5.006l0.424-0.549l-1.48-1.144l-2.666,3.45l1.48,1.144l0.286-0.37
			l0.28,2.18l-2.18,0.28l0.268-0.346l-1.48-1.144l-2.75,3.556l1.48,1.144L37.597,53.969z M37.021,54.172l-0.955-0.738l2.343-3.032
			l0.955,0.738l-0.562,0.728l3.301-0.423l-0.423-3.301l-0.563,0.729l-0.955-0.738l2.269-2.937l0.955,0.738l-0.295,0.382l0.657,5.293
			l2.543,1.965l0.387-0.501l1.051,0.812l-1.835,2.375l-1.051-0.812l0.387-0.501l-2.542-1.964l-5.279,0.688L37.021,54.172z"/>
		<path fill="#FFFFFF" d="M49.718,51.984l-1.677-1.672l0.447-0.449l-2.75-5.469l-0.33,0.332l-1.688-1.683l3.962-3.974l1.688,1.683
			l-0.373,0.374l5.477,2.733l0.437-0.438l1.677,1.672l-2.854,2.863l-1.677-1.672l0.256-0.256l-0.47-0.234l-1.428,1.432l0.225,0.479
			l0.255-0.256l1.677,1.672L49.718,51.984z M52.21,49.121L50.885,47.8l-0.277,0.278l-0.524-0.863l1.747-1.752l0.854,0.532
			l-0.277,0.278l1.325,1.321l2.503-2.511l-1.325-1.321l-0.426,0.428l-5.893-3.021l0.416-0.417l-1.325-1.321l-3.601,3.611
			l1.325,1.321L45.77,44l3.039,5.884L48.393,50.3l1.325,1.321L52.21,49.121z M49.717,51.151l-0.855-0.852l0.32-0.32l-3.306-6.556
			l-0.469,0.47l-0.854-0.852l3.142-3.152l0.854,0.852l-0.522,0.523l6.565,3.287l0.32-0.32l0.854,0.852l-2.034,2.041l-0.855-0.852
			l0.405-0.406l-1.548-0.776L49.7,47.13l0.781,1.546l0.405-0.406l0.854,0.852L49.717,51.151z M50.902,44.685l-3.235-1.627
			l1.616,3.251L50.902,44.685z M49.431,45.733l-1.027-1.94l1.932,1.032L49.431,45.733z M49.942,44.836l-0.961-0.468l0.471,0.959
			L49.942,44.836z"/>
		<path fill="#FFFFFF" d="M56.941,44.843l-1.443-1.878L56,42.579l-3.539-4.605l-0.502,0.386l-1.453-1.89l3.302-2.537l1.452,1.89
			l-0.502,0.386l3.539,4.605l1.507-1.158l-0.386-0.502l1.89-1.452l1.83,2.38L56.941,44.843z M62.778,40.034l-1.507-1.961
			l-1.483,1.14l0.377,0.49l-1.926,1.48l-3.852-5.012l0.515-0.396l-1.14-1.483l-2.895,2.225L52.006,38l0.502-0.386l3.842,5
			l-0.49,0.376L57,44.474L62.778,40.034z M57.049,44.018l-0.735-0.957l0.49-0.377l-4.247-5.526l-0.49,0.377l-0.735-0.957l2.38-1.829
			l0.735,0.957l-0.502,0.386l4.247,5.526l2.417-1.856l-0.386-0.502l0.969-0.745l1.122,1.459L57.049,44.018z"/>
		<path fill="#FFFFFF" d="M70.612,35.545l-0.961-2.165l0.579-0.257l-2.356-5.309l-0.579,0.257l-0.967-2.179l5.971-2.65l2.23,0.859
			l1.102,2.482L75.278,27.5l0.916,0.353l1.249,2.813l-0.859,2.23L70.612,35.545z M76.383,32.704l0.782-2.031l-1.163-2.62
			l-1.035-0.399l0.398-1.035l-1.028-2.316l-2.031-0.782l-5.64,2.503l0.759,1.71l0.565-0.251l2.558,5.764l-0.565,0.251l0.759,1.71
			L76.383,32.704z M70.911,34.769l-0.49-1.103l0.565-0.251l-2.828-6.371l-0.565,0.251l-0.489-1.103l5.171-2.295l1.832,0.706
			l0.875,1.972l-0.483,1.254l1.254,0.483l1.034,2.33l-0.706,1.832L70.911,34.769z M72.95,27.873l0.33-0.856l-0.569-1.283
			l-0.856-0.33l-2.096,0.93l1.096,2.468L72.95,27.873z M71.009,28.371l-0.826-1.862l1.613-0.716l0.717,0.276l0.385,0.869
			l-0.276,0.717L71.009,28.371z M72.464,27.445l0.176-0.458l-0.336-0.758l-0.458-0.176l-1.324,0.587l0.618,1.393L72.464,27.445z
			 M74.682,31.775l0.33-0.856l-0.716-1.613l-0.856-0.33l-2.096,0.93l1.242,2.799L74.682,31.775z M72.741,32.273l-0.979-2.206
			l1.613-0.716l0.717,0.276l0.539,1.213l-0.276,0.717L72.741,32.273z M74.202,31.361l0.176-0.458l-0.496-1.117l-0.458-0.176
			L72.1,30.197l0.777,1.751L74.202,31.361z"/>
		<path fill="#FFFFFF" d="M78.21,32.109l-0.678-2.27l0.607-0.181l0.188-6.118l-0.448,0.134l-0.682-2.284l5.377-1.606l0.683,2.284
			l-0.506,0.151l3.513,5.013l0.593-0.177l0.678,2.27l-3.874,1.157l-0.678-2.27l0.347-0.104l-0.301-0.43l-1.937,0.579l-0.031,0.529
			l0.347-0.104l0.678,2.27L78.21,32.109z M81.764,30.78l-0.536-1.792L80.853,29.1l-0.049-1.009l2.371-0.708l0.498,0.875
			l-0.375,0.112l0.535,1.792l3.397-1.015l-0.536-1.792l-0.578,0.173l-3.742-5.463l0.563-0.168l-0.536-1.792l-4.886,1.459
			l0.536,1.792l0.492-0.147L78.41,29.83l-0.563,0.168l0.536,1.792L81.764,30.78z M78.605,31.378l-0.345-1.156l0.434-0.13
			l0.216-7.339l-0.636,0.19l-0.346-1.156l4.264-1.274l0.346,1.156l-0.708,0.212l4.207,6.017l0.434-0.129l0.345,1.156l-2.761,0.825
			l-0.346-1.157l0.549-0.164l-0.991-1.42l-2.761,0.825l-0.049,1.731l0.549-0.164l0.346,1.156L78.605,31.378z M82.728,26.257
			l-2.069-2.972l-0.128,3.628L82.728,26.257z M80.935,26.477l0.021-2.195l1.208,1.828L80.935,26.477z M81.812,25.932l-0.622-0.869
			l-0.043,1.067L81.812,25.932z"/>
		<path fill="#FFFFFF" d="M87.58,27.637l-0.322-1.996l2.859-0.462l0.159,0.983l0.413,0.285l1.489-0.241l0.29-0.383l-0.166-1.027
			l-0.378-0.26L88.87,25.03l-1.938-1.398l-0.499-3.083l1.398-1.938l4.587-0.742l1.938,1.398l0.332,2.055l-2.874,0.465l-0.169-1.042
			l-0.38-0.275l-1.549,0.25l-0.26,0.378l0.171,1.058l0.38,0.275l3.068-0.496l1.938,1.398l0.489,3.023l-1.398,1.938l-4.587,0.741
			L87.58,27.637z M89.551,28.771l4.438-0.717l1.251-1.715l-0.472-2.919l-1.71-1.221l-3.068,0.496l-0.59-0.439l-0.19-1.177
			l0.422-0.603l1.653-0.267l0.605,0.437l0.137,0.849l2.368-0.382l-0.282-1.743L92.4,18.134l-4.468,0.723l-1.236,1.712l0.479,2.964
			l1.713,1.236l3.053-0.493l0.603,0.422l0.183,1.132l-0.452,0.608l-1.624,0.263l-0.605-0.437l-0.127-0.79l-2.368,0.383l0.272,1.683
			L89.551,28.771z M88.115,27.261l-0.185-1.147l1.712-0.277l0.111,0.685l0.744,0.537l2.056-0.333l0.534-0.759l-0.241-1.489
			l-0.764-0.564L89.074,24.4l-1.609-1.161l-0.404-2.502l1.148-1.591l4.021-0.65l1.611,1.176l0.19,1.177l-1.728,0.279l-0.116-0.715
			l-0.764-0.564l-2.04,0.33l-0.537,0.744l0.255,1.579l0.744,0.537l3.038-0.491l1.611,1.176l0.395,2.442l-1.134,1.589l-4.066,0.657
			L88.115,27.261z"/>
		<path fill="#FFFFFF" d="M96.058,27.908l-0.057-2.368l0.633-0.015l-0.14-5.807l-0.633,0.016l-0.058-2.383l4.163-0.1l0.058,2.383
			l-0.633,0.015l0.036,1.493l1.457-1.529l-0.256,0.006l-0.057-2.383l5.007-0.121l0.058,2.383l-0.875,0.021l-2.796,2.935l3.012,2.87
			l0.799-0.02l0.057,2.368l-5.007,0.121l-0.057-2.368l0.286-0.007l-1.05-1.001l-0.471,0.494l0.013,0.543l0.633-0.015l0.057,2.368
			L96.058,27.908z M99.973,27.557l-0.045-1.87l-0.648,0.016l-0.021-0.845l0.736-0.772l1.637,1.56l-0.603,0.015l0.045,1.87
			l4.479-0.108l-0.045-1.87l-0.633,0.015l-3.259-3.105l3.047-3.197l0.708-0.017l-0.045-1.87l-4.495,0.108l0.045,1.87l0.603-0.015
			l-2.296,2.41l-0.057-2.353l0.633-0.016l-0.045-1.87l-3.65,0.088l0.045,1.87l0.619-0.015l0.152,6.304l-0.619,0.015l0.045,1.87
			L99.973,27.557z M96.633,27.305l-0.029-1.207l0.618-0.015l-0.168-6.968l-0.619,0.015l-0.029-1.207l3.001-0.072l0.029,1.207
			l-0.633,0.015l0.084,3.499l3.415-3.583l-1.116,0.027l-0.029-1.207l3.846-0.093l0.029,1.207l-0.633,0.015l-3.4,3.568l3.568,3.4
			l0.633-0.015l0.029,1.207l-3.846,0.093l-0.029-1.207l1.131-0.027l-2.487-2.385l-1.059,1.127l0.032,1.342l0.649-0.016l0.029,1.207
			L96.633,27.305z"/>
		<path fill="#FFFFFF" d="M106.567,27.733l0.241-2.356l0.63,0.064l0.591-5.778l-0.63-0.064l0.243-2.371l7.714,0.79l-0.286,2.792
			l-2.356-0.241l0.043-0.42l-1.846-0.189l-0.174,1.696l0.421,0.043l0.041-0.405l2.371,0.243l-0.325,3.182l-2.371-0.243l0.041-0.405
			l-0.42-0.043l-0.175,1.711l1.846,0.189l0.044-0.436l2.356,0.241l-0.285,2.792L106.567,27.733z M114.052,28.241l0.233-2.281
			l-1.86-0.19l-0.043,0.42l-2.341-0.24l0.227-2.221l0.931,0.095l-0.043,0.42l1.86,0.19l0.273-2.671l-1.86-0.19l-0.043,0.42
			l-0.931-0.095l0.228-2.221l2.341,0.24l-0.043,0.42l1.861,0.19l0.233-2.281l-7.204-0.737l-0.191,1.861l0.616,0.063l-0.642,6.273
			l-0.615-0.063l-0.191,1.861L114.052,28.241z M107.213,27.208l0.123-1.201l0.615,0.063l0.709-6.934l-0.615-0.063l0.123-1.201
			l6.558,0.671l-0.166,1.621l-1.215-0.124l0.043-0.42l-2.987-0.306l-0.293,2.867l1.576,0.161l0.043-0.42l1.2,0.123l-0.209,2.041
			l-1.2-0.123l0.043-0.42l-1.576-0.162l-0.293,2.867l2.986,0.306l0.043-0.42l1.216,0.125l-0.166,1.621L107.213,27.208z"/>
		<path fill="#FFFFFF" d="M116.208,21.144l0.674-2.925l8.688,2.002l-0.674,2.925l-2.323-0.535l0.139-0.603l-0.603-0.139l-1.304,5.66
			l0.603,0.139l-0.532,2.308l-4.058-0.935l0.532-2.308l0.617,0.143l1.305-5.66l-0.617-0.142l-0.14,0.603L116.208,21.144z
			 M118.32,21.383l0.143-0.618l1.117,0.258l-1.416,6.145l-0.618-0.143l-0.42,1.823l3.572,0.823l0.421-1.823l-0.618-0.142
			l1.416-6.145l1.117,0.257l-0.142,0.617l1.808,0.417l0.562-2.44l-8.188-1.887l-0.562,2.44L118.32,21.383z M116.91,20.718
			l0.413-1.793l7.557,1.741l-0.414,1.793l-1.19-0.274l0.143-0.618l-1.735-0.399l-1.564,6.792l0.603,0.139l-0.271,1.176l-2.926-0.674
			l0.271-1.176l0.618,0.143l1.564-6.792l-1.764-0.407l-0.143,0.618L116.91,20.718z"/>
		<path fill="#FFFFFF" d="M132.471,32.142l3.273-6.392l2.274-0.733l4.136,2.118l0.733,2.274l-1.072,2.095l-2.592-1.328l0.605-1.182
			l-0.145-0.447l-1.383-0.708l-0.446,0.144l-2.339,4.565l0.15,0.467l1.37,0.702l0.446-0.145l0.578-1.128l2.591,1.328l-1.038,2.027
			l-2.274,0.734l-4.136-2.119L132.471,32.142z M133.415,34.236l3.988,2.042l2.01-0.648l0.901-1.759l-2.135-1.093l-0.488,0.953
			l-0.711,0.229l-1.477-0.756l-0.229-0.711l2.394-4.673l0.71-0.229l1.478,0.756l0.229,0.711l-0.53,1.034l2.136,1.094l0.941-1.84
			l-0.654-2.03l-4.015-2.057l-2.018,0.662l-3.198,6.244L133.415,34.236z M133.125,32.155l3.013-5.881l1.868-0.603l3.639,1.864
			l0.603,1.868l-0.681,1.329l-1.558-0.798l0.461-0.899l-0.288-0.894l-1.84-0.942l-0.873,0.281l-2.586,5.049l0.281,0.873l1.84,0.942
			l0.894-0.288l0.433-0.846l1.585,0.812l-0.653,1.276l-1.868,0.603l-3.666-1.877L133.125,32.155z"/>
		<path fill="#FFFFFF" d="M139.301,37.568l1.33-1.96l0.524,0.355l3.26-4.807l-0.524-0.355l1.339-1.973l3.445,2.337l-1.338,1.973
			l-0.524-0.356l-3.261,4.807l1.573,1.067l0.355-0.524l1.973,1.338l-1.685,2.485L139.301,37.568z M145.7,41.599l1.389-2.047
			l-1.548-1.05l-0.348,0.512l-2.01-1.363l3.548-5.231l0.537,0.364l1.05-1.548l-3.021-2.05l-1.051,1.548l0.524,0.355l-3.54,5.219
			l-0.512-0.347l-1.05,1.548L145.7,41.599z M140.118,37.411l0.678-0.999l0.512,0.347l3.912-5.768l-0.512-0.347l0.678-0.999
			l2.484,1.686l-0.678,0.999l-0.524-0.356l-3.912,5.768l2.521,1.71l0.356-0.524l1.011,0.686l-1.033,1.523L140.118,37.411z"/>
		<path fill="#FFFFFF" d="M151.106,35.676l1.562-1.799l3.144,2.73l-1.563,1.799l-0.479-0.416l-3.592,4.134l0.033,0.468l1.173,1.019
			l0.469-0.033l3.592-4.134l-0.479-0.416l1.563-1.799l3.154,2.741l-1.563,1.799l-0.489-0.425l-4.255,4.897l-2.372,0.177
			l-3.508-3.048l-0.167-2.383l4.254-4.897L151.106,35.676z M151.934,36.056l-4.383,5.045l0.147,2.107l3.439,2.988l2.086-0.146
			l4.393-5.057l0.467,0.406l1.228-1.412l-2.756-2.395l-1.228,1.412l0.49,0.425l-3.79,4.362l-0.756,0.042l-1.253-1.088l-0.054-0.766
			l3.779-4.351l0.479,0.416l1.227-1.412l-2.756-2.394l-1.227,1.412L151.934,36.056z M151.935,35.618l0.792-0.911l2.267,1.969
			l-0.792,0.911l-0.479-0.416l-4.146,4.771l0.064,0.915l1.56,1.356l0.937-0.066l4.136-4.76l-0.478-0.416l0.791-0.911l2.267,1.969
			l-0.792,0.911l-0.478-0.416l-4.453,5.125l-1.958,0.137l-3.074-2.671l-0.14-1.979l4.443-5.113L151.935,35.618z"/>
		<path fill="#FFFFFF" d="M153.186,48.38l1.775-1.568l0.419,0.475l4.354-3.845l-0.42-0.475l1.786-1.578l4.325,4.896l-0.147,2.385
			l-2.035,1.798l-0.979-0.061l-0.062,0.979l-2.307,2.038l-2.385-0.147L153.186,48.38z M157.633,53.027l2.172,0.134l2.147-1.897
			l0.069-1.107l1.107,0.069l1.899-1.678l0.134-2.172l-4.085-4.625l-1.401,1.239l0.409,0.463l-4.726,4.175l-0.41-0.463l-1.401,1.238
			L157.633,53.027z M154.016,48.432l0.904-0.799l0.41,0.463l5.224-4.614l-0.409-0.463l0.904-0.799l3.745,4.24l-0.121,1.959
			l-1.617,1.428l-1.342-0.083l-0.083,1.342l-1.91,1.688l-1.959-0.121L154.016,48.432z M158.007,51.127l0.915,0.057l1.323-1.168
			l0.057-0.916l-1.518-1.719l-2.296,2.028L158.007,51.127z M156.947,49.426l1.809-1.598l1.169,1.323l-0.048,0.767l-0.995,0.879
			l-0.767-0.047L156.947,49.426z M158.257,50.544l0.489,0.03l0.916-0.809l0.03-0.49l-0.959-1.085l-1.436,1.269L158.257,50.544z
			 M161.206,48.3l0.916,0.057l1.052-0.929l0.057-0.916l-1.519-1.719l-2.023,1.788L161.206,48.3z M160.147,46.599l1.526-1.348
			l1.169,1.323l-0.048,0.767l-0.712,0.629l-0.767-0.048L160.147,46.599z M161.468,47.707l0.489,0.03l0.622-0.549l0.03-0.49
			l-0.959-1.085l-1.142,1.009L161.468,47.707z"/>
	</g>
</g>
</svg>
