<?xml version="1.0" encoding="utf-8"?>
<!-- Generator: Adobe Illustrator 17.0.0, SVG Export Plug-In . SVG Version: 6.00 Build 0)  -->
<!DOCTYPE svg PUBLIC "-//W3C//DTD SVG 1.1//EN" "http://www.w3.org/Graphics/SVG/1.1/DTD/svg11.dtd">
<svg version="1.1" xmlns="http://www.w3.org/2000/svg" xmlns:xlink="http://www.w3.org/1999/xlink" x="0px" y="0px" width="500px"
	 height="500px" viewBox="0 0 500 500" enable-background="new 0 0 500 500" xml:space="preserve">
<g id="Brg" display="none">
	<rect x="-9" y="-7" display="inline" width="516" height="515"/>
</g>
<g id="Logo">
	<circle display="none" cx="250" cy="270" r="150"/>
	<g>
		<g display="none">
			
				<line display="inline" fill="#FFFFFF" stroke="#FFFFFF" stroke-width="1.1977" stroke-linecap="round" stroke-linejoin="round" stroke-miterlimit="10" x1="317.006" y1="236.631" x2="317.006" y2="259.447"/>
			
				<line display="inline" fill="#FFFFFF" stroke="#FFFFFF" stroke-width="1.1407" stroke-linecap="round" stroke-linejoin="round" stroke-miterlimit="10" x1="307.045" y1="238.277" x2="307.045" y2="258.925"/>
			
				<line display="inline" fill="#FFFFFF" stroke="#FFFFFF" stroke-width="1.006" stroke-linecap="round" stroke-linejoin="round" stroke-miterlimit="10" x1="337.024" y1="254.336" x2="337.024" y2="238.285"/>
			<path display="inline" fill="#FFFFFF" stroke="#FFFFFF" stroke-width="0.4024" stroke-miterlimit="10" d="M306.852,241.147"/>
			
				<path display="inline" fill="#FFFFFF" stroke="#FFFFFF" stroke-width="0.4024" stroke-linecap="round" stroke-linejoin="round" stroke-miterlimit="10" d="
				M327.267,200.377c-5.231-1.61-5.231-1.61-10.462,0l-1.006,11.221c6.237-1.61,6.237-1.61,12.474,0L327.267,200.377z"/>
			
				<path display="inline" fill="#FFFFFF" stroke="#FFFFFF" stroke-width="0.4024" stroke-linecap="round" stroke-linejoin="round" stroke-miterlimit="10" d="
				M328.273,213.208c-5.231-1.61-7.243-1.61-12.474,0l-9.054,25.033l10.261-1.61l20.32,1.61L328.273,213.208z"/>
			
				<path display="inline" fill="#FFFFFF" stroke="#FFFFFF" stroke-width="0.3775" stroke-linecap="round" stroke-linejoin="round" stroke-miterlimit="10" d="
				M316.805,198.767c5.231-1.61,5.231-1.61,10.462,0l-5.219-29.21L316.805,198.767z"/>
			
				<polygon display="inline" fill="#FFFFFF" stroke="#FFFFFF" stroke-width="0.3775" stroke-linecap="round" stroke-linejoin="round" stroke-miterlimit="10" points="
				320.426,168.129 323.645,168.129 322.048,172.776 			"/>
			<path display="inline" fill="#FFFFFF" d="M323.549,241.236c-1.271,0-2.319,0.701-2.492,1.612l-0.028-0.003v7.042l5.039,0.464
				v-7.042C326.069,242.273,324.941,241.236,323.549,241.236z"/>
			<path display="inline" fill="#FFFFFF" d="M332.296,242.144c-1.111,0-2.012,0.671-2.012,1.498v7.042l4.024,0.354v-7.042
				C334.308,243.169,333.407,242.144,332.296,242.144z"/>
			<path display="inline" fill="#FFFFFF" d="M310.653,243.504C310.653,243.504,310.653,243.504,310.653,243.504
				c0-0.442-0.444-0.801-0.991-0.801c-0.548,0-0.991,0.672-0.991,1.114v7.042l1.985-0.313v-7.042L310.653,243.504z"/>
			<path display="inline" fill="#FFFFFF" d="M313.718,241.818c-0.694,0-1.257,0.849-1.257,1.409v7.042l2.515-0.394v-7.042
				C314.976,242.272,314.413,241.818,313.718,241.818z"/>
		</g>
		<g>
			<polygon fill="#FFFFFF" stroke="#FFFFFF" stroke-linecap="round" stroke-linejoin="round" stroke-miterlimit="10" points="
				315.799,211.598 316.024,216.5 328.055,216.5 328.273,211.598 322.037,208.95 			"/>
			<polygon fill="#FFFFFF" points="337,265 307,265 307,237.535 317.023,235.781 337,237.535 			"/>
			<polygon fill="#FFFFFF" stroke="#FFFFFF" stroke-linecap="round" stroke-linejoin="round" stroke-miterlimit="10" points="
				316.829,198.635 316.806,202.402 327.267,202.5 327.258,198.814 322.243,195.445 			"/>
			
				<line fill="#105885" stroke="#105885" stroke-linecap="round" stroke-miterlimit="10" x1="317.006" y1="236.631" x2="317.006" y2="259.447"/>
			
				<line fill="#105885" stroke="#105885" stroke-linecap="round" stroke-miterlimit="10" x1="306.8" y1="238.277" x2="306.8" y2="258.925"/>
			
				<line fill="#105885" stroke="#105885" stroke-linecap="round" stroke-miterlimit="10" x1="337.3" y1="254.336" x2="337.3" y2="238.285"/>
			<path fill="#105885" stroke="#105885" stroke-width="0.4024" stroke-miterlimit="10" d="M306.852,241.147"/>
			<path fill="#105885" stroke="#105885" stroke-linecap="round" stroke-linejoin="round" stroke-miterlimit="10" d="
				M327.267,200.377c-5.231-1.61-5.231-1.61-10.462,0l-1.006,11.221c6.237-1.61,6.237-1.61,12.474,0L327.267,200.377z"/>
			<path fill="#105885" stroke="#105885" stroke-linecap="round" stroke-linejoin="round" stroke-miterlimit="10" d="
				M328.273,213.208c-5.231-1.61-7.243-1.61-12.474,0l-9.054,25.033l10.261-1.61l20.32,1.61L328.273,213.208z"/>
			<path fill="#105885" stroke="#105885" stroke-linecap="round" stroke-linejoin="round" stroke-miterlimit="10" d="
				M327.267,198.767c-5.233-1.608-5.233-1.608-10.461,0l4.858-27.401l-1.237-3.866h3.22l-1.22,3.862L327.267,198.767z"/>
			<path fill="#105885" d="M323.549,241.235c-1.271,0-2.319,0.701-2.492,1.612l-0.028-0.003v7.042l5.039,0.464v-7.042
				C326.069,242.272,324.941,241.235,323.549,241.235z"/>
			<path fill="#105885" d="M332.296,242.144c-1.111,0-2.012,0.671-2.012,1.498v7.042l4.024,0.354v-7.042
				C334.308,243.169,333.407,242.144,332.296,242.144z"/>
			<path fill="#105885" d="M310.653,243.504L310.653,243.504c0-0.442-0.444-0.801-0.991-0.801c-0.548,0-0.991,0.672-0.991,1.114
				v7.042l1.985-0.313v-7.042L310.653,243.504z"/>
			<path fill="#105885" d="M313.718,241.818c-0.694,0-1.257,0.849-1.257,1.409v7.042l2.515-0.394v-7.042
				C314.976,242.272,314.413,241.818,313.718,241.818z"/>
		</g>
		<g>
			<g>
				<linearGradient id="SVGID_1_" gradientUnits="userSpaceOnUse" x1="243.6638" y1="314.0816" x2="243.6638" y2="200.4826">
					<stop  offset="0" style="stop-color:#F15A24"/>
					<stop  offset="0.0071" style="stop-color:#F15B24"/>
					<stop  offset="0.4134" style="stop-color:#F47921"/>
					<stop  offset="0.7587" style="stop-color:#F68C1F"/>
					<stop  offset="1" style="stop-color:#F7931E"/>
				</linearGradient>
				<path fill="url(#SVGID_1_)" d="M243.664,200.483c-34.839,0-63.081,28.243-63.081,63.081c0,20.667,9.94,39.012,25.298,50.518
					l10.654-1.879c0.4-0.114,0.829-0.192,1.286-0.227l78.611-13.861c6.513-9.926,10.313-21.792,10.313-34.551
					C306.745,228.725,278.503,200.483,243.664,200.483z"/>
				<path fill="none" stroke="#105885" stroke-width="2.4983" stroke-miterlimit="10" d="M243.664,200.483
					c-34.839,0-63.081,28.243-63.081,63.081c0,20.667,9.94,39.012,25.298,50.518l10.654-1.879c0.4-0.114,0.829-0.192,1.286-0.227
					l78.611-13.861c6.513-9.926,10.313-21.792,10.313-34.551C306.745,228.725,278.503,200.483,243.664,200.483z"/>
			</g>
			<g id="XMLID_1_">
				<g>
					<path fill="#105885" d="M203.736,218.435c9.394-4.409,19.312-5.159,29.904-3.997c-0.15-3.61-0.287-6.908-0.437-10.43
						C221.749,206.143,212.055,210.802,203.736,218.435z M270.165,228.902c16.601,12.217,29.392,26.494,32.353,47.555
						c0.175-0.187,0.3-0.262,0.312-0.362c3.41-17.475,0-33.514-10.28-48.067c-0.337-0.475-0.899-1.012-1.424-1.112
						c-5.746-1.112-11.505-1.874-17.226,0.1C272.651,227.453,271.527,228.203,270.165,228.902z M225.096,203.345
						c44.469-13.778,88.426,24.596,80.719,70.514c-1.586,9.406-5.109,17.963-10.143,25.308c-0.275,0.025-0.537,0.075-0.787,0.125
						c-0.212-0.012-0.425-0.037-0.65-0.037c-0.275,0-0.537,0.025-0.787,0.05c-0.25-0.037-0.512-0.05-0.787-0.05
						c-0.062,0-0.112,0.012-0.187,0.012c2.149-2.985,4.085-6.208,5.784-9.681c0.55-1.124,1.199-2.286,1.349-3.498
						c1.062-8.169-0.125-16.026-3.473-23.571c-4.659-10.543-11.892-19.062-20.686-26.332c-2.298-1.899-4.722-3.61-7.183-5.471
						c-2.823,3.51-3.797,7.357-4.31,11.33c-1.012,7.982-0.1,15.926,0.575,23.871c0.687,8.232,1.524,16.451,1.986,24.695
						c0.262,4.547,0.275,9.069-0.087,13.578c-0.212,0.037-0.412,0.075-0.6,0.137c-0.65,0.012-1.237,0.125-1.774,0.275
						c-0.05,0-0.1-0.013-0.15-0.013c-0.025,0-0.05,0-0.075,0c0.887-9.806-0.087-19.599-0.899-29.392
						c-0.724-8.719-1.524-17.438-1.849-26.169c-0.262-6.845,0.65-13.591,5.072-19.849c-4.022-2.086-7.82-3.985-11.555-6.033
						c-1.736-0.937-2.636-0.475-3.672,1.124c-8.319,12.841-15.439,26.319-21.473,40.372c-4.984,11.592-9.518,23.396-11.167,36
						c-0.487,3.722-0.412,7.582-0.087,11.33c-0.987,0.025-1.849,0.237-2.586,0.587c-0.162-0.962-0.287-1.924-0.362-2.886
						c-0.462-6.583,0.812-12.991,2.486-19.287c5.221-19.549,13.74-37.699,23.671-55.224c2.636-4.659,5.521-9.181,8.382-13.94
						c-4.797-1.362-9.468-2.686-14.265-4.047c-0.662,1.786-1.112,3.185-1.686,4.534c-3.098,7.245-8.457,12.629-14.515,17.376
						c-7.17,5.596-14.54,10.93-21.697,16.551c-5.034,3.96-9.344,8.632-12.404,14.353c-1.037,1.936-1.399,3.772-0.899,5.996
						c3.647,16.089,12.054,28.618,25.208,37.599c-0.974,0.262-1.761,0.737-2.398,1.374c-17.513-12.379-27.568-32.64-26.432-54.975
						c0.15-2.786,0.512-5.559,0.774-8.332c0.987-3.498,1.986-7.008,2.985-10.505c1.399-3.023,2.811-6.033,4.222-9.044
						c0.175-0.375,0.3-0.787,0.525-1.124C198.265,217.997,209.669,208.129,225.096,203.345z M288.677,223.768
						c0-0.212,0.062-0.387,0-0.475c-0.2-0.287-0.437-0.537-0.675-0.799c-5.734-6.183-12.479-10.967-20.211-14.29
						c-0.887-0.387-2.423-0.162-3.26,0.375c-4.484,2.898-7.445,7.22-10.505,11.305c4.409,2.423,8.607,4.772,12.866,7.02
						c0.475,0.262,1.399,0.262,1.824-0.025c3.96-2.798,8.432-3.598,13.128-3.535C284.118,223.381,286.391,223.618,288.677,223.768z
						 M260.372,208.579c0.7-0.799,1.586-1.437,2.573-2.311c-9.156-3.023-18.137-3.86-27.231-2.636
						c0.15,3.735,0.287,7.27,0.45,11.105c4.684,1.337,9.506,2.748,14.353,4.01c0.525,0.137,1.461-0.475,1.911-0.987
						C255.113,214.737,257.699,211.614,260.372,208.579z M232.704,217.248c-0.25-0.2-0.35-0.325-0.475-0.35
						c-0.337-0.075-0.687-0.125-1.024-0.162c-6.97-0.687-13.878-0.387-20.548,1.861c-8.169,2.773-15.177,7.133-19.561,14.927
						c-3.01,5.346-5.271,10.98-6.583,16.963c-1.224,5.609-1.749,11.267-1.224,17.388c0.45-0.562,0.687-0.787,0.862-1.074
						c3.31-5.371,7.645-9.831,12.591-13.678c5.409-4.21,10.942-8.269,16.426-12.391c5.209-3.922,10.318-7.957,14.328-13.178
						C229.893,224.43,231.829,221.083,232.704,217.248z"/>
				</g>
				<g>
				</g>
			</g>
		</g>
		<polygon fill="#105885" points="178.839,259.878 162.215,306.749 176.103,327.178 259.509,308.869 299.001,296.479 
			219.437,270.024 		"/>
		<g>
			<g>
				<path fill="#FFFFFF" d="M226.549,274.877c-0.234,0-0.472-0.022-0.71-0.068c-3.347-0.643-5.595-2.874-6.167-6.121
					c-0.467-2.646,0.196-5.416,1.971-8.232c1.855-2.941,4.072-4.656,6.589-5.098c0.674-0.119,1.331-0.18,1.951-0.18
					c1.55,0,2.931,0.371,4.103,1.103c1.723,1.074,2.877,2.833,3.25,4.952c0.442,2.506-0.771,4.216-1.842,5.724l-0.164,0.23
					c-0.57,0.807-1.436,1.355-2.409,1.526l-0.394,0.069c-0.311,0.055-0.686,0.169-1.186,0.823c-0.771,1.008-1.191,1.76-1.362,2.438
					C229.754,273.735,228.234,274.877,226.549,274.877z"/>
				<path fill="#105885" d="M230.18,258.925c0.844,0,1.551,0.179,2.12,0.534c0.841,0.524,1.363,1.402,1.543,2.423
					c0.18,1.021-0.349,1.691-1.374,3.141l-0.394,0.069c-1.316,0.232-2.492,0.902-3.512,2.237c-1.02,1.334-1.698,2.525-2.019,3.8
					c-1.825-0.351-2.882-1.382-3.183-3.092c-0.302-1.71,0.182-3.571,1.451-5.583c1.269-2.012,2.628-3.152,4.067-3.406
					C229.345,258.966,229.778,258.925,230.18,258.925 M230.18,251.43c-0.836,0-1.712,0.08-2.602,0.237
					c-3.601,0.635-6.665,2.919-9.105,6.789c-2.287,3.628-3.126,7.289-2.492,10.882c0.845,4.792,4.266,8.212,9.151,9.151
					c0.476,0.092,0.952,0.136,1.42,0.136c3.37,0,6.41-2.283,7.262-5.667c0,0,0,0,0,0c0.001,0,0.07-0.187,0.387-0.643
					c1.77-0.42,3.332-1.47,4.388-2.963l0.159-0.224c1.271-1.791,3.192-4.497,2.478-8.547c-0.561-3.181-2.322-5.838-4.96-7.482
					C234.489,251.991,232.442,251.43,230.18,251.43L230.18,251.43z"/>
			</g>
			<g>
				<path fill="#FFFFFF" d="M170.649,335.919c-13.09,0-21.303-7.337-23.75-21.22c-1.038-5.885-0.816-12.331,0.658-19.158
					c1.446-6.692,3.907-13.186,7.316-19.302c3.467-6.222,8.264-11.744,14.258-16.412c6.075-4.731,12.514-7.724,19.139-8.892
					c2.711-0.478,5.247-0.72,7.537-0.72c3.421,0,6.445,0.542,8.987,1.609c5.997,2.518,7.91,6.761,8.459,9.877
					c0.287,1.625,0.255,3.438-0.095,5.389c-0.737,3.72-2.686,7.033-5.804,9.913c-3.062,2.826-6.531,4.597-10.312,5.263
					c-0.728,0.128-1.439,0.193-2.116,0.193c-1.363,0-2.635-0.261-3.779-0.776c-2.161-0.972-3.566-2.725-3.956-4.935
					c-0.309-1.75,0.002-3.634,0.923-5.599c0.624-1.332,1.958-2.158,3.392-2.158c0.208,0,0.418,0.018,0.628,0.054
					c0.151,0.025,0.308,0.038,0.479,0.038c0.235,0,0.495-0.025,0.772-0.074c1.697-0.299,3.146-1.169,4.429-2.66
					c1.437-1.67,1.433-2.947,1.27-3.875c-0.162-0.92-0.27-1.527-2.256-1.527c-0.58,0-1.248,0.066-1.987,0.196
					c-5.868,1.034-11.363,4.151-16.333,9.264c-5.134,5.281-8.961,11.716-11.376,19.126c-2.407,7.387-3.012,14.625-1.798,21.512
					c1.875,10.635,6.959,11.998,11.179,11.998c1.083-0.001,2.264-0.112,3.511-0.332c5.829-1.027,11.792-4.516,17.726-10.367
					c5.954-5.871,9.586-11.709,10.796-17.353c0.707-2.963,1.585-5.908,2.629-8.839c2.171-5.872,5.325-9.209,9.387-9.96
					c0,0,4.921-1.059,4.968-1.066l0.984-0.173c0.217-0.038,0.434-0.057,0.649-0.057c1.213,0,2.369,0.59,3.077,1.608
					c0.075,0.108,0.144,0.22,0.207,0.333c0.071-0.463,0.23-0.913,0.473-1.326c0.556-0.946,1.499-1.601,2.58-1.791l4.133-0.729
					c1.052-0.186,2.06-0.28,2.993-0.28c1.539,0,2.842,0.251,3.873,0.746c0.851,0.382,1.598,0.986,2.181,1.745
					c3.673-3.203,7.658-5.195,11.908-5.944c0.812-0.144,1.598-0.216,2.334-0.216c4.52,0,7.705,2.765,8.521,7.396
					c0.26,1.475,0.304,2.992,0.13,4.509c-0.197,1.73-0.831,5.011-1.328,7.459c-1.058,5.203-1.521,8.57-1.699,10.731
					c0.665-0.832,1.222-1.657,1.663-2.468c0.697-1.278,1.455-2.926,2.318-5.037c0.523-1.286,1.003-2.484,1.419-3.568
					c0.771-3.734,2.253-7.454,4.41-11.061c4.475-7.518,10.626-12.017,18.278-13.366c1.085-0.191,2.147-0.288,3.158-0.288
					c2.565,0,4.892,0.615,6.914,1.829c2.66,1.595,4.438,3.894,5.186,6.687c0.152-0.418,0.31-0.823,0.471-1.216
					c1.666-4.051,3.703-6.815,6.228-8.451c2.292-1.493,5.362-2.565,9.379-3.274c0.248-0.044,0.505-0.067,0.758-0.067
					c2.023,0,3.687,1.408,4.046,3.425c0.227,1.279-0.122,2.589-1.037,3.895c-0.047,0.067-0.096,0.133-0.147,0.196
					c-1.332,1.66-3.328,5.217-5.272,12.736c-1.374,5.276-1.905,9.693-1.587,13.163c0.85-0.972,2.008-2.603,3.453-5.332
					c2.675-5.071,4.566-10.028,5.619-14.729l0.652-3.167c0.264-1.288,0.451-2.196,0.566-2.685c0.153-0.64,0.378-1.428,0.671-2.352
					c0.408-1.342,0.879-2.332,1.468-3.077l0.039-0.052c0.271-0.357,0.68-0.897,1.202-1.494c0.897-1.048,1.86-1.789,2.918-2.235
					c1.945-0.776,3.961-1.518,5.997-1.877l4.036-0.711c0.218-0.038,0.437-0.058,0.651-0.058c1.424,0,2.751,0.814,3.381,2.133
					c0.725,1.52,0.349,3.335-0.921,4.441c-0.411,0.357-1.869,2.027-3.359,8.473c-0.85,3.86-1.617,7.882-2.274,11.913
					c-0.564,3.476-0.927,5.625-1.068,6.466c-0.003,0.02-0.021,0.124-0.024,0.144c-0.13,0.701-0.415,2.492-0.874,5.476
					c-0.499,3.168-0.879,5.381-1.195,6.97c-0.923,5.341-2.291,9.609-4.183,13.051c-1.931,3.514-4.615,6.566-7.98,9.07
					c-3.423,2.523-7.087,4.14-10.904,4.812c-1.521,0.269-3.007,0.404-4.415,0.404c-2.199,0-4.284-0.331-6.198-0.983
					c-3.821-1.303-6.322-4.262-7.041-8.331c-0.401-2.28-0.06-4.474,1.019-6.52c1.558-2.962,3.804-3.922,5.414-4.204
					c0.606-0.107,1.211-0.162,1.792-0.162c1.217,0,2.366,0.236,3.418,0.702c1.458,0.646,2.622,1.537,3.459,2.647
					c0.656,0.872,0.9,1.986,0.668,3.053c-0.166,0.762-0.562,1.444-1.126,1.962c0.003,0.221,0.028,0.557,0.112,1.035
					c0.024,0.136,0.052,0.188,0.052,0.188c0.105,0.053,0.261,0.12,0.569,0.12c0.147,0,0.313-0.016,0.493-0.047
					c4.29-0.758,6.543-7.296,7.695-12.938c-0.958,0.874-1.841,1.511-2.684,1.941c-1.538,0.787-3.382,1.373-5.479,1.743
					c-0.564,0.1-1.128,0.149-1.677,0.149c-2.274,0-4.388-0.865-6.11-2.502c-0.926-0.869-1.69-1.932-2.3-3.201
					c-0.714,0.992-1.439,1.887-2.174,2.68c-4.2,4.366-8.81,6.995-13.749,7.866c-1.473,0.26-2.911,0.392-4.275,0.392
					c-3.286,0-6.275-0.757-8.886-2.248c-1.898-1.085-3.46-2.564-4.677-4.427c-1.275,2.087-2.709,4.031-4.284,5.808
					c-2.81,3.167-5.623,4.962-8.602,5.487c-0.748,0.132-1.478,0.199-2.169,0.199c-2.281,0-7.736-0.84-9.107-8.611
					c-0.823-4.666-0.005-13.217,2.574-26.844c-0.411,0.245-0.816,0.555-1.22,0.93c-1.117,1.038-2.093,2.464-2.902,4.241
					c-0.957,2.1-1.805,4.251-2.52,6.394c-0.691,2.074-1.263,4.466-1.699,7.105c-0.523,3.172-0.848,5.327-1.053,6.988
					c-0.065,0.53-0.133,1.052-0.201,1.575c-0.178,1.371-0.346,2.666-0.478,4.153c-0.349,3.981-0.541,6.176-3.466,6.687l-9.54,1.683
					c-0.217,0.038-0.435,0.057-0.651,0.057c-0.94,0-1.854-0.354-2.554-1.005c-0.139-0.129-0.267-0.268-0.382-0.413
					c-2.483,2.502-4.962,3.946-7.546,4.402c-0.628,0.11-1.248,0.167-1.843,0.167c-2.417,0-6.391-0.93-8.461-6.496
					c-2.875,2.969-6.248,5.681-10.081,8.094c-6.28,3.954-13.058,6.593-20.147,7.843
					C175.513,335.682,172.983,335.919,170.649,335.919z M230.85,279.3c-0.076,0.429-0.228,0.848-0.456,1.237
					c-0.945,1.613-1.811,3.768-2.645,6.586c-0.924,3.139-1.642,5.721-2.164,7.599l-0.293,1.052c-0.468,1.677-0.972,4.096-1.54,7.396
					c-0.285,1.66-0.412,2.973-0.446,4.002c0.811-0.939,1.458-1.868,1.93-2.771c0.681-1.305,1.448-3.023,2.279-5.107
					c0.599-1.502,1.138-2.868,1.622-4.094l0.621-1.57c0.165-0.41,0.312-0.772,0.442-1.086c1.306-8.322,1.024-11.729,0.871-12.715
					C231.007,279.684,230.936,279.518,230.85,279.3z M287.987,292.878c-0.124,1.668-0.074,3.148,0.151,4.427
					c0.721,4.086,2.161,4.098,3.026,4.098c0.002,0,0.005,0,0.007,0c0.323,0,0.683-0.034,1.07-0.103
					c1.942-0.343,3.927-1.557,5.897-3.606c2.288-2.379,4.173-4.955,5.603-7.659c0.663-1.257,1.347-2.756,2.046-4.484
					c-0.159,0.157-0.323,0.313-0.491,0.468c-3.614,3.325-8.188,5.494-13.598,6.448C290.328,292.707,289.107,292.843,287.987,292.878
					z M297.042,274.116c-0.992,0.562-2.388,1.752-4.126,4.234c-1.152,1.646-1.825,2.873-2.217,3.76
					c1.309-0.494,2.688-1.647,4.109-3.44C296.073,277.067,296.812,275.564,297.042,274.116z"/>
				<path fill="#105885" d="M195.805,253.963c2.934,0,5.447,0.439,7.538,1.316c3.575,1.501,5.653,3.861,6.219,7.072
					c0.208,1.181,0.182,2.543-0.093,4.075c-0.571,2.878-2.127,5.487-4.658,7.823c-2.531,2.336-5.333,3.781-8.42,4.326
					c-0.514,0.091-1.002,0.136-1.464,0.136c-0.832,0-1.579-0.148-2.244-0.446c-1.033-0.465-1.629-1.184-1.803-2.168
					c-0.174-0.984,0.036-2.099,0.626-3.357c0.354,0.06,0.722,0.091,1.105,0.091c0.452,0,0.926-0.043,1.425-0.131
					c2.559-0.451,4.764-1.753,6.617-3.907c1.853-2.153,2.56-4.472,2.12-6.969c-0.543-3.081-2.523-4.625-5.947-4.625
					c-0.8,0-1.68,0.084-2.638,0.253c-6.692,1.18-12.819,4.632-18.369,10.342c-5.551,5.71-9.643,12.571-12.252,20.578
					c-2.609,8.007-3.255,15.782-1.925,23.323c1.774,10.061,6.731,15.095,14.87,15.095c1.305,0,2.693-0.13,4.162-0.389
					c6.631-1.169,13.191-4.964,19.707-11.39c6.516-6.425,10.458-12.841,11.829-19.235c0.642-2.688,1.468-5.485,2.495-8.367
					c1.606-4.342,3.768-7.044,6.585-7.541l4.888-1.052l0.984-0.174c-0.829,1.415-1.884,3.63-3.005,7.417
					c-1.118,3.799-1.937,6.785-2.473,8.706s-1.072,4.565-1.623,7.77c-0.551,3.205-0.652,5.797-0.316,7.704
					c0.302,1.713,0.977,2.582,2.013,2.582c0.117,0,0.239-0.011,0.365-0.033c0.849-0.15,1.952-0.94,3.288-2.356
					c1.336-1.415,2.39-2.844,3.149-4.297c0.759-1.453,1.567-3.27,2.438-5.453c0.871-2.183,1.615-4.077,2.247-5.673
					c0.229-0.573,0.423-1.051,0.586-1.423c1.106-6.892,1.379-11.887,0.915-14.52c-0.115-0.652-0.183-0.462-0.597-1.658l4.133-0.729
					c0.894-0.158,1.676-0.223,2.341-0.223c1.046,0,1.804,0.161,2.253,0.377c0.73,0.328,1.195,1.02,1.333,1.807
					c0.139,0.787,0.077,2.523-0.221,5.075c4.585-6.225,9.677-9.786,15.25-10.769c0.602-0.106,1.163-0.159,1.684-0.159
					c2.715,0,4.326,1.441,4.83,4.3c0.197,1.12,0.233,2.255,0.098,3.433c-0.135,1.178-0.552,3.56-1.278,7.138
					c-1.596,7.854-2.168,13.028-1.727,15.525c0.245,1.391,0.843,2.086,1.793,2.086c0.126,0,0.257-0.012,0.395-0.036
					c0.849-0.15,1.95-0.953,3.28-2.405c1.329-1.452,2.392-2.908,3.187-4.367c0.795-1.459,1.618-3.266,2.496-5.412
					c0.584-1.435,1.112-2.758,1.563-3.941c0.666-3.415,1.996-6.808,4.014-10.183c3.914-6.576,9.156-10.443,15.713-11.599
					c0.876-0.154,1.712-0.232,2.508-0.232c1.887,0,3.549,0.433,4.986,1.295c2.043,1.225,3.256,2.927,3.638,5.092
					c0.649,3.678-0.565,6.936-3.654,9.777c-3.089,2.84-6.988,4.682-11.712,5.515c-1.374,0.242-2.583,0.364-3.629,0.364
					c-1.052,0-1.939-0.123-2.663-0.371c-0.652,3.565-0.759,6.628-0.308,9.187c0.846,4.796,3.084,7.195,6.723,7.195
					c0.543,0,1.117-0.053,1.722-0.16c2.755-0.486,5.408-2.057,7.949-4.699s4.615-5.481,6.213-8.503
					c1.378-2.615,2.824-6.142,4.314-10.565c-0.002-0.012,0.008-0.027,0.006-0.039c0.619-3.61,1.441-6.647,2.453-9.108
					c1.349-3.282,2.944-5.529,4.8-6.732c1.843-1.2,4.511-2.115,7.992-2.728c0.038-0.007,0.073-0.01,0.107-0.01
					c0.196,0,0.318,0.114,0.357,0.334c0.046,0.258-0.093,0.625-0.417,1.088c-2.278,2.837-4.275,7.552-5.979,14.144
					c-1.717,6.594-2.198,11.993-1.458,16.188c0.357,2.027,1.062,3.046,2.132,3.046c0.106,0,0.215-0.01,0.327-0.03
					c2.362-0.416,4.959-3.31,7.805-8.682c2.833-5.37,4.829-10.593,5.965-15.664c0.143-0.698,0.356-1.724,0.629-3.053
					c0.273-1.329,0.464-2.263,0.58-2.753c0.117-0.49,0.311-1.184,0.597-2.084c0.273-0.898,0.554-1.531,0.835-1.885
					c0.268-0.352,0.637-0.848,1.123-1.403c0.473-0.553,0.989-1.011,1.555-1.251c1.825-0.728,3.542-1.348,5.191-1.638l4.035-0.711
					c-1.825,1.59-3.326,5.165-4.549,10.455c-0.979,4.447-1.737,8.564-2.322,12.155c-0.584,3.591-0.95,5.761-1.081,6.533
					c-0.143,0.774-0.438,2.627-0.892,5.586c-0.467,2.962-0.852,5.237-1.176,6.854c-0.839,4.879-2.092,8.854-3.782,11.93
					c-1.69,3.076-4.007,5.691-6.933,7.869c-2.941,2.168-6.046,3.552-9.318,4.129c-1.313,0.232-2.568,0.347-3.763,0.347
					c-1.795,0-3.458-0.261-4.989-0.783c-2.551-0.869-4.075-2.681-4.561-5.436c-0.256-1.452-0.041-2.821,0.643-4.122
					c0.684-1.3,1.603-2.058,2.747-2.26c0.396-0.07,0.777-0.105,1.143-0.105c0.69,0,1.324,0.125,1.899,0.38
					c0.881,0.39,1.538,0.883,1.985,1.476c-1.112,0.602-1.459,2.084-1.043,4.446c0.219,1.242,0.838,2.161,1.858,2.767
					c0.726,0.424,1.543,0.638,2.452,0.638c0.366,0,0.747-0.035,1.143-0.105c5.314-0.937,8.928-6.483,10.868-16.63l2.972-15.948
					c-2.404,4.419-4.562,7.793-6.485,10.124c-1.923,2.33-3.488,3.811-4.698,4.431c-1.21,0.619-2.688,1.083-4.423,1.389
					c-0.352,0.062-0.694,0.093-1.027,0.093c-1.321,0-2.495-0.489-3.529-1.471c-1.307-1.228-2.176-3.206-2.619-5.931
					c-0.259-1.54-0.339-3.505-0.226-5.884c-0.718,1.611-1.662,3.451-2.825,5.559c-1.339,2.405-2.717,4.373-4.134,5.904
					c-3.602,3.743-7.481,5.987-11.651,6.722c-1.266,0.223-2.474,0.335-3.626,0.335c-2.641,0-4.982-0.586-7.026-1.754
					c-2.934-1.677-4.79-4.724-5.565-9.115c-0.111-0.627-0.197-1.259-0.258-1.895c-0.766,1.771-1.498,3.372-2.22,4.818
					c-1.526,3.072-3.381,5.86-5.582,8.341c-2.201,2.481-4.346,3.912-6.449,4.283c-0.536,0.094-1.041,0.142-1.517,0.142
					c-2.966,0-4.769-1.836-5.417-5.515c-0.753-4.269,0.198-13.264,2.852-26.987c0.154-0.636,0.179-1.287,0.064-1.939
					c-0.199-1.127-0.901-1.69-2.1-1.69c-0.266,0-0.557,0.028-0.873,0.083c-1.734,0.306-3.349,1.149-4.831,2.526
					c-1.482,1.378-2.736,3.184-3.761,5.432c-1.024,2.248-1.909,4.497-2.664,6.761c-0.755,2.264-1.37,4.821-1.842,7.682
					c-0.472,2.861-0.84,5.234-1.075,7.14c-0.235,1.906-0.501,3.703-0.693,5.855c-0.189,2.164-0.316,3.316-0.377,3.326l-9.546,1.683
					c0,0,0.493-4.755,1.886-11.964c-0.348,0.759-0.669,1.602-1.005,2.283c-1.526,3.072-3.37,5.921-5.571,8.402
					c-2.201,2.481-4.339,3.949-6.443,4.32c-0.415,0.073-0.812,0.11-1.192,0.11c-2.983,0-4.87-2.262-5.67-6.802
					c-0.271-1.538-0.448-3.117-0.523-4.766c-0.109,0.172-0.219,0.343-0.34,0.517c-3.425,5.107-8.103,9.509-14.005,13.226
					c-5.902,3.717-12.17,6.154-18.8,7.323c-2.453,0.432-4.741,0.649-6.868,0.649c-11.239,0-17.929-6.041-20.059-18.123
					c-0.961-5.45-0.745-11.348,0.631-17.717c1.376-6.369,3.689-12.459,6.926-18.269s7.667-10.903,13.288-15.281
					c5.621-4.378,11.446-7.092,17.486-8.157C191.428,254.184,193.723,253.963,195.805,253.963 M288.893,286.186
					c0.484,0,1.041-0.056,1.67-0.166c2.497-0.44,4.878-2.116,7.182-5.021c2.291-2.903,3.328-5.8,3.089-8.663
					c-0.287-1.629-1.124-2.439-2.505-2.439c-0.235,0-0.487,0.024-0.754,0.071c-2.559,0.451-5.135,2.529-7.729,6.234
					c-2.594,3.704-3.717,6.541-3.37,8.509C286.65,285.695,287.453,286.186,288.893,286.186 M350,258.251h0.005 M195.805,246.468
					C195.805,246.468,195.805,246.468,195.805,246.468c-2.508,0-5.262,0.261-8.187,0.777c-7.233,1.275-14.228,4.514-20.79,9.625
					c-6.391,4.978-11.515,10.881-15.229,17.545c-3.589,6.441-6.182,13.282-7.705,20.335c-1.577,7.303-1.808,14.234-0.686,20.601
					c2.765,15.681,12.51,24.316,27.44,24.316c2.552,0,5.3-0.257,8.169-0.762c7.571-1.335,14.802-4.148,21.493-8.362
					c2.605-1.641,5.016-3.415,7.221-5.313c2.357,2.768,5.663,4.291,9.324,4.291c0.813,0,1.652-0.075,2.493-0.224
					c2.527-0.446,4.924-1.562,7.248-3.387c0.824,0.302,1.698,0.46,2.584,0.46c0.433,0,0.868-0.038,1.302-0.114l9.546-1.683
					c1.675-0.296,5.635-1.609,6.287-7.398c0.069-0.614,0.153-1.483,0.255-2.657c0.093-1.048,0.208-2.017,0.333-2.997
					c1.315,5.276,5.191,10.491,12.54,10.491c0.909,0,1.857-0.086,2.818-0.256c3.791-0.669,7.41-2.919,10.755-6.69
					c0.652-0.736,1.283-1.497,1.889-2.283c0.822,0.681,1.64,1.229,2.409,1.668c3.184,1.82,6.799,2.742,10.745,2.742
					c1.582,0,3.239-0.151,4.927-0.448c2.125-0.375,4.189-1.021,6.186-1.936c-0.204,1.439-0.179,2.912,0.08,4.383
					c0.966,5.477,4.348,9.465,9.524,11.229c2.304,0.785,4.796,1.184,7.407,1.184c1.625,0,3.329-0.155,5.065-0.461
					c4.389-0.774,8.582-2.617,12.463-5.477c3.825-2.846,6.862-6.302,9.055-10.293c2.089-3.802,3.588-8.438,4.582-14.169
					c0.323-1.625,0.708-3.872,1.21-7.056c0.451-2.934,0.738-4.739,0.859-5.394c0.007-0.037,0.013-0.074,0.02-0.111
					c0.131-0.777,0.499-2.962,1.088-6.578c0.642-3.944,1.394-7.883,2.235-11.709c1.108-4.775,2.083-6.288,2.279-6.557
					c1.509-1.371,2.456-3.349,2.456-5.547c0-3.97-3.084-7.219-6.988-7.478c-0.168-0.011-0.337-0.017-0.506-0.017
					c-0.164,0-0.329,0.005-0.494,0.016c-0.324,0.021-0.642,0.062-0.954,0.123l-3.892,0.686c-2.371,0.418-4.604,1.236-6.665,2.057
					c-0.048,0.019-0.095,0.039-0.143,0.059c-1.594,0.674-3.002,1.737-4.303,3.248c-0.311,0.357-0.582,0.688-0.812,0.98
					c-1.451-1.736-3.622-2.815-6.013-2.816c-0.47,0-0.944,0.042-1.41,0.124c-4.522,0.797-8.048,2.05-10.78,3.829
					c-1.9,1.231-3.559,2.917-5.007,5.098c-0.853-0.816-1.821-1.55-2.897-2.196c-2.613-1.568-5.588-2.363-8.841-2.363
					c-1.228,0-2.51,0.116-3.81,0.345c-8.774,1.547-15.79,6.643-20.851,15.146c-0.034,0.056-0.067,0.112-0.1,0.169
					c-1.297-6.163-5.894-9.967-12.109-9.967c-0.954,0-1.958,0.092-2.985,0.273c-3.976,0.701-7.724,2.314-11.218,4.82
					c-0.223-0.125-0.452-0.242-0.687-0.351c-1.523-0.712-3.342-1.073-5.409-1.073c-1.15,0-2.375,0.113-3.642,0.337l-4.133,0.729
					c-1.234,0.217-2.377,0.737-3.339,1.495c-0.751-0.248-1.542-0.377-2.346-0.377c-0.432,0-0.868,0.037-1.303,0.114l-0.984,0.174
					c-0.092,0.016-0.184,0.034-0.275,0.054l-4.777,1.028c-2.346,0.443-4.443,1.469-6.28,3.067c1.635-2.375,2.733-4.951,3.278-7.7
					c0.009-0.044,0.017-0.089,0.025-0.133c0.428-2.384,0.461-4.639,0.097-6.701c-1.006-5.704-4.806-10.208-10.699-12.681
					C203.239,247.108,199.727,246.468,195.805,246.468L195.805,246.468L195.805,246.468z M176.511,319.295
					c-2.214,0-5.919,0-7.489-8.902c-1.106-6.275-0.544-12.903,1.67-19.7c2.236-6.861,5.768-12.808,10.5-17.675
					c1.1-1.131,2.212-2.146,3.34-3.047c-1.108,2.535-1.456,5.032-1.034,7.427c0.603,3.42,2.83,6.227,6.11,7.702
					c1.632,0.734,3.421,1.106,5.318,1.106c0.894,0,1.824-0.084,2.765-0.25c4.5-0.794,8.606-2.879,12.203-6.2
					c0.159-0.147,0.316-0.295,0.47-0.444c-1.019,1.572-1.917,3.405-2.69,5.496c-0.011,0.029-0.021,0.057-0.031,0.086
					c-1.089,3.059-2.006,6.134-2.724,9.14c-0.013,0.056-0.026,0.113-0.038,0.17c-1.054,4.916-4.339,10.121-9.764,15.47
					c-5.382,5.308-10.68,8.452-15.746,9.345C178.337,319.202,177.375,319.295,176.511,319.295L176.511,319.295z M291.768,296.254
					c0.192-0.031,0.386-0.064,0.582-0.098c0.878-0.155,1.736-0.338,2.576-0.55c-0.821,0.777-1.86,1.577-2.91,1.9
					c-0.062-0.228-0.126-0.509-0.187-0.852C291.807,296.531,291.787,296.398,291.768,296.254L291.768,296.254z"/>
			</g>
		</g>
		<path fill="none" d="M314.212,264.308c0,14.269-4.25,27.539-11.533,38.641l-87.916,15.502c-0.512,0.039-0.991,0.126-1.439,0.254
			l-11.915,2.101c-17.177-12.868-28.293-33.384-28.293-56.497c0-38.963,31.585-70.548,70.548-70.548
			S314.212,225.345,314.212,264.308z"/>
		<text transform="matrix(0.3811 -0.9246 0.9245 0.3811 176.5831 241.8772)"><tspan x="0" y="0" fill="#105885" font-family="'Varsity-Regular'" font-size="15.0862">R</tspan><tspan x="9.281" y="-0.006" fill="#105885" font-family="'Varsity-Regular'" font-size="15.0862" rotate="7.392">O</tspan><tspan x="18.046" y="0.989" fill="#105885" font-family="'Varsity-Regular'" font-size="15.0862" rotate="15.785">Y</tspan><tspan x="29.522" y="4.277" fill="#105885" font-family="'Varsity-Regular'" font-size="15.0862" rotate="24.672">A</tspan><tspan x="38.746" y="8.549" fill="#105885" font-family="'Varsity-Regular'" font-size="15.0862" rotate="32.226">L</tspan><tspan x="45.998" y="13.229" fill="#105885" font-family="'Varsity-Regular'" font-size="15.0862" rotate="37.355"> </tspan><tspan x="49.265" y="15.717" fill="#105885" font-family="'Varsity-Regular'" font-size="15.0862" rotate="40.697"> </tspan><tspan x="52.397" y="18.261" fill="#105885" font-family="'Varsity-Regular'" font-size="15.0862" rotate="45.861">B</tspan><tspan x="58.386" y="24.322" fill="#105885" font-family="'Varsity-Regular'" font-size="15.0862" rotate="53.485">A</tspan><tspan x="64.401" y="32.489" fill="#105885" font-family="'Varsity-Regular'" font-size="15.0862" rotate="61.169">S</tspan><tspan x="68.693" y="40.115" fill="#105885" font-family="'Varsity-Regular'" font-size="15.0862" rotate="68.916">K</tspan><tspan x="72.454" y="50.038" fill="#105885" font-family="'Varsity-Regular'" font-size="15.0862" rotate="76.446">E</tspan><tspan x="74.408" y="57.873" fill="#105885" font-family="'Varsity-Regular'" font-size="15.0862" rotate="83.589">T</tspan><tspan x="75.349" y="67.338" fill="#105885" font-family="'Varsity-Regular'" font-size="15.0862" rotate="89.121"> </tspan><tspan x="75.417" y="71.446" fill="#105885" font-family="'Varsity-Regular'" font-size="15.0862" rotate="92.477"> </tspan></text>
	</g>
</g>
</svg>
