<?xml version="1.0" encoding="utf-8"?>
<!-- Generator: Adobe Illustrator 17.0.0, SVG Export Plug-In . SVG Version: 6.00 Build 0)  -->
<!DOCTYPE svg PUBLIC "-//W3C//DTD SVG 1.1//EN" "http://www.w3.org/Graphics/SVG/1.1/DTD/svg11.dtd">
<svg version="1.1" id="Calque_1" xmlns="http://www.w3.org/2000/svg" xmlns:xlink="http://www.w3.org/1999/xlink" x="0px" y="0px"
	 width="79.37px" height="90.709px" viewBox="4.969 5.346 79.37 90.709" enable-background="new 4.969 5.346 79.37 90.709"
	 xml:space="preserve">
<title>Artboard 17</title>
<path fill="#105885" d="M26.909,27.856c0.424-1.613,1.05-3.161,1.863-4.606l-2.099-3.079c-0.772-1.132-0.642-2.672,0.311-3.649
	l2.125-2.216c0.951-0.979,2.449-1.113,3.551-0.319l2.997,2.156c1.417-0.841,2.937-1.489,4.517-1.924l0.629-3.701
	c0.24-1.355,1.391-2.341,2.729-2.338h3.056c1.345,0,2.496,0.994,2.728,2.355l0.629,3.683c1.57,0.435,3.077,1.078,4.483,1.914
	l2.997-2.156c1.11-0.81,2.632-0.672,3.585,0.328l2.157,2.216c0.952,0.977,1.082,2.516,0.311,3.649l-2.099,3.079
	c0.815,1.444,1.44,2.994,1.863,4.606l3.603,0.646c1.324,0.239,2.292,1.421,2.292,2.803v3.139c0,1.382-0.968,2.564-2.292,2.803
	l-3.603,0.646c-0.422,1.616-1.05,3.166-1.863,4.614l2.099,3.079c0.772,1.132,0.642,2.672-0.311,3.649l-2.157,2.225
	c-0.951,0.979-2.449,1.113-3.551,0.319l-3.022-2.199c-1.407,0.836-2.914,1.48-4.483,1.914l-0.629,3.701
	c-0.232,1.361-1.383,2.355-2.728,2.355h-3.064c-1.345,0-2.496-0.994-2.728-2.355l-0.629-3.701c-1.573-0.434-3.082-1.078-4.491-1.914
	l-2.997,2.156c-1.097,0.819-2.61,0.703-3.577-0.276l-2.157-2.216c-0.952-0.977-1.082-2.516-0.311-3.649l2.099-3.079
	c-0.815-1.449-1.443-2.999-1.863-4.614l-3.603-0.646c-1.324-0.239-2.292-1.421-2.292-2.803v-3.139c0-1.382,0.968-2.564,2.292-2.803
	L26.909,27.856z M36.438,32.876c-0.004,4.893,3.851,8.863,8.614,8.867c4.763,0.004,8.627-3.956,8.631-8.85
	c0.004-4.894-3.851-8.863-8.614-8.867c-0.003,0-0.007,0-0.009,0c-4.762,0-8.622,3.965-8.622,8.859L36.438,32.876L36.438,32.876z
	 M13.076,93.22c-2.907-0.002-5.272-2.433-5.272-5.418v-14.98c-0.014-2.6,1.1-5.044,3.058-6.701
	c4.57-3.809,9.476-7.277,14.588-10.311c0.471-0.283,1.014-0.434,1.566-0.434c1.102,0,2.129,0.605,2.687,1.581
	c0.052,0.092,0.105,0.194,0.149,0.296l5.678,12.869l0.211,0.447c0.161,0.355,0.508,0.587,0.889,0.587h16.047
	c0.378,0,0.726-0.229,0.887-0.587l5.891-13.324c0.499-1.143,1.614-1.883,2.837-1.883c0.441,0,0.869,0.095,1.274,0.28
	c0.091,0.041,0.186,0.092,0.283,0.147c5.117,3.039,10.022,6.511,14.59,10.325c1.964,1.658,3.077,4.102,3.064,6.709v14.986
	c0,2.981-2.361,5.407-5.263,5.407H13.076V93.22z"/>
</svg>
