<?xml version="1.0" encoding="utf-8"?>
<!-- Generator: Adobe Illustrator 17.0.0, SVG Export Plug-In . SVG Version: 6.00 Build 0)  -->
<!DOCTYPE svg PUBLIC "-//W3C//DTD SVG 1.1//EN" "http://www.w3.org/Graphics/SVG/1.1/DTD/svg11.dtd">
<svg version="1.1" id="Calque_1" xmlns="http://www.w3.org/2000/svg" xmlns:xlink="http://www.w3.org/1999/xlink" x="0px" y="0px"
	 width="53.858px" height="34.016px" viewBox="-7.811 -5.859 53.858 34.016" enable-background="new -7.811 -5.859 53.858 34.016"
	 xml:space="preserve">
<g>
	<path fill="#105885" d="M43.213,1.021c0,0.423-0.162,0.795-0.482,1.119L20.229,24.836c-0.324,0.323-0.694,0.487-1.113,0.487
		s-0.789-0.163-1.109-0.487L-4.494,2.14c-0.32-0.323-0.482-0.696-0.482-1.119s0.162-0.795,0.482-1.122l2.415-2.436
		c0.32-0.323,0.69-0.487,1.109-0.487s0.789,0.163,1.113,0.487l18.974,19.141L38.093-2.537c0.32-0.323,0.694-0.487,1.113-0.487
		c0.415,0,0.785,0.163,1.109,0.487l2.415,2.436C43.051,0.226,43.213,0.598,43.213,1.021z"/>
</g>
</svg>
