<?xml version="1.0" encoding="utf-8"?>
<!-- Generator: Adobe Illustrator 17.0.0, SVG Export Plug-In . SVG Version: 6.00 Build 0)  -->
<!DOCTYPE svg PUBLIC "-//W3C//DTD SVG 1.1//EN" "http://www.w3.org/Graphics/SVG/1.1/DTD/svg11.dtd">
<svg version="1.1" id="Calque_1" xmlns="http://www.w3.org/2000/svg" xmlns:xlink="http://www.w3.org/1999/xlink" x="0px" y="0px"
	 width="100.007px" height="100px" viewBox="-0.175 -9.679 100.007 100" enable-background="new -0.175 -9.679 100.007 100"
	 xml:space="preserve">
<g>
	<path d="M73.239,8.052c0.817,0.048,1.665,0.087,2.52,0.087c4.666,0,7.406-1.176,8.76-3.801C78.616-1.402,71.347-5.563,63.309-7.83
		C67.369-3.479,70.767,1.949,73.239,8.052z"/>
	<path d="M76.839,20.365c6.651,0.193,13.619,0.813,20.167,3.465c-1.943-5.542-4.803-10.635-8.518-15.167
		c-0.239-0.294-0.485-0.583-0.736-0.867c-2.3,3.217-6.386,4.907-11.9,4.907c-0.315,0-0.626-0.008-0.937-0.017l0.054,0.168
		l-0.023-0.004C75.704,15.263,76.333,17.779,76.839,20.365z"/>
	<path d="M17.11,78.103c5.351-3.389,9.577-6.408,13.265-9.476c4.828-3.982,9.127-8.725,13.283-13.314l1.466-1.614
		c7.416-8.2,16.616-18.373,28.693-18.674c-0.073-3.501-0.338-6.879-0.782-10.065c-16.587,1.122-29.829,3.061-41.597,6.099
		c-7.321,1.891-13.142,3.97-18.311,6.549c-4.436,2.213-9.863,5.338-12.757,9.998c1.452,9.917,5.929,19.207,12.738,26.604
		C13.105,74.208,14.451,75.867,17.11,78.103z"/>
	<path d="M-0.163,41.142c3.157-3.115,7.393-5.828,13.118-8.426c5.643-2.559,11.888-4.664,19.09-6.423
		c11.859-2.889,24.663-4.737,40.219-5.797c-0.547-2.663-1.242-5.247-2.068-7.7c-0.867,0.122-1.779,0.182-2.711,0.182
		c-4.001,0-8.047-1.089-11.521-2.109c-2.362-0.699-4.677-1.558-6.917-2.395c-2.028-0.757-4.127-1.535-6.22-2.178
		c-10.195-3.117-20.7-3.09-29.698,0.11C5.252,14.928,0.567,25.94-0.101,37.492l0.006,0.008l-0.031,0.452
		C-0.174,38.991-0.188,40.055-0.163,41.142z"/>
	<path d="M54.656-9.453c-1.568-0.149-3.157-0.226-4.733-0.226c-10.73,0-21.112,3.414-29.63,9.681
		c2.412-0.365,4.884-0.548,7.385-0.548c5.357,0,10.809,0.828,16.199,2.451c2.202,0.664,4.374,1.479,6.471,2.261
		c2.057,0.767,4.181,1.568,6.309,2.211c3.818,1.155,8.001,2.292,11.861,2.032C65.996,2.584,61.648-4.812,54.656-9.453z"/>
	<polygon points="99.316,31.892 99.264,31.9 99.308,31.894 	"/>
	<path d="M99.287,32.973h-0.004l-0.153-0.983l-0.01-0.068h-0.004c-0.126-0.742-0.274-1.483-0.436-2.219
		c-5.753-3.851-13.236-4.54-21.108-4.805c0.433,3.233,0.686,6.645,0.759,10.175c5.743,0.267,11.097,2.864,14.472,7.055
		c2.53,3.144,4.223,7.194,5.062,12.091C99.855,47.355,100.347,40.103,99.287,32.973z"/>
	<path d="M92.603,66.184l0.01-0.064l0.305-0.454c0.369-0.635,0.703-1.234,1.024-1.833c0.243-7.452-0.767-12.765-3.167-16.712
		c-2.777-4.565-7.163-7.215-12.427-7.537c-0.041,3.872-0.39,7.79-0.732,11.591c-0.481,5.421-1.178,10.125-2.134,14.449
		c-1.972,8.93-5.05,16.143-9.378,21.944C77.218,83.684,86.547,76.183,92.603,66.184z"/>
	<path d="M56.367,89.889c0.612-0.081,1.228-0.178,1.838-0.28c5.759-5.239,9.936-12.968,12.412-22.973
		c1.051-4.231,1.819-8.833,2.346-14.08c0.429-4.202,0.825-8.659,0.877-12.997c-10.266,0.353-18.489,9.503-25.128,16.88l-1.464,1.622
		c-4.32,4.764-8.787,9.689-13.875,13.955c-3.623,3.03-7.719,5.994-12.491,9.038c8.358,5.987,18.586,9.268,28.971,9.268
		C52.033,90.321,54.225,90.177,56.367,89.889z"/>
</g>
</svg>
