<?xml version="1.0" encoding="utf-8"?>
<!-- Generator: Adobe Illustrator 17.0.0, SVG Export Plug-In . SVG Version: 6.00 Build 0)  -->
<!DOCTYPE svg PUBLIC "-//W3C//DTD SVG 1.1//EN" "http://www.w3.org/Graphics/SVG/1.1/DTD/svg11.dtd">
<svg version="1.1" id="Calque_1" xmlns="http://www.w3.org/2000/svg" xmlns:xlink="http://www.w3.org/1999/xlink" x="0px" y="0px"
	 width="133.228px" height="147.402px" viewBox="-21.962 -23.7 133.228 147.402"
	 enable-background="new -21.962 -23.7 133.228 147.402" xml:space="preserve">
<g>
	<g>
		<path fill="#FFFFFF" d="M44.652,62.818c-23.182,0-42.042-18.77-42.042-41.841c0-23.073,18.86-41.842,42.042-41.842
			c23.185,0,42.045,18.77,42.045,41.844C86.694,44.048,67.834,62.818,44.652,62.818z"/>
	</g>
	<g>
		<path fill="#FFFFFF" d="M-10.002,120.867c-5.031-0.003-9.124-4.079-9.124-9.084V86.667c-0.024-4.36,1.904-8.457,5.292-11.235
			c7.91-6.386,16.402-12.2,25.25-17.288c0.816-0.475,1.755-0.729,2.71-0.729c1.907,0,3.686,1.015,4.651,2.65
			c0.09,0.154,0.182,0.325,0.258,0.497l9.828,21.577l0.366,0.75c0.279,0.595,0.88,0.984,1.538,0.984H58.54
			c0.654,0,1.256-0.386,1.535-0.984l10.197-22.34c0.864-1.916,2.794-3.156,4.91-3.156c0.763,0,1.504,0.16,2.205,0.469
			c0.158,0.068,0.322,0.154,0.49,0.247c8.855,5.094,17.347,10.916,25.253,17.313c3.398,2.781,5.326,6.878,5.302,11.249v25.126
			c0,4.999-4.086,9.065-9.109,9.065H-10.002V120.867z"/>
	</g>
</g>
</svg>
