<?xml version="1.0" encoding="utf-8"?>
<!-- Generator: Adobe Illustrator 17.0.0, SVG Export Plug-In . SVG Version: 6.00 Build 0)  -->
<!DOCTYPE svg PUBLIC "-//W3C//DTD SVG 1.1//EN" "http://www.w3.org/Graphics/SVG/1.1/DTD/svg11.dtd">
<svg version="1.1" id="Calque_1" xmlns="http://www.w3.org/2000/svg" xmlns:xlink="http://www.w3.org/1999/xlink" x="0px" y="0px"
	 width="91.447px" height="100px" viewBox="-20.743 -30 91.447 100" enable-background="new -20.743 -30 91.447 100"
	 xml:space="preserve">
<g>
	<path d="M61.146-21.444h-9.778v-5.333c0-1.778-1.444-3.222-3.222-3.222c-1.778,0-3.222,1.444-3.222,3.222v5.333h-40v-5.333
		C4.924-28.556,3.479-30,1.702-30s-3.222,1.444-3.222,3.222v5.333h-9.556c-5.333,0-9.667,4.333-9.667,9.667v72.111
		c0,5.333,4.333,9.667,9.667,9.667h72.111c5.333,0,9.667-4.333,9.667-9.667v-72.111C70.813-17.111,66.479-21.444,61.146-21.444z
		 M22.479,9.556V24H7.035V9.556H22.479z M43.368,9.556V24H27.59V9.556H43.368z M64.368,9.556V24H48.479V9.556H64.368z M1.813,24
		h-16.111V9.556H1.813V24z M-14.298,29.111H1.813v15.667h-16.111V29.111z M7.035,29.111h15.444v15.667H7.035V29.111z M22.479,50
		v13.556H7.035V50H22.479z M27.59,50h15.667v13.556H27.59V50z M27.59,44.889V29.111h15.667v15.667H27.59V44.889z M48.479,29.111
		h15.889v15.667H48.479V29.111z M-11.076-15h9.556v6.778C-1.521-6.444-0.076-5,1.702-5s3.222-1.444,3.222-3.222V-15h40v6.778
		C44.924-6.444,46.368-5,48.146-5c1.778,0,3.222-1.444,3.222-3.222V-15h9.778c1.778,0,3.222,1.444,3.222,3.222v15h-78.667v-15
		C-14.298-13.556-12.854-15-11.076-15z M-14.298,60.333V50H1.813v13.556h-12.889C-12.854,63.556-14.298,62.111-14.298,60.333z
		 M61.146,63.556H48.479V50h15.889v10.333C64.368,62.111,62.924,63.556,61.146,63.556z"/>
</g>
</svg>
