<svg xmlns="http://www.w3.org/2000/svg" xmlns:xlink="http://www.w3.org/1999/xlink" version="1.1" x="0px" y="0px" viewBox="0 0 100 125" enable-background="new 0 0 100 100" xml:space="preserve"><g><g><g><path d="M95.998,77.564H4.002c-1.043,0-1.888-0.845-1.888-1.889V24.323c0-1.043,0.845-1.888,1.888-1.888h91.996     c1.047,0,1.888,0.845,1.888,1.888v51.353C97.886,76.72,97.045,77.564,95.998,77.564z M5.891,73.788h88.219V26.211H5.891V73.788z"/></g></g></g><g><g><g><path d="M94.537,77.207c-15.002,0-27.209-12.207-27.209-27.209c0-15.002,12.207-27.209,27.209-27.209     c0.376,0,0.753,0.022,1.129,0.048l0.435,0.03c1.004,0.051,1.785,0.881,1.785,1.884v50.494c0,1-0.774,1.826-1.771,1.885     C95.356,77.181,94.95,77.207,94.537,77.207z M94.109,26.569c-12.723,0.229-23.005,10.65-23.005,23.429     c0,12.778,10.282,23.2,23.005,23.428V26.569z"/></g></g></g><g><g><g><path d="M5.467,77.207c-0.413,0-0.822-0.026-1.229-0.056c-0.992-0.066-2.124-0.915-2.124-1.907V24.75     c0-1.003,0.785-1.833,1.788-1.884l0.432-0.03c0.377-0.026,0.753-0.048,1.133-0.048c15.002,0,27.209,12.207,27.209,27.209     C32.676,65,20.469,77.207,5.467,77.207z M5.891,26.569v46.857c12.727-0.229,23.009-10.65,23.009-23.428     C28.899,37.219,18.617,26.797,5.891,26.569z"/></g></g></g><g><g><g><path d="M50.001,42.725c-1.044,0-1.889-0.845-1.889-1.888V24.865c0-1.043,0.845-1.888,1.889-1.888s1.888,0.845,1.888,1.888     v15.972C51.889,41.88,51.045,42.725,50.001,42.725z"/></g></g></g><g><g><g><path d="M50.001,77.021c-1.044,0-1.889-0.844-1.889-1.888V59.531c0-1.045,0.845-1.889,1.889-1.889s1.888,0.844,1.888,1.889     v15.603C51.889,76.178,51.045,77.021,50.001,77.021z"/></g></g></g><g><g><g><path d="M50.045,60.994c-6,0-10.883-4.883-10.883-10.886c0-6,4.883-10.883,10.883-10.883c6.004,0,10.887,4.882,10.887,10.883     C60.932,56.111,56.049,60.994,50.045,60.994z M50.045,43.002c-3.92,0-7.106,3.186-7.106,7.106c0,3.92,3.187,7.11,7.106,7.11     c3.921,0,7.11-3.19,7.11-7.11C57.155,46.188,53.966,43.002,50.045,43.002z"/></g></g></g><g><g><g><path d="M4.002,61.419c-0.416,0-0.829-0.14-1.165-0.401c-0.457-0.358-0.723-0.908-0.723-1.486V40.468     c0-0.579,0.266-1.128,0.723-1.486c0.457-0.357,1.055-0.487,1.615-0.347l15.412,3.776c0.844,0.207,1.438,0.962,1.438,1.833v11.509     c0,0.871-0.594,1.627-1.438,1.834L4.452,61.363C4.305,61.4,4.153,61.419,4.002,61.419z M5.891,42.876v14.247l11.635-2.852v-8.544     L5.891,42.876z"/></g></g></g><g><g><g><path d="M95.998,61.419c-0.147,0-0.303-0.019-0.45-0.056L80.14,57.588c-0.848-0.207-1.438-0.963-1.438-1.834V44.245     c0-0.871,0.591-1.626,1.438-1.833l15.408-3.776c0.546-0.14,1.158-0.011,1.615,0.347c0.457,0.358,0.723,0.907,0.723,1.486v19.063     c0,0.578-0.266,1.128-0.723,1.486C96.831,61.279,96.418,61.419,95.998,61.419z M82.478,54.271l11.632,2.852V42.876l-11.632,2.851     V54.271z"/></g></g></g><text x="0" y="115" fill="#000000" font-size="5px" font-weight="bold" font-family="'Helvetica Neue', Helvetica, Arial-Unicode, Arial, Sans-serif">Created by Iconic</text><text x="0" y="120" fill="#000000" font-size="5px" font-weight="bold" font-family="'Helvetica Neue', Helvetica, Arial-Unicode, Arial, Sans-serif">from the Noun Project</text></svg>