<svg xmlns="http://www.w3.org/2000/svg" xmlns:xlink="http://www.w3.org/1999/xlink" version="1.1" x="0px" y="0px" viewBox="0 0 100 125" enable-background="new 0 0 100 100" xml:space="preserve"><g><path d="M76.394,62.998H76.22c-0.078-1.261-0.806-2.341-1.85-2.923c-2.185,0.884-4.516,1.411-6.903,1.521   c-0.038,0.001-0.076,0.002-0.114,0.002c-0.216,0-0.426-0.037-0.631-0.091c-0.214,0.06-0.435,0.101-0.666,0.101   c-0.021,0-0.041,0-0.061,0c-0.632-0.015-1.261-0.062-1.885-0.133v1.749h-5.801v-3.293c-1.951-0.827-3.78-1.94-5.409-3.328v6.621   h-5.8V48.637c-1.214-2.938-1.766-6.147-1.556-9.395c0.017-0.258,0.081-0.501,0.17-0.732c-0.04-0.243-0.057-0.489-0.023-0.738   c0.586-4.323,2.472-8.295,5.452-11.488c0.17-0.183,0.371-0.326,0.583-0.448c0.122-0.212,0.265-0.412,0.447-0.583   c0.331-0.309,0.674-0.598,1.021-0.883l-1.171-0.793c-0.611-0.414-1.316-0.623-2.022-0.623s-1.412,0.209-2.023,0.623l-13.195,8.939   l-13.197,8.939c-1.312,0.889-1.89,2.529-1.426,4.043c0.465,1.516,1.864,2.547,3.447,2.547h3.27v11.607   c-1.681,0.234-2.989,1.627-3.096,3.346h-0.174c-1.99,0-3.605,1.613-3.605,3.605v6.836c0,1.992,1.615,3.607,3.605,3.607h52.788   c1.991,0,3.605-1.615,3.605-3.607v-6.836C80,64.611,78.385,62.998,76.394,62.998z M41.691,63.223H35.89V44.439h5.801V63.223z"/><g><path d="M48.155,39.982c-0.134,0-0.27,0.001-0.406,0.004c-0.166,4.913,1.621,9.688,4.965,13.272l7.915-7.915    c-0.106-0.113-0.214-0.224-0.322-0.332C57.063,41.769,52.747,39.982,48.155,39.982z"/><path d="M62.28,47.38l-7.651,7.652c3.009,2.43,6.73,3.861,10.602,4.075C65.694,54.985,64.635,50.779,62.28,47.38z"/><path d="M48.155,37.373c5.287,0,10.258,2.059,13.998,5.797c0.106,0.107,0.213,0.217,0.321,0.33l2.407-2.405l-12.611-12.61    c-2.206,2.537-3.662,5.584-4.247,8.889C48.066,37.373,48.111,37.373,48.155,37.373z"/><path d="M67.854,59.071c3.892-0.338,7.586-1.904,10.536-4.467L66.724,42.937l-2.573,2.572    C66.983,49.393,68.311,54.267,67.854,59.071z"/><path d="M63.002,22.393c-3.305,0.585-6.354,2.041-8.889,4.248L66.724,39.25l2.406-2.406c-0.113-0.107-0.222-0.214-0.331-0.323    C65.058,32.78,62.97,27.668,63.002,22.393z"/><path d="M82.796,42.315c-4.179,0-8.296-1.344-11.657-3.794l-2.573,2.572L80.235,52.76c2.563-2.951,4.129-6.646,4.466-10.535    C84.068,42.285,83.431,42.315,82.796,42.315z"/><path d="M66.253,22.109c-0.212,0-0.425,0.004-0.637,0.011c-0.108,4.689,1.706,9.237,5.027,12.557    c0.107,0.108,0.217,0.215,0.33,0.322l7.915-7.915C75.451,23.871,70.989,22.109,66.253,22.109z"/><path d="M84.738,39.601c-0.214-3.871-1.645-7.592-4.076-10.603l-7.651,7.652c2.855,1.978,6.303,3.06,9.79,3.06    C83.446,39.71,84.096,39.673,84.738,39.601z"/></g></g><text x="0" y="115" fill="#000000" font-size="5px" font-weight="bold" font-family="'Helvetica Neue', Helvetica, Arial-Unicode, Arial, Sans-serif">Created by Berkay Sargın</text><text x="0" y="120" fill="#000000" font-size="5px" font-weight="bold" font-family="'Helvetica Neue', Helvetica, Arial-Unicode, Arial, Sans-serif">from the Noun Project</text></svg>