<?xml version="1.0" encoding="utf-8"?>
<!-- Generator: Adobe Illustrator 17.0.0, SVG Export Plug-In . SVG Version: 6.00 Build 0)  -->
<!DOCTYPE svg PUBLIC "-//W3C//DTD SVG 1.1//EN" "http://www.w3.org/Graphics/SVG/1.1/DTD/svg11.dtd">
<svg version="1.1" id="Calque_1" xmlns="http://www.w3.org/2000/svg" xmlns:xlink="http://www.w3.org/1999/xlink" x="0px" y="0px"
	 width="102px" height="59.56px" viewBox="10.691 16.949 102 59.56" enable-background="new 10.691 16.949 102 59.56"
	 xml:space="preserve">
<g>
	<g>
		<g>
			<path d="M109.72,75.511H13.663c-1.089,0-1.971-0.882-1.971-1.972V19.919c0-1.089,0.882-1.971,1.971-1.971h96.057
				c1.093,0,1.971,0.882,1.971,1.971v53.62C111.691,74.629,110.813,75.511,109.72,75.511z M15.635,71.568h92.114V21.891H15.635
				V71.568z"/>
		</g>
	</g>
</g>
<g>
	<g>
		<g>
			<path d="M108.194,75.138c-15.664,0-28.41-12.746-28.41-28.41s12.746-28.41,28.41-28.41c0.393,0,0.786,0.023,1.179,0.05
				l0.454,0.031c1.048,0.053,1.864,0.92,1.864,1.967v52.723c0,1.044-0.808,1.907-1.849,1.968
				C109.05,75.111,108.626,75.138,108.194,75.138z M107.747,22.265c-13.285,0.239-24.021,11.12-24.021,24.463
				c0,13.342,10.736,24.224,24.021,24.462V22.265z"/>
		</g>
	</g>
</g>
<g>
	<g>
		<g>
			<path d="M15.192,75.138c-0.431,0-0.858-0.027-1.283-0.058c-1.036-0.069-2.218-0.955-2.218-1.991V20.365
				c0-1.047,0.82-1.914,1.867-1.967l0.451-0.031c0.394-0.027,0.786-0.05,1.183-0.05c15.664,0,28.41,12.746,28.41,28.41
				C43.602,62.392,30.857,75.138,15.192,75.138z M15.635,22.265V71.19C28.924,70.951,39.66,60.07,39.66,46.728
				C39.659,33.385,28.923,22.503,15.635,22.265z"/>
		</g>
	</g>
</g>
<g>
	<g>
		<g>
			<path d="M61.692,39.134c-1.09,0-1.972-0.882-1.972-1.971V20.485c0-1.089,0.882-1.971,1.972-1.971s1.971,0.882,1.971,1.971v16.677
				C63.664,38.251,62.782,39.134,61.692,39.134z"/>
		</g>
	</g>
</g>
<g>
	<g>
		<g>
			<path d="M61.692,74.944c-1.09,0-1.972-0.881-1.972-1.971V56.682c0-1.091,0.882-1.972,1.972-1.972s1.971,0.881,1.971,1.972v16.292
				C63.664,74.064,62.782,74.944,61.692,74.944z"/>
		</g>
	</g>
</g>
<g>
	<g>
		<g>
			<path d="M61.738,58.209c-6.265,0-11.363-5.099-11.363-11.367c0-6.265,5.099-11.363,11.363-11.363
				c6.269,0,11.368,5.098,11.368,11.363C73.106,53.111,68.007,58.209,61.738,58.209z M61.738,39.423c-4.093,0-7.42,3.327-7.42,7.42
				s3.328,7.424,7.42,7.424c4.094,0,7.424-3.331,7.424-7.424S65.832,39.423,61.738,39.423z"/>
		</g>
	</g>
</g>
<g>
	<g>
		<g>
			<path d="M13.663,58.653c-0.434,0-0.866-0.146-1.216-0.419c-0.477-0.374-0.755-0.948-0.755-1.552V36.777
				c0-0.605,0.278-1.178,0.755-1.552c0.477-0.373,1.102-0.508,1.686-0.362l16.092,3.943c0.881,0.216,1.501,1.004,1.501,1.914v12.017
				c0,0.909-0.62,1.699-1.501,1.915l-16.092,3.943C13.979,58.633,13.82,58.653,13.663,58.653z M15.635,39.291v14.876l12.149-2.978
				v-8.921L15.635,39.291z"/>
		</g>
	</g>
</g>
<g>
	<g>
		<g>
			<path d="M109.72,58.653c-0.153,0-0.316-0.02-0.47-0.058l-16.088-3.942c-0.885-0.216-1.501-1.006-1.501-1.915V40.721
				c0-0.909,0.617-1.698,1.501-1.914l16.088-3.943c0.57-0.146,1.209-0.011,1.686,0.362c0.477,0.374,0.755,0.947,0.755,1.552v19.905
				c0,0.604-0.278,1.178-0.755,1.552C110.59,58.507,110.158,58.653,109.72,58.653z M95.603,51.189l12.146,2.978V39.291
				l-12.146,2.977V51.189z"/>
		</g>
	</g>
</g>
</svg>
