<?xml version="1.0" encoding="utf-8"?>
<!-- Generator: Adobe Illustrator 17.0.0, SVG Export Plug-In . SVG Version: 6.00 Build 0)  -->
<!DOCTYPE svg PUBLIC "-//W3C//DTD SVG 1.1//EN" "http://www.w3.org/Graphics/SVG/1.1/DTD/svg11.dtd">
<svg version="1.1" id="Calque_1" xmlns="http://www.w3.org/2000/svg" xmlns:xlink="http://www.w3.org/1999/xlink" x="0px" y="0px"
	 width="90.709px" height="90.709px" viewBox="-51.595 -25.374 90.709 90.709"
	 enable-background="new -51.595 -25.374 90.709 90.709" xml:space="preserve">
<g>
	<g>
		<path fill="#6D6D6D" d="M32.974,33.933c-1.942,0-3.494,1.514-3.494,3.405v17.878c0,0.378-0.291,0.662-0.68,0.662h-69.892
			c-0.388,0-0.68-0.284-0.68-0.662V37.243c0-1.892-1.553-3.405-3.494-3.405s-3.494,1.514-3.494,3.405v17.878
			c0,4.068,3.397,7.378,7.571,7.378h69.892c4.174,0,7.571-3.311,7.571-7.378V37.243C36.371,35.446,34.818,33.933,32.974,33.933z"/>
		<path fill="#6D6D6D" d="M-6.147,43.203L7.638,20.028h-10.29v-39.162c0-1.892-1.553-3.405-3.494-3.405s-3.494,1.514-3.494,3.405
			v39.162h-10.29L-6.147,43.203z"/>
	</g>
</g>
</svg>
