<?xml version="1.0" encoding="utf-8"?>
<!-- Generator: Adobe Illustrator 17.0.0, SVG Export Plug-In . SVG Version: 6.00 Build 0)  -->
<!DOCTYPE svg PUBLIC "-//W3C//DTD SVG 1.1//EN" "http://www.w3.org/Graphics/SVG/1.1/DTD/svg11.dtd">
<svg version="1.1" id="Calque_1" xmlns="http://www.w3.org/2000/svg" xmlns:xlink="http://www.w3.org/1999/xlink" x="0px" y="0px"
	 width="97.447px" height="100px" viewBox="-54.965 -30.02 97.447 100" enable-background="new -54.965 -30.02 97.447 100"
	 xml:space="preserve">
<g>
	<g>
		<path d="M38.695,36.387c-2.225,0-4.004,1.78-4.004,4.004v21.023c0,0.445-0.334,0.779-0.779,0.779h-80.089
			c-0.445,0-0.779-0.334-0.779-0.779V40.28c0-2.225-1.78-4.004-4.004-4.004s-4.004,1.78-4.004,4.004v21.023
			c0,4.783,3.893,8.676,8.676,8.676h80.089c4.783,0,8.676-3.893,8.676-8.676V40.28C42.588,38.167,40.808,36.387,38.695,36.387z"/>
		<path d="M-6.133,47.288L9.663,20.036H-2.128v-46.051c0-2.225-1.78-4.004-4.004-4.004s-4.004,1.78-4.004,4.004v46.051h-11.791
			L-6.133,47.288z"/>
	</g>
</g>
</svg>
