<?xml version="1.0" encoding="utf-8"?>
<!-- Generator: Adobe Illustrator 17.0.0, SVG Export Plug-In . SVG Version: 6.00 Build 0)  -->
<!DOCTYPE svg PUBLIC "-//W3C//DTD SVG 1.1//EN" "http://www.w3.org/Graphics/SVG/1.1/DTD/svg11.dtd">
<svg version="1.1" id="Calque_1" xmlns="http://www.w3.org/2000/svg" xmlns:xlink="http://www.w3.org/1999/xlink" x="0px" y="0px"
	 width="50px" height="50px" viewBox="0 0 50 50" enable-background="new 0 0 50 50" xml:space="preserve">
<g>
	<path fill="#105885" d="M39.997,1c2.479,0,4.6,0.882,6.359,2.641C48.116,5.402,49,7.521,49,10V40c0,2.479-0.884,4.598-2.643,6.357
		C44.598,48.12,42.477,49,39.997,49h-5.874V30.405h6.218l0.939-7.248h-7.157v-4.625c0-1.167,0.244-2.042,0.734-2.625
		c0.49-0.583,1.442-0.875,2.86-0.875l3.812-0.032V8.531c-1.312-0.187-3.165-0.28-5.562-0.28c-2.832,0-5.099,0.834-6.797,2.5
		c-1.698,1.668-2.545,4.022-2.545,7.064v5.343h-6.25v7.248h6.25V49H10c-2.479,0-4.6-0.88-6.359-2.643C1.88,44.598,1,42.479,1,40V10
		c0-2.479,0.88-4.598,2.641-6.359C5.4,1.882,7.521,1,10,1H39.997z"/>
</g>
</svg>
