<?xml version="1.0" encoding="utf-8"?>
<!-- Generator: Adobe Illustrator 17.0.0, SVG Export Plug-In . SVG Version: 6.00 Build 0)  -->
<!DOCTYPE svg PUBLIC "-//W3C//DTD SVG 1.1//EN" "http://www.w3.org/Graphics/SVG/1.1/DTD/svg11.dtd">
<svg version="1.1" id="Calque_1" xmlns="http://www.w3.org/2000/svg" xmlns:xlink="http://www.w3.org/1999/xlink" x="0px" y="0px"
	 width="90.709px" height="90.709px" viewBox="-52.354 -25.354 90.709 90.709"
	 enable-background="new -52.354 -25.354 90.709 90.709" xml:space="preserve">
<g>
	<g>
		<path fill="#105885" d="M-29.205,18.299c4.725,0,8.693-3.874,8.693-8.693s-3.874-8.693-8.693-8.693s-8.598,3.968-8.598,8.693
			S-33.929,18.299-29.205,18.299z M-29.205,6.111c1.984,0,3.59,1.606,3.59,3.59s-1.606,3.59-3.59,3.59s-3.59-1.606-3.59-3.59
			S-31.094,6.111-29.205,6.111z"/>
		<path fill="#105885" d="M25.788-22.52h-52.913c-5.291,0-9.543,4.158-9.732,9.354h6.236c0.189-1.701,1.701-3.024,3.402-3.024
			h52.913c1.89,0,3.496,1.512,3.496,3.496V40.22c0,1.795-1.323,3.213-3.024,3.402v6.33c5.197-0.188,9.354-4.534,9.354-9.731v-52.913
			C35.52-18.173,31.173-22.52,25.788-22.52z"/>
		<path fill="#105885" d="M13.504-10.709h-52.913c-5.575,0-10.11,4.535-10.11,10.205v52.913c0,5.575,4.535,10.11,10.205,10.11
			h52.913c5.575,0,10.205-4.535,10.205-10.205V-0.598C23.709-6.173,19.173-10.709,13.504-10.709z M-39.315-4.661h52.913
			c2.268,0,4.063,1.795,4.063,4.063v17.197l-5.102-4.725c-1.039-0.945-2.551-0.945-3.496,0.094l-24.189,24.094l-11.906-12
			c-0.945-0.945-2.551-1.039-3.59,0l-12.756,12.378V-0.504C-43.378-2.772-41.583-4.661-39.315-4.661z M13.504,56.378h-52.913
			c-2.268,0-4.063-1.795-4.063-4.063v-8.787l14.551-14.079l12,12c1.039,1.039,2.646,1.039,3.59,0L10.858,17.26l6.803,6.33v28.725
			C17.661,54.583,15.772,56.378,13.504,56.378z"/>
	</g>
</g>
</svg>
