<?xml version="1.0" encoding="utf-8"?>
<!-- Generator: Adobe Illustrator 17.0.0, SVG Export Plug-In . SVG Version: 6.00 Build 0)  -->
<!DOCTYPE svg PUBLIC "-//W3C//DTD SVG 1.1//EN" "http://www.w3.org/Graphics/SVG/1.1/DTD/svg11.dtd">
<svg version="1.1" id="Calque_1" xmlns="http://www.w3.org/2000/svg" xmlns:xlink="http://www.w3.org/1999/xlink" x="0px" y="0px"
	 width="84.63px" height="102px" viewBox="15.692 3.429 84.63 102" enable-background="new 15.692 3.429 84.63 102"
	 xml:space="preserve">
<path d="M90.113,19.75C83.06,11.049,72.577,5.479,61.409,4.567c-11.04-0.901-22.145,2.729-30.503,10
	c-8.43,7.334-13.618,17.963-14.164,29.127c-0.581,11.863,4.656,22.983,11.498,32.373c6.126,8.407,13.654,15.791,21.719,22.331
	c2.246,1.821,4.543,3.584,6.909,5.247c0.375,0.263,0.751,0.526,1.132,0.779c0.069,0.046,0.775-0.52,0.842-0.567
	c5.993-4.172,11.622-8.923,16.85-14.015c8.232-8.019,15.81-17.272,20.218-27.984c2.946-7.16,4.115-14.832,2.919-22.513
	C97.713,32.184,94.675,25.379,90.113,19.75C88.294,17.506,95.868,26.85,90.113,19.75z"/>
<g id="Logo">
	<g>
		<g>
			
				<polygon fill="#FFFFFF" stroke="#FFFFFF" stroke-width="0.3137" stroke-linecap="round" stroke-linejoin="round" stroke-miterlimit="10" points="
				78.649,29.574 78.72,31.112 82.494,31.112 82.562,29.574 80.606,28.743 			"/>
			<polygon fill="#FFFFFF" points="85.3,46.328 75.888,46.328 75.888,37.711 79.033,37.161 85.3,37.711 			"/>
			
				<polygon fill="#FFFFFF" stroke="#FFFFFF" stroke-width="0.3137" stroke-linecap="round" stroke-linejoin="round" stroke-miterlimit="10" points="
				78.972,25.507 78.965,26.689 82.247,26.72 82.244,25.564 80.67,24.507 			"/>
			
				<line fill="none" stroke="#105885" stroke-width="0.3137" stroke-linecap="round" stroke-miterlimit="10" x1="79.028" y1="37.428" x2="79.027" y2="44.586"/>
			
				<line fill="none" stroke="#105885" stroke-width="0.3137" stroke-linecap="round" stroke-miterlimit="10" x1="75.825" y1="37.944" x2="75.825" y2="44.422"/>
			
				<line fill="none" stroke="#105885" stroke-width="0.3137" stroke-linecap="round" stroke-miterlimit="10" x1="85.394" y1="42.982" x2="85.394" y2="37.947"/>
			<path fill="#105885" stroke="#105885" stroke-width="0.1262" stroke-miterlimit="10" d="M75.842,38.844"/>
			
				<path fill="#105885" stroke="#105885" stroke-width="0.3137" stroke-linecap="round" stroke-linejoin="round" stroke-miterlimit="10" d="
				M82.246,26.054c-1.641-0.505-1.641-0.505-3.282,0l-0.316,3.521c1.957-0.505,1.957-0.505,3.913,0L82.246,26.054z"/>
			
				<path fill="#105885" stroke="#105885" stroke-width="0.3137" stroke-linecap="round" stroke-linejoin="round" stroke-miterlimit="10" d="
				M82.562,30.079c-1.641-0.505-2.272-0.505-3.913,0l-2.841,7.854l3.219-0.505l6.375,0.505L82.562,30.079z"/>
			
				<path fill="#105885" stroke="#105885" stroke-width="0.3137" stroke-linecap="round" stroke-linejoin="round" stroke-miterlimit="10" d="
				M82.247,25.549c-1.642-0.504-1.642-0.504-3.282,0l1.524-8.596l-0.388-1.213h1.01l-0.383,1.212L82.247,25.549z"/>
			<path fill="#105885" d="M81.08,38.872c-0.399,0-0.728,0.22-0.782,0.506l-0.009-0.001v2.209l1.581,0.146v-2.209
				C81.871,39.198,81.517,38.872,81.08,38.872z"/>
			<path fill="#105885" d="M83.825,39.157c-0.349,0-0.631,0.211-0.631,0.47v2.209l1.262,0.111v-2.209
				C84.456,39.479,84.173,39.157,83.825,39.157z"/>
			<path fill="#105885" d="M77.034,39.584L77.034,39.584c0-0.139-0.139-0.251-0.311-0.251c-0.172,0-0.311,0.211-0.311,0.349v2.209
				l0.623-0.098L77.034,39.584L77.034,39.584z"/>
			<path fill="#105885" d="M77.996,39.055c-0.218,0-0.394,0.266-0.394,0.442v2.209l0.789-0.124v-2.209
				C78.39,39.198,78.214,39.055,77.996,39.055z"/>
		</g>
		<g>
			<g>
				
					<linearGradient id="SVGID_1_" gradientUnits="userSpaceOnUse" x1="303.5178" y1="-331.7261" x2="303.5178" y2="-296.0868" gradientTransform="matrix(1 0 0 -1 -247.5 -270)">
					<stop  offset="0" style="stop-color:#F15A24"/>
					<stop  offset="0.0071" style="stop-color:#F15B24"/>
					<stop  offset="0.4134" style="stop-color:#F47921"/>
					<stop  offset="0.7587" style="stop-color:#F68C1F"/>
					<stop  offset="1" style="stop-color:#F7931E"/>
				</linearGradient>
				<path fill="url(#SVGID_1_)" d="M56.018,26.087c-10.93,0-19.79,8.861-19.79,19.79c0,6.484,3.118,12.239,7.937,15.849l3.342-0.589
					c0.125-0.036,0.26-0.06,0.403-0.071l24.663-4.349c2.043-3.114,3.235-6.837,3.235-10.84
					C75.808,34.947,66.948,26.087,56.018,26.087z"/>
				<path fill="none" stroke="#105885" stroke-width="0.7838" stroke-miterlimit="10" d="M56.018,26.087
					c-10.93,0-19.79,8.861-19.79,19.79c0,6.484,3.118,12.239,7.937,15.849l3.342-0.589c0.125-0.036,0.26-0.06,0.403-0.071
					l24.663-4.349c2.043-3.114,3.235-6.837,3.235-10.84C75.808,34.947,66.948,26.087,56.018,26.087z"/>
			</g>
			<g id="XMLID_1_">
				<g>
					<path fill="#105885" d="M50.193,26.984c13.951-4.323,27.742,7.716,25.324,22.122c-0.498,2.951-1.603,5.636-3.182,7.94
						c-0.086,0.008-0.168,0.024-0.247,0.039c-0.067-0.004-0.133-0.012-0.204-0.012c-0.086,0-0.168,0.008-0.247,0.016
						c-0.078-0.012-0.161-0.016-0.247-0.016c-0.019,0-0.035,0.004-0.059,0.004c0.674-0.936,1.282-1.948,1.815-3.037
						c0.173-0.353,0.376-0.717,0.423-1.097c0.333-2.563-0.039-5.028-1.09-7.395c-1.462-3.308-3.731-5.98-6.49-8.261
						c-0.721-0.596-1.481-1.133-2.254-1.716c-0.886,1.101-1.191,2.308-1.352,3.555c-0.317,2.504-0.031,4.996,0.18,7.489
						c0.216,2.583,0.478,5.161,0.623,7.748c0.082,1.427,0.086,2.845-0.027,4.26c-0.067,0.012-0.129,0.024-0.188,0.043
						c-0.204,0.004-0.388,0.039-0.557,0.086c-0.016,0-0.031-0.004-0.047-0.004c-0.008,0-0.016,0-0.024,0
						c0.278-3.076-0.027-6.149-0.282-9.221c-0.227-2.735-0.478-5.471-0.58-8.21c-0.082-2.147,0.204-4.264,1.591-6.227
						c-1.262-0.654-2.453-1.25-3.625-1.893c-0.545-0.294-0.827-0.149-1.152,0.353c-2.61,4.029-4.844,8.257-6.737,12.666
						c-1.564,3.637-2.986,7.34-3.503,11.294c-0.153,1.168-0.129,2.379-0.027,3.555c-0.31,0.008-0.58,0.074-0.811,0.184
						c-0.051-0.302-0.09-0.604-0.114-0.905c-0.145-2.065,0.255-4.076,0.78-6.051c1.638-6.133,4.311-11.827,7.426-17.325
						c0.827-1.462,1.732-2.88,2.63-4.373c-1.505-0.427-2.97-0.843-4.475-1.27c-0.208,0.56-0.349,0.999-0.529,1.422
						c-0.972,2.273-2.653,3.962-4.554,5.451c-2.249,1.756-4.562,3.429-6.807,5.193c-1.579,1.242-2.931,2.708-3.891,4.503
						c-0.325,0.607-0.439,1.183-0.282,1.881c1.144,5.048,3.782,8.978,7.908,11.796C45.004,61.651,44.757,61.8,44.557,62
						c-5.494-3.884-8.649-10.24-8.292-17.247c0.047-0.874,0.161-1.744,0.243-2.614c0.31-1.097,0.623-2.199,0.936-3.296
						c0.439-0.948,0.882-1.893,1.325-2.837c0.055-0.118,0.094-0.247,0.165-0.353C41.775,31.581,45.353,28.485,50.193,26.984z
						 M74.58,49.808c1.07-5.482,0-10.514-3.225-15.08c-0.106-0.149-0.282-0.317-0.447-0.349c-1.803-0.349-3.609-0.588-5.404,0.031
						c-0.392,0.137-0.749,0.372-1.176,0.592c5.208,3.829,9.225,8.312,10.154,14.919C74.537,49.863,74.576,49.839,74.58,49.808z
						 M70.14,33.391c0-0.067,0.019-0.121,0-0.149c-0.063-0.09-0.137-0.168-0.212-0.251c-1.799-1.94-3.915-3.441-6.341-4.483
						c-0.278-0.121-0.76-0.051-1.023,0.118c-1.407,0.909-2.336,2.265-3.296,3.547c1.383,0.76,2.7,1.497,4.036,2.202
						c0.149,0.082,0.439,0.082,0.572-0.008c1.242-0.878,2.645-1.129,4.119-1.109C68.709,33.27,69.423,33.344,70.14,33.391z
						 M61.26,28.626c0.22-0.251,0.498-0.451,0.807-0.725c-2.873-0.948-5.69-1.211-8.543-0.827c0.047,1.172,0.09,2.281,0.141,3.484
						c1.47,0.419,2.982,0.862,4.503,1.258c0.165,0.043,0.458-0.149,0.6-0.31C59.61,30.558,60.421,29.578,61.26,28.626z
						 M52.873,30.464c-0.047-1.133-0.09-2.167-0.137-3.272c-3.598,0.67-6.643,2.136-9.253,4.53
						C46.434,30.335,49.546,30.1,52.873,30.464z M52.579,31.346c-0.078-0.063-0.11-0.102-0.149-0.11
						c-0.106-0.024-0.216-0.039-0.321-0.051c-2.187-0.216-4.354-0.121-6.447,0.584c-2.563,0.87-4.761,2.238-6.137,4.683
						c-0.944,1.677-1.654,3.445-2.065,5.322c-0.384,1.76-0.549,3.535-0.384,5.455c0.141-0.176,0.216-0.247,0.27-0.337
						c1.038-1.685,2.398-3.084,3.95-4.291c1.697-1.321,3.433-2.594,5.153-3.887c1.634-1.23,3.237-2.496,4.495-4.134
						C51.697,33.599,52.305,32.549,52.579,31.346z"/>
				</g>
			</g>
		</g>
		<polygon fill="#105885" points="35.68,44.721 30.465,59.426 34.822,65.835 60.989,60.091 73.379,56.204 48.417,47.904 		"/>
		<g>
			<g>
				<path fill="#FFFFFF" d="M50.648,49.426c-0.073,0-0.148-0.007-0.223-0.021c-1.05-0.202-1.755-0.902-1.935-1.921
					c-0.147-0.83,0.061-1.699,0.618-2.583c0.582-0.922,1.277-1.46,2.066-1.599c0.212-0.037,0.418-0.056,0.612-0.056
					c0.486,0,0.92,0.116,1.287,0.346c0.541,0.337,0.903,0.889,1.02,1.554c0.139,0.786-0.242,1.323-0.578,1.796l-0.051,0.072
					c-0.179,0.253-0.451,0.425-0.756,0.479l-0.124,0.022c-0.098,0.017-0.215,0.053-0.372,0.258
					c-0.242,0.316-0.374,0.552-0.427,0.765C51.654,49.068,51.177,49.426,50.648,49.426z"/>
				<path fill="#105885" d="M51.788,44.422c0.265,0,0.487,0.056,0.665,0.168c0.264,0.164,0.428,0.44,0.484,0.76
					s-0.109,0.531-0.431,0.985l-0.124,0.022c-0.413,0.073-0.782,0.283-1.102,0.702c-0.32,0.419-0.533,0.792-0.633,1.192
					c-0.573-0.11-0.904-0.434-0.999-0.97c-0.094-0.536,0.057-1.12,0.455-1.752s0.824-0.989,1.276-1.069
					C51.525,44.435,51.661,44.422,51.788,44.422 M51.788,42.071c-0.262,0-0.537,0.025-0.816,0.074
					c-1.13,0.199-2.091,0.916-2.857,2.13c-0.717,1.138-0.981,2.287-0.782,3.414c0.265,1.503,1.338,2.576,2.871,2.871
					c0.149,0.029,0.299,0.043,0.445,0.043c1.057,0,2.011-0.716,2.278-1.778l0,0c0,0,0.022-0.059,0.121-0.202
					c0.555-0.132,1.045-0.461,1.377-0.93l0.05-0.07c0.399-0.562,1.001-1.411,0.777-2.681c-0.176-0.998-0.728-1.832-1.556-2.347
					C53.139,42.247,52.497,42.071,51.788,42.071L51.788,42.071z"/>
			</g>
			<g>
				<path fill="#FFFFFF" d="M33.111,68.577c-4.107,0-6.683-2.302-7.451-6.657c-0.326-1.847-0.256-3.869,0.206-6.01
					c0.454-2.099,1.226-4.137,2.295-6.056c1.088-1.953,2.593-3.685,4.473-5.149c1.906-1.485,3.926-2.423,6.004-2.789
					c0.85-0.15,1.646-0.226,2.364-0.226c1.073,0,2.022,0.17,2.82,0.504c1.881,0.79,2.482,2.121,2.654,3.099
					c0.09,0.51,0.08,1.079-0.03,1.691c-0.231,1.167-0.843,2.207-1.821,3.11c-0.96,0.886-2.049,1.442-3.235,1.651
					c-0.228,0.04-0.451,0.061-0.663,0.061c-0.428,0-0.827-0.082-1.187-0.244c-0.678-0.305-1.118-0.854-1.241-1.548
					c-0.097-0.55,0.001-1.14,0.29-1.757c0.196-0.418,0.614-0.677,1.064-0.677c0.065,0,0.131,0.005,0.196,0.017
					c0.048,0.008,0.097,0.012,0.151,0.012c0.074,0,0.156-0.008,0.243-0.023c0.532-0.094,0.986-0.367,1.389-0.835
					c0.451-0.524,0.45-0.925,0.398-1.215c-0.051-0.289-0.085-0.48-0.708-0.48c-0.182,0-0.392,0.021-0.623,0.061
					c-1.841,0.325-3.565,1.303-5.124,2.906c-1.611,1.657-2.812,3.676-3.569,6c-0.755,2.318-0.945,4.588-0.564,6.749
					c0.588,3.337,2.183,3.764,3.507,3.764c0.339,0,0.71-0.035,1.102-0.104c1.829-0.323,3.699-1.417,5.561-3.253
					c1.868-1.842,3.007-3.674,3.387-5.444c0.222-0.931,0.498-1.854,0.825-2.773c0.681-1.842,1.67-2.889,2.945-3.125
					c0,0,1.544-0.332,1.558-0.334l0.309-0.054c0.068-0.012,0.136-0.018,0.204-0.018c0.381,0,0.743,0.185,0.965,0.504
					c0.024,0.034,0.045,0.069,0.065,0.105c0.022-0.145,0.072-0.286,0.148-0.416c0.174-0.297,0.47-0.502,0.809-0.562l1.297-0.229
					c0.33-0.058,0.646-0.088,0.938-0.088c0.483,0,0.892,0.079,1.216,0.234c0.267,0.12,0.501,0.309,0.684,0.547
					c1.153-1.005,2.403-1.63,3.736-1.865c0.255-0.045,0.502-0.068,0.733-0.068c1.418,0,2.417,0.867,2.673,2.321
					c0.082,0.463,0.095,0.939,0.041,1.415c-0.062,0.542-0.261,1.571-0.417,2.34c-0.332,1.633-0.477,2.689-0.533,3.367
					c0.209-0.261,0.384-0.52,0.522-0.774c0.219-0.401,0.456-0.918,0.727-1.58c0.164-0.403,0.315-0.779,0.445-1.12
					c0.242-1.171,0.707-2.338,1.383-3.47c1.405-2.359,3.334-3.77,5.735-4.193c0.34-0.06,0.674-0.091,0.991-0.091
					c0.804,0,1.534,0.193,2.169,0.574c0.835,0.501,1.393,1.222,1.627,2.098c0.048-0.131,0.097-0.258,0.148-0.381
					c0.523-1.271,1.162-2.138,1.954-2.652c0.72-0.469,1.683-0.805,2.943-1.027c0.084-0.015,0.163-0.021,0.237-0.021
					c0.635,0,1.157,0.442,1.269,1.075c0.072,0.401-0.038,0.812-0.325,1.222c-0.015,0.021-0.03,0.041-0.046,0.061
					c-0.418,0.521-1.044,1.637-1.654,3.996c-0.431,1.655-0.598,3.041-0.498,4.13c0.267-0.305,0.63-0.816,1.083-1.673
					c0.839-1.591,1.432-3.146,1.763-4.621l0.208-1.009c0.081-0.396,0.139-0.676,0.175-0.827c0.048-0.2,0.119-0.447,0.211-0.738
					c0.128-0.422,0.276-0.733,0.461-0.967l0.009-0.013c0.085-0.112,0.214-0.282,0.379-0.471c0.281-0.329,0.583-0.561,0.915-0.701
					c0.611-0.244,1.243-0.476,1.882-0.589l1.266-0.223c0.068-0.012,0.137-0.018,0.204-0.018c0.447,0,0.863,0.255,1.061,0.669
					c0.227,0.477,0.109,1.046-0.289,1.393c-0.129,0.113-0.587,0.637-1.054,2.659c-0.266,1.21-0.507,2.472-0.713,3.737
					c-0.179,1.104-0.294,1.782-0.337,2.038c-0.001,0.006-0.005,0.029-0.006,0.035c-0.041,0.22-0.13,0.782-0.274,1.718
					c-0.157,0.994-0.276,1.688-0.375,2.186c-0.29,1.675-0.719,3.015-1.312,4.094c-0.606,1.102-1.448,2.06-2.504,2.846
					c-1.075,0.792-2.224,1.299-3.421,1.51c-0.477,0.084-0.943,0.127-1.385,0.127c-0.69,0-1.344-0.104-1.944-0.308
					c-1.199-0.409-1.984-1.337-2.209-2.614c-0.126-0.715-0.019-1.403,0.319-2.045c0.488-0.929,1.193-1.23,1.698-1.319
					c0.191-0.034,0.381-0.051,0.563-0.051c0.382,0,0.742,0.074,1.072,0.22c0.458,0.203,0.823,0.483,1.086,0.83
					c0.206,0.274,0.283,0.623,0.21,0.958c-0.052,0.239-0.177,0.454-0.354,0.616c0.001,0.069,0.009,0.175,0.035,0.325
					c0.008,0.042,0.016,0.058,0.016,0.059c0.033,0.017,0.082,0.038,0.178,0.038c0.046,0,0.098-0.005,0.154-0.015
					c1.347-0.237,2.054-2.289,2.415-4.059c-0.3,0.274-0.578,0.473-0.842,0.609c-0.482,0.247-1.06,0.431-1.719,0.547
					c-0.177,0.031-0.354,0.047-0.526,0.047c-0.713,0-1.376-0.271-1.917-0.785c-0.291-0.273-0.53-0.606-0.722-1.005
					c-0.224,0.311-0.451,0.592-0.682,0.841c-1.318,1.37-2.764,2.195-4.314,2.468c-0.462,0.082-0.914,0.123-1.342,0.123
					c-1.031,0-1.969-0.237-2.787-0.705c-0.595-0.34-1.086-0.805-1.467-1.389c-0.4,0.654-0.85,1.265-1.344,1.822
					c-0.882,0.994-1.764,1.557-2.699,1.721c-0.235,0.041-0.464,0.062-0.68,0.062c-0.716,0-2.427-0.263-2.857-2.702
					c-0.258-1.464-0.002-4.147,0.808-8.421c-0.129,0.077-0.256,0.174-0.383,0.292c-0.35,0.326-0.657,0.773-0.91,1.331
					c-0.301,0.659-0.567,1.334-0.791,2.006c-0.217,0.651-0.397,1.401-0.533,2.229c-0.164,0.994-0.266,1.67-0.33,2.192
					c-0.02,0.166-0.042,0.33-0.063,0.494c-0.056,0.43-0.109,0.837-0.15,1.303c-0.109,1.249-0.17,1.938-1.087,2.098l-2.993,0.528
					c-0.068,0.012-0.136,0.018-0.204,0.018c-0.295,0-0.582-0.111-0.801-0.315c-0.044-0.04-0.084-0.084-0.12-0.13
					c-0.779,0.785-1.557,1.238-2.367,1.381c-0.197,0.035-0.392,0.052-0.578,0.052c-0.758,0-2.005-0.291-2.654-2.038
					c-0.902,0.931-1.96,1.782-3.163,2.539c-1.97,1.24-4.096,2.068-6.321,2.461C34.637,68.503,33.843,68.577,33.111,68.577z
					 M51.998,50.814c-0.024,0.134-0.072,0.266-0.143,0.388c-0.297,0.507-0.568,1.182-0.83,2.066
					c-0.291,0.989-0.517,1.801-0.681,2.391l-0.09,0.323c-0.147,0.525-0.305,1.285-0.483,2.321c-0.089,0.52-0.129,0.932-0.14,1.255
					c0.254-0.295,0.457-0.586,0.605-0.869c0.213-0.409,0.454-0.948,0.715-1.602c0.185-0.464,0.352-0.886,0.502-1.266l0.202-0.511
					c0.051-0.129,0.098-0.243,0.139-0.341c0.41-2.61,0.321-3.679,0.273-3.989C52.047,50.934,52.025,50.882,51.998,50.814z
					 M69.924,55.074c-0.039,0.523-0.024,0.988,0.047,1.389c0.226,1.282,0.678,1.286,0.949,1.286c0.001,0,0.002,0,0.003,0
					c0.101,0,0.214-0.011,0.336-0.032c0.61-0.108,1.232-0.488,1.851-1.131c0.717-0.747,1.309-1.555,1.758-2.403
					c0.208-0.395,0.423-0.865,0.642-1.407c-0.05,0.05-0.101,0.099-0.154,0.147c-1.134,1.043-2.569,1.724-4.266,2.023
					C70.658,55.02,70.275,55.063,69.924,55.074z M72.764,49.188c-0.311,0.176-0.749,0.55-1.294,1.328
					c-0.362,0.516-0.573,0.902-0.696,1.179c0.411-0.155,0.843-0.517,1.289-1.079C72.46,50.114,72.692,49.642,72.764,49.188z"/>
				<path fill="#105885" d="M41.003,42.865c0.92,0,1.709,0.138,2.365,0.413c1.122,0.471,1.774,1.211,1.951,2.219
					c0.065,0.371,0.057,0.798-0.029,1.278c-0.179,0.903-0.667,1.721-1.461,2.454c-0.794,0.733-1.673,1.187-2.642,1.357
					c-0.161,0.029-0.314,0.043-0.459,0.043c-0.261,0-0.495-0.046-0.704-0.14c-0.324-0.146-0.511-0.371-0.566-0.68
					c-0.055-0.309,0.011-0.659,0.196-1.053c0.111,0.019,0.227,0.029,0.347,0.029c0.142,0,0.291-0.013,0.447-0.041
					c0.803-0.141,1.495-0.55,2.076-1.226c0.581-0.675,0.803-1.403,0.665-2.186c-0.171-0.967-0.792-1.451-1.866-1.451
					c-0.251,0-0.527,0.026-0.828,0.079c-2.099,0.37-4.022,1.453-5.763,3.245c-1.742,1.791-3.025,3.944-3.844,6.456
					c-0.819,2.512-1.021,4.951-0.604,7.317c0.557,3.156,2.112,4.736,4.665,4.736c0.409,0,0.845-0.041,1.306-0.122
					c2.08-0.367,4.138-1.557,6.183-3.573c2.044-2.016,3.281-4.029,3.711-6.035c0.201-0.843,0.461-1.721,0.783-2.625
					c0.504-1.362,1.182-2.21,2.066-2.366l1.534-0.33l0.309-0.055c-0.26,0.444-0.591,1.139-0.943,2.327
					c-0.351,1.192-0.608,2.129-0.776,2.731c-0.168,0.603-0.336,1.432-0.509,2.438c-0.173,1.006-0.205,1.819-0.099,2.417
					c0.095,0.537,0.307,0.81,0.632,0.81c0.037,0,0.075-0.003,0.115-0.01c0.266-0.047,0.612-0.295,1.032-0.739
					c0.419-0.444,0.75-0.892,0.988-1.348s0.492-1.026,0.765-1.711c0.273-0.685,0.507-1.279,0.705-1.78
					c0.072-0.18,0.133-0.33,0.184-0.446c0.347-2.162,0.433-3.729,0.287-4.555c-0.036-0.205-0.057-0.145-0.187-0.52l1.297-0.229
					c0.28-0.05,0.526-0.07,0.734-0.07c0.328,0,0.566,0.051,0.707,0.118c0.229,0.103,0.375,0.32,0.418,0.567
					c0.044,0.247,0.024,0.792-0.069,1.592c1.438-1.953,3.036-3.07,4.784-3.379c0.189-0.033,0.365-0.05,0.528-0.05
					c0.852,0,1.357,0.452,1.515,1.349c0.062,0.351,0.073,0.707,0.031,1.077c-0.042,0.37-0.173,1.117-0.401,2.239
					c-0.501,2.464-0.68,4.087-0.542,4.871c0.077,0.436,0.264,0.654,0.563,0.654c0.04,0,0.081-0.004,0.124-0.011
					c0.266-0.047,0.612-0.299,1.029-0.755c0.417-0.456,0.75-0.912,1-1.37s0.508-1.025,0.783-1.698
					c0.183-0.45,0.349-0.865,0.49-1.236c0.209-1.071,0.626-2.136,1.259-3.195c1.228-2.063,2.873-3.276,4.93-3.639
					c0.275-0.048,0.537-0.073,0.787-0.073c0.592,0,1.113,0.136,1.564,0.406c0.641,0.384,1.021,0.918,1.141,1.598
					c0.204,1.154-0.177,2.176-1.146,3.067c-0.969,0.891-2.192,1.469-3.674,1.73c-0.431,0.076-0.81,0.114-1.139,0.114
					c-0.33,0-0.608-0.039-0.835-0.116c-0.205,1.118-0.238,2.079-0.097,2.882c0.265,1.505,0.968,2.257,2.109,2.257
					c0.17,0,0.35-0.017,0.54-0.05c0.864-0.152,1.697-0.645,2.494-1.474c0.797-0.829,1.448-1.72,1.949-2.668
					c0.432-0.82,0.886-1.927,1.353-3.315c-0.001-0.004,0.003-0.008,0.002-0.012c0.194-1.133,0.452-2.085,0.77-2.857
					c0.423-1.03,0.924-1.735,1.506-2.112c0.578-0.376,1.415-0.664,2.507-0.856c0.012-0.002,0.023-0.003,0.034-0.003
					c0.061,0,0.1,0.036,0.112,0.105c0.014,0.081-0.029,0.196-0.131,0.341c-0.715,0.89-1.341,2.369-1.876,4.437
					c-0.539,2.069-0.69,3.763-0.457,5.079c0.112,0.636,0.333,0.956,0.669,0.956c0.033,0,0.067-0.003,0.103-0.009
					c0.741-0.131,1.556-1.038,2.449-2.724c0.889-1.685,1.515-3.323,1.871-4.914c0.045-0.219,0.112-0.541,0.197-0.958
					c0.086-0.417,0.146-0.71,0.182-0.864c0.037-0.154,0.098-0.371,0.187-0.654c0.086-0.282,0.174-0.48,0.262-0.591
					c0.084-0.11,0.2-0.266,0.352-0.44c0.148-0.173,0.31-0.317,0.488-0.392c0.573-0.228,1.111-0.423,1.629-0.514l1.266-0.223
					c-0.573,0.499-1.043,1.62-1.427,3.28c-0.307,1.395-0.545,2.687-0.728,3.813c-0.183,1.127-0.298,1.807-0.339,2.05
					c-0.045,0.243-0.137,0.824-0.28,1.752c-0.147,0.929-0.267,1.643-0.369,2.15c-0.263,1.531-0.656,2.778-1.187,3.743
					c-0.53,0.965-1.257,1.785-2.175,2.469c-0.923,0.68-1.897,1.114-2.923,1.295c-0.412,0.073-0.806,0.109-1.181,0.109
					c-0.563,0-1.085-0.082-1.565-0.246c-0.8-0.273-1.278-0.841-1.431-1.705c-0.08-0.456-0.013-0.885,0.202-1.293
					c0.215-0.408,0.503-0.646,0.862-0.709c0.124-0.022,0.244-0.033,0.359-0.033c0.216,0,0.415,0.039,0.596,0.119
					c0.276,0.122,0.483,0.277,0.623,0.463c-0.349,0.189-0.458,0.654-0.327,1.395c0.069,0.39,0.263,0.678,0.583,0.868
					c0.228,0.133,0.484,0.2,0.769,0.2c0.115,0,0.234-0.011,0.359-0.033c1.667-0.294,2.801-2.034,3.41-5.217l0.932-5.003
					c-0.754,1.386-1.431,2.445-2.035,3.176c-0.603,0.731-1.094,1.196-1.474,1.39c-0.38,0.194-0.843,0.34-1.388,0.436
					c-0.11,0.019-0.218,0.029-0.322,0.029c-0.414,0-0.783-0.153-1.107-0.461c-0.41-0.385-0.683-1.006-0.822-1.861
					c-0.081-0.483-0.106-1.1-0.071-1.846c-0.225,0.505-0.521,1.083-0.886,1.744c-0.42,0.755-0.852,1.372-1.297,1.852
					c-1.13,1.174-2.347,1.878-3.655,2.109c-0.397,0.07-0.776,0.105-1.138,0.105c-0.829,0-1.563-0.184-2.204-0.55
					c-0.92-0.526-1.503-1.482-1.746-2.86c-0.035-0.197-0.062-0.395-0.081-0.595c-0.24,0.556-0.47,1.058-0.696,1.512
					c-0.479,0.964-1.061,1.838-1.751,2.617c-0.691,0.778-1.363,1.227-2.023,1.344c-0.168,0.029-0.327,0.045-0.476,0.045
					c-0.931,0-1.496-0.576-1.699-1.73c-0.236-1.339,0.062-4.161,0.895-8.467c0.048-0.2,0.056-0.404,0.02-0.608
					c-0.062-0.354-0.283-0.53-0.659-0.53c-0.083,0-0.175,0.009-0.274,0.026c-0.544,0.096-1.051,0.36-1.516,0.792
					c-0.465,0.432-0.858,0.999-1.18,1.704c-0.321,0.705-0.599,1.411-0.836,2.121c-0.237,0.71-0.43,1.512-0.578,2.41
					c-0.148,0.898-0.264,1.642-0.337,2.24s-0.157,1.162-0.217,1.837c-0.059,0.679-0.099,1.04-0.118,1.043l-2.995,0.528
					c0,0,0.155-1.492,0.592-3.753c-0.109,0.238-0.21,0.503-0.315,0.716c-0.479,0.964-1.057,1.858-1.748,2.636
					c-0.691,0.778-1.361,1.239-2.021,1.355c-0.13,0.023-0.255,0.035-0.374,0.035c-0.936,0-1.528-0.71-1.779-2.134
					c-0.085-0.483-0.141-0.978-0.164-1.495c-0.034,0.054-0.069,0.108-0.107,0.162c-1.075,1.602-2.542,2.983-4.394,4.149
					c-1.852,1.166-3.818,1.931-5.898,2.297c-0.77,0.136-1.487,0.204-2.155,0.204c-3.526,0-5.625-1.895-6.293-5.686
					c-0.301-1.71-0.234-3.56,0.198-5.558c0.432-1.998,1.157-3.909,2.173-5.732c1.016-1.822,2.405-3.421,4.169-4.794
					c1.763-1.374,3.591-2.225,5.486-2.559C39.63,42.935,40.35,42.865,41.003,42.865 M70.208,52.974c0.152,0,0.327-0.018,0.524-0.052
					c0.783-0.138,1.53-0.664,2.253-1.575c0.719-0.911,1.044-1.82,0.969-2.718c-0.09-0.511-0.353-0.765-0.786-0.765
					c-0.074,0-0.153,0.008-0.237,0.022c-0.803,0.141-1.611,0.793-2.425,1.956c-0.814,1.162-1.166,2.052-1.057,2.67
					C69.504,52.821,69.756,52.974,70.208,52.974 M89.378,44.21h0.002 M41.003,40.514L41.003,40.514
					c-0.787,0-1.651,0.082-2.569,0.244c-2.269,0.4-4.464,1.416-6.522,3.02c-2.005,1.562-3.613,3.414-4.778,5.504
					c-1.126,2.021-1.939,4.167-2.417,6.38c-0.495,2.291-0.567,4.466-0.215,6.463c0.867,4.92,3.925,7.629,8.609,7.629
					c0.801,0,1.663-0.081,2.563-0.239c2.375-0.419,4.644-1.301,6.743-2.623c0.817-0.515,1.574-1.071,2.265-1.667
					c0.739,0.868,1.777,1.346,2.925,1.346c0.255,0,0.518-0.024,0.782-0.07c0.793-0.14,1.545-0.49,2.274-1.063
					c0.259,0.095,0.533,0.144,0.811,0.144c0.136,0,0.272-0.012,0.408-0.036l2.995-0.528c0.525-0.093,1.768-0.505,1.972-2.321
					c0.022-0.193,0.048-0.465,0.08-0.834c0.029-0.329,0.065-0.633,0.104-0.94c0.413,1.655,1.629,3.291,3.934,3.291
					c0.285,0,0.583-0.027,0.884-0.08c1.189-0.21,2.325-0.916,3.374-2.099c0.205-0.231,0.403-0.47,0.593-0.716
					c0.258,0.214,0.515,0.386,0.756,0.523c0.999,0.571,2.133,0.86,3.371,0.86c0.496,0,1.016-0.047,1.546-0.141
					c0.667-0.118,1.314-0.32,1.941-0.607c-0.064,0.451-0.056,0.914,0.025,1.375c0.303,1.718,1.364,2.969,2.988,3.523
					c0.723,0.246,1.505,0.371,2.324,0.371c0.51,0,1.044-0.049,1.589-0.145c1.377-0.243,2.692-0.821,3.91-1.718
					c1.2-0.893,2.153-1.977,2.841-3.229c0.655-1.193,1.126-2.647,1.438-4.445c0.101-0.51,0.222-1.215,0.38-2.214
					c0.141-0.92,0.232-1.486,0.269-1.692c0.002-0.012,0.004-0.023,0.006-0.035c0.041-0.244,0.157-0.929,0.341-2.064
					c0.201-1.237,0.437-2.473,0.701-3.673c0.348-1.498,0.653-1.973,0.715-2.057c0.473-0.43,0.771-1.051,0.771-1.74
					c0-1.246-0.968-2.265-2.192-2.346c-0.053-0.003-0.106-0.005-0.159-0.005c-0.051,0-0.103,0.002-0.155,0.005
					c-0.102,0.007-0.201,0.019-0.299,0.039l-1.221,0.215c-0.744,0.131-1.445,0.388-2.091,0.645c-0.015,0.006-0.03,0.012-0.045,0.019
					c-0.5,0.211-0.942,0.545-1.35,1.019c-0.098,0.112-0.183,0.216-0.255,0.307c-0.455-0.545-1.136-0.883-1.886-0.883
					c-0.147,0-0.296,0.013-0.442,0.039c-1.419,0.25-2.525,0.643-3.382,1.201c-0.596,0.386-1.117,0.915-1.571,1.6
					c-0.268-0.256-0.571-0.486-0.909-0.689c-0.82-0.492-1.753-0.741-2.774-0.741c-0.385,0-0.787,0.036-1.195,0.108
					c-2.753,0.485-4.954,2.084-6.542,4.752c-0.011,0.018-0.021,0.035-0.031,0.053c-0.407-1.934-1.849-3.127-3.799-3.127
					c-0.299,0-0.614,0.029-0.936,0.086c-1.247,0.22-2.423,0.726-3.519,1.512c-0.07-0.039-0.142-0.076-0.216-0.11
					c-0.478-0.223-1.048-0.337-1.697-0.337c-0.361,0-0.745,0.035-1.143,0.106l-1.297,0.229c-0.387,0.068-0.746,0.231-1.048,0.469
					c-0.236-0.078-0.484-0.118-0.736-0.118c-0.136,0-0.272,0.012-0.409,0.036l-0.309,0.055c-0.029,0.005-0.058,0.011-0.086,0.017
					l-1.499,0.323c-0.736,0.139-1.394,0.461-1.97,0.962c0.513-0.745,0.857-1.553,1.028-2.416c0.003-0.014,0.005-0.028,0.008-0.042
					c0.134-0.748,0.145-1.455,0.03-2.102c-0.316-1.79-1.508-3.203-3.357-3.978C43.336,40.714,42.234,40.514,41.003,40.514
					L41.003,40.514L41.003,40.514z M34.95,63.362c-0.695,0-1.857,0-2.35-2.793c-0.347-1.969-0.171-4.048,0.524-6.18
					c0.701-2.152,1.81-4.018,3.294-5.545c0.345-0.355,0.694-0.673,1.048-0.956c-0.348,0.795-0.457,1.579-0.324,2.33
					c0.189,1.073,0.888,1.954,1.917,2.416c0.512,0.23,1.073,0.347,1.668,0.347c0.28,0,0.572-0.026,0.868-0.078
					c1.412-0.249,2.7-0.903,3.828-1.945c0.05-0.046,0.099-0.093,0.147-0.139c-0.32,0.493-0.601,1.068-0.844,1.724
					c-0.003,0.009-0.007,0.018-0.01,0.027c-0.342,0.96-0.629,1.924-0.855,2.867c-0.004,0.018-0.008,0.035-0.012,0.053
					c-0.331,1.542-1.361,3.175-3.063,4.853c-1.688,1.665-3.351,2.652-4.94,2.932C35.523,63.333,35.221,63.362,34.95,63.362
					L34.95,63.362z M71.11,56.133c0.06-0.01,0.121-0.02,0.183-0.031c0.275-0.049,0.545-0.106,0.808-0.173
					c-0.258,0.244-0.584,0.495-0.913,0.596c-0.019-0.072-0.04-0.16-0.059-0.267C71.122,56.22,71.115,56.178,71.11,56.133
					L71.11,56.133z"/>
			</g>
		</g>
		<g>
			<path fill="#FFFFFF" d="M34.998,39.012l-0.687-0.283l0.076-0.184l-1.685-0.694l-0.076,0.184l-0.691-0.285l0.781-1.895
				l0.692-0.288l0.788,0.325l0.114,0.282l0.284-0.118l0.7,0.289l0.076-0.184l0.687,0.283l-0.422,1.024l-1.151-0.474l-0.131,0.058
				l-0.175,0.424l0.556,0.229l0.076-0.184l0.687,0.283L34.998,39.012z M35.391,37.848l-0.543-0.223l-0.076,0.184l-0.7-0.288
				l0.22-0.534l0.191-0.08l1.107,0.456l0.359-0.871l-0.542-0.224l-0.074,0.179l-0.739-0.305l-0.332,0.135l-0.141-0.329l-0.713-0.294
				l-0.63,0.262l-0.738,1.79l0.542,0.224l0.074-0.179l1.829,0.754l-0.074,0.179l0.542,0.224L35.391,37.848z M34.898,38.771
				l-0.35-0.144l0.074-0.179L32.6,37.614l-0.074,0.179l-0.35-0.144l0.678-1.646l0.567-0.232l0.617,0.254l0.167,0.391l0.394-0.16
				l0.792,0.327l0.076-0.184l0.35,0.144l-0.283,0.687l-1.05-0.433l-0.266,0.111l-0.274,0.665l0.888,0.366l0.076-0.184l0.35,0.144
				L34.898,38.771z M33.865,36.769l-0.113-0.272l-0.407-0.168l-0.261,0.112l-0.274,0.665l0.783,0.323L33.865,36.769z M33.534,37.298
				l-0.591-0.243l0.211-0.512l0.222-0.093l0.28,0.115l0.088,0.221L33.534,37.298z M33.664,36.773l-0.055-0.14l-0.245-0.101
				l-0.142,0.059l-0.173,0.42l0.442,0.182L33.664,36.773z"/>
			<path fill="#FFFFFF" d="M35.631,36.121l-1.965-1.102l-0.203-0.722l0.713-1.271l0.722-0.203l1.965,1.102l0.203,0.722l-0.713,1.271
				L35.631,36.121z M36.293,35.852l0.688-1.226l-0.181-0.644l-1.911-1.072l-0.657,0.185l-0.683,1.218l0.181,0.644l1.919,1.077
				L36.293,35.852z M35.644,35.916l-1.808-1.014l-0.167-0.593l0.627-1.118l0.593-0.167l1.808,1.014l0.167,0.593l-0.627,1.118
				L35.644,35.916z M36.059,35.292l0.32-0.569L36.3,34.446l-1.548-0.868l-0.283,0.08l-0.317,0.566l0.078,0.277l1.552,0.871
				L36.059,35.292z M35.777,35.253l-1.445-0.81l-0.063-0.226l0.259-0.462l0.226-0.063l1.445,0.81l0.063,0.226l-0.259,0.462
				L35.777,35.253z M35.944,35.13l0.236-0.421l-0.04-0.142l-1.407-0.79l-0.142,0.04l-0.238,0.425l0.04,0.142l1.403,0.787
				L35.944,35.13z"/>
			<path fill="#FFFFFF" d="M35.303,32.524l-0.592-0.457l0.961-1.243l0.592,0.457l-0.017,0.023l0.414-0.056l-0.05-0.415l-0.023,0.03
				l-0.592-0.457l0.935-1.21l0.592,0.457l-0.165,0.214l0.192,1.5l0.595,0.46l0.121-0.157l0.588,0.454l-0.796,1.03l-0.588-0.454
				l0.119-0.153l-0.595-0.461l-1.5,0.193L35.303,32.524z M35.45,32.201L37.017,32l0.682,0.527l-0.121,0.157l0.468,0.362l0.703-0.91
				l-0.468-0.362l-0.124,0.161l-0.682-0.527l-0.198-1.571l0.133-0.172l-0.464-0.359l-0.836,1.082l0.464,0.359l0.09-0.116
				l0.088,0.684l-0.684,0.088l0.084-0.109l-0.464-0.359l-0.863,1.116l0.464,0.359L35.45,32.201z M35.27,32.265l-0.3-0.232
				l0.735-0.951l0.3,0.232l-0.176,0.228l1.036-0.133l-0.133-1.036l-0.177,0.229l-0.3-0.232l0.712-0.921l0.3,0.232l-0.093,0.12
				l0.206,1.661l0.798,0.616l0.121-0.157l0.33,0.255l-0.576,0.745l-0.33-0.255l0.121-0.157l-0.798-0.616l-1.656,0.216L35.27,32.265z
				"/>
			<path fill="#FFFFFF" d="M39.253,31.578l-0.526-0.525l0.14-0.141l-0.863-1.716l-0.104,0.104l-0.53-0.528l1.243-1.247l0.53,0.528
				l-0.117,0.117l1.718,0.857l0.137-0.137l0.526,0.525l-0.895,0.898l-0.526-0.525l0.08-0.08l-0.147-0.073l-0.448,0.449l0.071,0.15
				l0.08-0.08l0.526,0.525L39.253,31.578z M40.035,30.68l-0.416-0.414l-0.087,0.087l-0.164-0.271l0.548-0.55l0.268,0.167
				l-0.087,0.087l0.416,0.414l0.785-0.788l-0.416-0.414l-0.134,0.134L38.9,28.185l0.131-0.131l-0.416-0.414l-1.13,1.133l0.416,0.414
				l0.114-0.114l0.953,1.846l-0.131,0.131l0.416,0.414L40.035,30.68z M39.253,31.317l-0.268-0.267l0.1-0.1l-1.037-2.057
				l-0.147,0.147l-0.268-0.267l0.986-0.989l0.268,0.267l-0.164,0.164l2.06,1.031l0.1-0.1l0.268,0.267l-0.638,0.64l-0.268-0.267
				l0.127-0.127l-0.486-0.243l-0.638,0.64l0.245,0.485l0.127-0.127l0.268,0.267L39.253,31.317z M39.624,29.288l-1.015-0.51
				l0.507,1.02L39.624,29.288z M39.163,29.617l-0.322-0.609l0.606,0.324L39.163,29.617z M39.323,29.335l-0.301-0.147l0.148,0.301
				L39.323,29.335z"/>
			<path fill="#FFFFFF" d="M41.519,29.338l-0.453-0.589l0.157-0.121l-1.11-1.445l-0.157,0.121L39.5,26.711l1.036-0.796l0.456,0.593
				l-0.157,0.121l1.11,1.445l0.473-0.363l-0.121-0.157l0.593-0.456l0.574,0.747L41.519,29.338z M43.35,27.829l-0.473-0.615
				l-0.465,0.358l0.118,0.154l-0.604,0.464l-1.208-1.572l0.162-0.124l-0.358-0.465l-0.908,0.698l0.358,0.465l0.157-0.121
				l1.205,1.569l-0.154,0.118l0.357,0.466L43.35,27.829z M41.553,29.079l-0.231-0.3l0.154-0.118l-1.332-1.734l-0.154,0.118
				l-0.231-0.3l0.747-0.574l0.231,0.3l-0.157,0.121l1.332,1.734l0.758-0.582l-0.121-0.157l0.304-0.234l0.352,0.458L41.553,29.079z"
				/>
			<path fill="#FFFFFF" d="M45.808,26.421l-0.301-0.679l0.182-0.081l-0.739-1.666l-0.182,0.081l-0.303-0.684l1.873-0.831l0.7,0.269
				l0.346,0.779l-0.111,0.287l0.287,0.111l0.392,0.883l-0.269,0.7L45.808,26.421z M47.619,25.529l0.245-0.637l-0.365-0.822
				l-0.325-0.125l0.125-0.325l-0.323-0.727l-0.637-0.245l-1.769,0.785l0.238,0.536l0.177-0.079l0.803,1.808l-0.177,0.079
				l0.238,0.536L47.619,25.529z M45.902,26.177l-0.154-0.346l0.177-0.079l-0.887-1.999l-0.177,0.079l-0.153-0.346l1.622-0.72
				l0.575,0.221l0.275,0.619L47.028,24l0.393,0.152l0.324,0.731l-0.221,0.575L45.902,26.177z M46.542,24.014l0.104-0.269
				l-0.179-0.403l-0.269-0.104l-0.658,0.292l0.344,0.774L46.542,24.014z M45.933,24.17l-0.259-0.584l0.506-0.225l0.225,0.087
				l0.121,0.273l-0.087,0.225L45.933,24.17z M46.389,23.879l0.055-0.144l-0.105-0.238l-0.144-0.055l-0.415,0.184l0.194,0.437
				L46.389,23.879z M47.085,25.238l0.104-0.269l-0.225-0.506l-0.269-0.104l-0.658,0.292l0.39,0.878L47.085,25.238z M46.476,25.394
				l-0.307-0.692l0.506-0.225l0.225,0.087l0.169,0.381l-0.087,0.225L46.476,25.394z M46.934,25.108l0.055-0.144l-0.156-0.35
				l-0.144-0.055l-0.415,0.184l0.244,0.549L46.934,25.108z"/>
			<path fill="#FFFFFF" d="M48.192,25.343l-0.213-0.712l0.19-0.057l0.059-1.919l-0.141,0.042l-0.214-0.717l1.687-0.504l0.214,0.717
				l-0.159,0.047l1.102,1.573l0.186-0.056l0.213,0.712l-1.215,0.363l-0.213-0.712l0.109-0.033l-0.094-0.135l-0.608,0.182
				l-0.01,0.166l0.109-0.033l0.213,0.712L48.192,25.343z M49.307,24.926l-0.168-0.562l-0.118,0.035l-0.015-0.317l0.744-0.222
				l0.156,0.275l-0.118,0.035l0.168,0.562l1.066-0.318l-0.168-0.562l-0.181,0.054l-1.174-1.714l0.177-0.053l-0.168-0.562
				l-1.533,0.458l0.168,0.562l0.154-0.046l-0.041,2.077l-0.177,0.053l0.168,0.562L49.307,24.926z M48.316,25.113l-0.108-0.363
				l0.136-0.041l0.068-2.302l-0.2,0.06l-0.109-0.363l1.338-0.4l0.109,0.363l-0.222,0.067l1.32,1.888l0.136-0.04l0.108,0.363
				l-0.866,0.259l-0.109-0.363l0.172-0.051l-0.311-0.445l-0.866,0.259l-0.015,0.543l0.172-0.051l0.109,0.363L48.316,25.113z
				 M49.609,23.507l-0.649-0.932l-0.04,1.138L49.609,23.507z M49.047,23.576l0.007-0.689l0.379,0.573L49.047,23.576z M49.322,23.405
				l-0.195-0.273l-0.013,0.335L49.322,23.405z"/>
			<path fill="#FFFFFF" d="M51.131,23.94l-0.101-0.626l0.897-0.145l0.05,0.308l0.13,0.089l0.467-0.076l0.091-0.12l-0.052-0.322
				l-0.119-0.082l-0.958,0.155l-0.608-0.439l-0.157-0.967l0.439-0.608l1.439-0.233l0.608,0.439l0.104,0.645l-0.902,0.146
				l-0.053-0.327l-0.119-0.086l-0.486,0.078l-0.082,0.119l0.054,0.332l0.119,0.086l0.963-0.156l0.608,0.439l0.153,0.948
				l-0.439,0.608l-1.439,0.232L51.131,23.94z M51.75,24.295l1.392-0.225l0.392-0.538l-0.148-0.916l-0.536-0.383l-0.963,0.156
				l-0.185-0.138l-0.06-0.369l0.132-0.189l0.519-0.084l0.19,0.137l0.043,0.266l0.743-0.12l-0.088-0.547l-0.537-0.388l-1.402,0.227
				l-0.388,0.537l0.15,0.93l0.537,0.388l0.958-0.155l0.189,0.132l0.057,0.355l-0.142,0.191l-0.509,0.083l-0.19-0.137l-0.04-0.248
				l-0.743,0.12l0.085,0.528L51.75,24.295z M51.299,23.822l-0.058-0.36l0.537-0.087l0.035,0.215l0.233,0.168l0.645-0.104
				l0.168-0.238l-0.076-0.467l-0.24-0.177L51.6,22.924l-0.505-0.364l-0.127-0.785l0.36-0.499l1.262-0.204l0.505,0.369l0.06,0.369
				l-0.542,0.088l-0.036-0.224l-0.24-0.177l-0.64,0.104l-0.168,0.233l0.08,0.495l0.233,0.168l0.953-0.154l0.505,0.369l0.124,0.766
				l-0.356,0.499l-1.276,0.206L51.299,23.822z"/>
			<path fill="#FFFFFF" d="M53.791,24.025l-0.018-0.743l0.199-0.005l-0.044-1.822l-0.199,0.005l-0.018-0.748l1.306-0.031
				l0.018,0.748l-0.199,0.005l0.011,0.468l0.457-0.48l-0.08,0.002l-0.018-0.748l1.571-0.038l0.018,0.748l-0.275,0.007l-0.877,0.921
				l0.945,0.9l0.251-0.006l0.018,0.743l-1.571,0.038l-0.018-0.743l0.09-0.002l-0.329-0.314l-0.148,0.155l0.004,0.17l0.199-0.005
				l0.018,0.743L53.791,24.025z M55.019,23.915l-0.014-0.587l-0.203,0.005l-0.007-0.265l0.231-0.242l0.514,0.489l-0.189,0.005
				l0.014,0.587l1.405-0.034l-0.014-0.587l-0.199,0.005l-1.022-0.974l0.956-1.003l0.222-0.005l-0.014-0.587l-1.41,0.034l0.014,0.587
				l0.189-0.005l-0.72,0.756l-0.018-0.738l0.199-0.005l-0.014-0.587l-1.145,0.028l0.014,0.587l0.194-0.005l0.048,1.978l-0.194,0.005
				l0.014,0.587L55.019,23.915z M53.972,23.836l-0.009-0.379l0.194-0.005l-0.053-2.186l-0.194,0.005L53.9,20.892l0.941-0.023
				l0.009,0.379l-0.199,0.005l0.026,1.098l1.071-1.124l-0.35,0.008l-0.009-0.379l1.207-0.029l0.009,0.379l-0.199,0.005l-1.067,1.119
				l1.119,1.067l0.199-0.005l0.009,0.379L55.462,23.8l-0.009-0.379l0.355-0.008l-0.78-0.748l-0.332,0.354l0.01,0.421l0.204-0.005
				l0.009,0.379L53.972,23.836z"/>
			<path fill="#FFFFFF" d="M57.088,23.97l0.076-0.739l0.198,0.02l0.185-1.813l-0.198-0.02l0.076-0.744l2.42,0.248l-0.09,0.876
				l-0.739-0.076l0.013-0.132l-0.579-0.059l-0.055,0.532l0.132,0.013l0.013-0.127l0.744,0.076l-0.102,0.998l-0.744-0.076
				l0.013-0.127l-0.132-0.013l-0.055,0.537l0.579,0.059l0.014-0.137l0.739,0.076l-0.089,0.876L57.088,23.97z M59.436,24.129
				l0.073-0.716l-0.584-0.06l-0.013,0.132l-0.734-0.075l0.071-0.697l0.292,0.03l-0.013,0.132l0.584,0.06l0.086-0.838l-0.584-0.06
				L58.6,22.169l-0.292-0.03l0.072-0.697l0.734,0.075L59.1,21.65l0.584,0.06l0.073-0.716l-2.26-0.231l-0.06,0.584l0.193,0.02
				l-0.201,1.968l-0.193-0.02l-0.06,0.584L59.436,24.129z M57.291,23.805l0.039-0.377l0.193,0.02l0.222-2.175l-0.193-0.02
				l0.039-0.377l2.057,0.211l-0.052,0.509l-0.381-0.039l0.013-0.132l-0.937-0.096l-0.092,0.899l0.494,0.051l0.013-0.132l0.376,0.039
				l-0.066,0.64l-0.376-0.039l0.013-0.132l-0.494-0.051l-0.092,0.899l0.937,0.096l0.013-0.132l0.381,0.039l-0.052,0.509
				L57.291,23.805z"/>
			<path fill="#FFFFFF" d="M60.113,21.903l0.211-0.918l2.726,0.628l-0.211,0.918l-0.729-0.168l0.044-0.189l-0.189-0.044
				l-0.409,1.776l0.189,0.044l-0.167,0.724l-1.273-0.293l0.167-0.724l0.194,0.045l0.409-1.776l-0.194-0.045l-0.044,0.189
				L60.113,21.903z M60.775,21.978l0.045-0.194l0.35,0.081l-0.444,1.928l-0.194-0.045l-0.132,0.572l1.121,0.258l0.132-0.572
				l-0.194-0.045l0.444-1.928l0.35,0.081l-0.045,0.194l0.567,0.131l0.176-0.765l-2.569-0.592l-0.176,0.765L60.775,21.978z
				 M60.333,21.769l0.13-0.563l2.371,0.546l-0.13,0.563l-0.373-0.086l0.045-0.194l-0.544-0.125l-0.491,2.131l0.189,0.044
				l-0.085,0.369l-0.918-0.211l0.085-0.369l0.194,0.045l0.491-2.131l-0.553-0.128l-0.045,0.194L60.333,21.769z"/>
			<path fill="#FFFFFF" d="M65.215,25.353l1.027-2.005l0.713-0.23l1.298,0.664l0.23,0.713l-0.336,0.657l-0.813-0.417l0.19-0.371
				l-0.045-0.14l-0.434-0.222l-0.14,0.045l-0.734,1.432l0.047,0.147l0.43,0.22l0.14-0.045l0.181-0.354l0.813,0.417l-0.326,0.636
				l-0.713,0.23l-1.298-0.665L65.215,25.353z M65.511,26.01l1.251,0.641l0.631-0.203l0.283-0.552l-0.67-0.343l-0.153,0.299
				l-0.223,0.072l-0.463-0.237l-0.072-0.223l0.751-1.466l0.223-0.072l0.464,0.237l0.072,0.223l-0.166,0.324l0.67,0.343l0.295-0.577
				l-0.205-0.637l-1.26-0.645l-0.633,0.208l-1.003,1.959L65.511,26.01z M65.42,25.357l0.945-1.845l0.586-0.189l1.142,0.585
				l0.189,0.586l-0.214,0.417l-0.489-0.25l0.145-0.282l-0.09-0.28l-0.577-0.296l-0.274,0.088l-0.811,1.584l0.088,0.274l0.577,0.296
				l0.28-0.09l0.136-0.265l0.497,0.255l-0.205,0.4l-0.586,0.189l-1.15-0.589L65.42,25.357z"/>
			<path fill="#FFFFFF" d="M67.358,27.055l0.417-0.615l0.164,0.111l1.023-1.508l-0.164-0.111l0.42-0.619l1.081,0.733l-0.42,0.619
				l-0.164-0.112l-1.023,1.508l0.493,0.335l0.111-0.164l0.619,0.42l-0.529,0.78L67.358,27.055z M69.365,28.32l0.436-0.642
				l-0.486-0.329l-0.109,0.161l-0.631-0.428l1.113-1.641l0.168,0.114l0.329-0.486l-0.948-0.643l-0.33,0.486l0.164,0.111
				l-1.111,1.637l-0.161-0.109l-0.329,0.486L69.365,28.32z M67.614,27.006l0.213-0.313l0.161,0.109l1.227-1.81l-0.161-0.109
				l0.213-0.313l0.779,0.529l-0.213,0.313l-0.164-0.112l-1.227,1.81l0.791,0.536l0.112-0.164l0.317,0.215l-0.324,0.478
				L67.614,27.006z"/>
			<path fill="#FFFFFF" d="M71.061,26.462l0.49-0.564l0.986,0.856l-0.49,0.564l-0.15-0.131l-1.127,1.297l0.01,0.147l0.368,0.32
				l0.147-0.01l1.127-1.297l-0.15-0.131l0.49-0.564l0.99,0.86l-0.49,0.564l-0.153-0.133l-1.335,1.536l-0.744,0.056l-1.101-0.956
				l-0.052-0.748l1.335-1.536L71.061,26.462z M71.321,26.581l-1.375,1.583l0.046,0.661l1.079,0.937l0.654-0.046l1.378-1.587
				l0.147,0.127l0.385-0.443l-0.865-0.751l-0.385,0.443l0.154,0.133l-1.189,1.368l-0.237,0.013L70.72,28.68l-0.017-0.24l1.186-1.365
				l0.15,0.131l0.385-0.443l-0.865-0.751l-0.385,0.443L71.321,26.581z M71.321,26.444l0.248-0.286l0.711,0.618l-0.248,0.286
				l-0.15-0.131l-1.301,1.497l0.02,0.287l0.489,0.425l0.294-0.021l1.298-1.493l-0.15-0.131l0.248-0.286l0.711,0.618l-0.248,0.286
				l-0.15-0.131l-1.397,1.608l-0.614,0.043l-0.964-0.838l-0.044-0.621l1.394-1.604L71.321,26.444z"/>
			<path fill="#FFFFFF" d="M71.714,30.448l0.557-0.492l0.131,0.149l1.366-1.206l-0.132-0.149l0.56-0.495l1.357,1.536l-0.046,0.748
				l-0.638,0.564l-0.307-0.019l-0.019,0.307l-0.724,0.639l-0.748-0.046L71.714,30.448z M73.109,31.906l0.681,0.042l0.674-0.595
				l0.022-0.347l0.347,0.022l0.596-0.526l0.042-0.681l-1.282-1.451l-0.44,0.389l0.128,0.145l-1.483,1.31l-0.129-0.145l-0.44,0.388
				L73.109,31.906z M71.974,30.464l0.284-0.251l0.129,0.145l1.639-1.448l-0.128-0.145l0.284-0.251l1.175,1.33l-0.038,0.615
				l-0.507,0.448l-0.421-0.026l-0.026,0.421l-0.599,0.53l-0.615-0.038L71.974,30.464z M73.226,31.309l0.287,0.018l0.415-0.366
				l0.018-0.287l-0.476-0.539l-0.72,0.636L73.226,31.309z M72.894,30.776l0.568-0.501l0.367,0.415l-0.015,0.241l-0.312,0.276
				l-0.241-0.015L72.894,30.776z M73.305,31.126l0.153,0.009l0.287-0.254l0.009-0.154l-0.301-0.34l-0.451,0.398L73.305,31.126z
				 M74.23,30.423l0.287,0.018l0.33-0.291l0.018-0.287l-0.477-0.539l-0.635,0.561L74.23,30.423z M73.898,29.889l0.479-0.423
				l0.367,0.415l-0.015,0.241l-0.223,0.197l-0.241-0.015L73.898,29.889z M74.312,30.237l0.153,0.009l0.195-0.172l0.009-0.154
				l-0.301-0.34l-0.358,0.317L74.312,30.237z"/>
		</g>
	</g>
</g>
</svg>
