<?xml version="1.0" encoding="utf-8"?>
<!-- Generator: Adobe Illustrator 17.0.0, SVG Export Plug-In . SVG Version: 6.00 Build 0)  -->
<!DOCTYPE svg PUBLIC "-//W3C//DTD SVG 1.1//EN" "http://www.w3.org/Graphics/SVG/1.1/DTD/svg11.dtd">
<svg version="1.1"
	 id="Calque_1" xmlns:cc="http://creativecommons.org/ns#" xmlns:dc="http://purl.org/dc/elements/1.1/" xmlns:inkscape="http://www.inkscape.org/namespaces/inkscape" xmlns:sodipodi="http://sodipodi.sourceforge.net/DTD/sodipodi-0.dtd" xmlns:svg="http://www.w3.org/2000/svg" xmlns:rdf="http://www.w3.org/1999/02/22-rdf-syntax-ns#"
	 xmlns="http://www.w3.org/2000/svg" xmlns:xlink="http://www.w3.org/1999/xlink" x="0px" y="0px" width="102px" height="82.49px"
	 viewBox="0 1.499 102 82.49" enable-background="new 0 1.499 102 82.49" xml:space="preserve">
<g transform="translate(0,-952.36218)">
	<path d="M50.993,954.863c-0.749,0.013-1.51,0.28-2.248,0.762L2.404,992.21c-1.19,1.182-2.027,3.727-0.8,5.297
		c1.227,1.57,3.808,1.781,5.297,0.457l44.093-34.794l44.093,34.794c1.49,1.323,4.125,1.154,5.297-0.457
		c1.029-1.414,0.776-4.119-0.8-5.297l-46.341-36.585C52.48,955.089,51.742,954.849,50.993,954.863z M21.725,990.571l-7.317,5.793
		v35.328c0,2.02,1.638,3.658,3.659,3.659h23.171c2.02,0,3.658-1.638,3.659-3.659v-20.732h12.195v20.732
		c0,2.02,1.638,3.658,3.659,3.659H83.92c2.02,0,3.658-1.638,3.659-3.659v-35.328l-7.317-5.793v37.462H64.408v-20.732
		c0-2.02-1.638-3.658-3.659-3.659H41.237c-2.02,0-3.658,1.638-3.659,3.659v20.732H21.725V990.571z"/>
</g>
</svg>
