<?xml version="1.0" encoding="utf-8"?>
<!-- Generator: Adobe Illustrator 17.0.0, SVG Export Plug-In . SVG Version: 6.00 Build 0)  -->
<!DOCTYPE svg PUBLIC "-//W3C//DTD SVG 1.1//EN" "http://www.w3.org/Graphics/SVG/1.1/DTD/svg11.dtd">
<svg version="1.1"
	 id="Calque_1" xmlns:svg="http://www.w3.org/2000/svg" xmlns:cc="http://creativecommons.org/ns#" xmlns:sodipodi="http://sodipodi.sourceforge.net/DTD/sodipodi-0.dtd" xmlns:rdf="http://www.w3.org/1999/02/22-rdf-syntax-ns#" xmlns:dc="http://purl.org/dc/elements/1.1/" xmlns:inkscape="http://www.inkscape.org/namespaces/inkscape"
	 xmlns="http://www.w3.org/2000/svg" xmlns:xlink="http://www.w3.org/1999/xlink" x="0px" y="0px" width="62.362px"
	 height="90.709px" viewBox="3.154 5.646 62.362 90.709" enable-background="new 3.154 5.646 62.362 90.709" xml:space="preserve">
<g>
	<path fill="#105885" d="M62.682,36.827c0,4.023-0.609,7.328-1.828,9.911L40.702,89.59c-0.59,1.217-1.467,2.176-2.629,2.878
		c-1.163,0.701-2.408,1.052-3.737,1.052c-1.329,0-2.575-0.351-3.738-1.052c-1.163-0.702-2.021-1.661-2.574-2.878L7.816,46.737
		c-1.219-2.583-1.828-5.887-1.828-9.911c0-7.825,2.768-14.505,8.304-20.042c5.537-5.536,12.217-8.304,20.043-8.304
		c7.825,0,14.504,2.768,20.041,8.304C59.914,22.321,62.682,29.003,62.682,36.827z M44.356,46.848
		c2.769-2.768,4.153-6.108,4.153-10.021c0-3.912-1.384-7.253-4.153-10.021s-6.109-4.153-10.02-4.153
		c-3.913,0-7.254,1.384-10.022,4.153s-4.152,6.109-4.152,10.021c0,3.913,1.384,7.253,4.152,10.021S30.423,51,34.335,51
		C38.247,51,41.587,49.616,44.356,46.848z"/>
</g>
</svg>
