<?xml version="1.0" encoding="utf-8"?>
<!-- Generator: Adobe Illustrator 17.0.0, SVG Export Plug-In . SVG Version: 6.00 Build 0)  -->
<!DOCTYPE svg PUBLIC "-//W3C//DTD SVG 1.1//EN" "http://www.w3.org/Graphics/SVG/1.1/DTD/svg11.dtd">
<svg version="1.1" id="Calque_1" xmlns="http://www.w3.org/2000/svg" xmlns:xlink="http://www.w3.org/1999/xlink" x="0px" y="0px"
	 width="90.709px" height="90.709px" viewBox="0 0 90.709 90.709" enable-background="new 0 0 90.709 90.709" xml:space="preserve">
<title>l4</title>
<g>
	<path fill="#105885" d="M15.312,69.367c-0.893,2.082-0.451,4.402,1.162,6.041c2.993,3.05,6.428,5.618,10.185,7.613
		c5.73,3.042,12.071,4.703,18.534,4.853l0,0c0.349,0,0.699-0.023,1.048-0.023c7.884,0,15.581-2.334,22.326-6.714
		c6.989-4.509,12.489-11.041,15.793-18.753c2.536-5.909,3.726-12.323,3.483-18.764C87.133,23.675,72.62,6.808,53.332,3.514
		c-13.949-2.383-26.29,1.507-36.679,11.559c-1.141,1.103-1.78,2.519-1.805,3.989c-0.016,1.42,0.533,2.785,1.523,3.787
		c2.093,2.173,5.385,2.123,7.65-0.111c5.006-4.938,10.863-7.918,17.399-8.856c9.182-1.32,17.433,1.012,24.52,6.938
		c6.273,5.239,10.012,12.011,11.112,20.129c1.739,12.826-4.309,25.352-15.404,31.912c-5.566,3.289-11.665,4.683-18.135,4.143
		c-7.24-0.605-13.623-3.51-18.969-8.636l-0.025-0.023c-0.981-0.948-2.22-2.128-4.137-2.158
		C18.082,66.157,16.184,67.343,15.312,69.367z"/>
	<path fill="#105885" d="M49.774,42.901l-3.952-2.316l-3.187-1.868l-2.797-1.649c-2.126-1.249-4.318-2.542-6.496-3.804
		c-1.289-0.749-2.234-0.43-2.682-0.168s-1.213,0.921-1.244,2.45c0,0.241-0.04,0.483-0.038,0.726c0,0.117-0.035,0.234-0.035,0.351
		v3.314h-7.486c-1.39,0-2.776-0.048-4.163-0.048c-3.51,0-7.142-0.027-10.708-0.017c-2.408,0-4.114,1.718-4.152,4.177
		c0,0.506,0,1.004,0,1.494c0,0.206,0,0.409,0,0.614c0,2.98,1.61,4.6,4.527,4.6c5.663,0,11.326-0.02,16.988-0.02h4.996v0.444
		c0,1.242,0.035,2.444,0.038,3.644c0,1.639,0.69,2.362,1.244,2.7c0.338,0.194,0.719,0.294,1.106,0.29
		c0.637-0.023,1.256-0.217,1.795-0.562c5.39-3.159,10.87-6.374,16.277-9.555c1.34-0.788,1.623-1.73,1.623-2.381
		S51.147,43.702,49.774,42.901z"/>
</g>
</svg>
