<?xml version="1.0" encoding="utf-8"?>
<!-- Generator: Adobe Illustrator 17.0.0, SVG Export Plug-In . SVG Version: 6.00 Build 0)  -->
<!DOCTYPE svg PUBLIC "-//W3C//DTD SVG 1.1//EN" "http://www.w3.org/Graphics/SVG/1.1/DTD/svg11.dtd">
<svg version="1.1"
	 id="Calque_1" xmlns:svg="http://www.w3.org/2000/svg" xmlns:cc="http://creativecommons.org/ns#" xmlns:sodipodi="http://sodipodi.sourceforge.net/DTD/sodipodi-0.dtd" xmlns:rdf="http://www.w3.org/1999/02/22-rdf-syntax-ns#" xmlns:dc="http://purl.org/dc/elements/1.1/" xmlns:inkscape="http://www.inkscape.org/namespaces/inkscape"
	 xmlns="http://www.w3.org/2000/svg" xmlns:xlink="http://www.w3.org/1999/xlink" x="0px" y="0px" width="133.228px"
	 height="90.709px" viewBox="-15.614 -11.794 133.228 90.709" enable-background="new -15.614 -11.794 133.228 90.709"
	 xml:space="preserve">
<g transform="translate(0,-952.36218)">
	<path fill="#105885" d="M-3.741,943.403c-4.923,0-9.039,4.076-9.039,9.112v66.816c0,5.036,4.116,9.112,9.039,9.112h109.481
		c4.923,0,9.039-4.076,9.039-9.112v-66.816c0-5.036-4.116-9.112-9.039-9.112L-3.741,943.403L-3.741,943.403z M-2.211,949.477
		h106.423l-50.615,46.315c-1.262,1.154-3.929,1.154-5.192,0L-2.211,949.477z M-6.847,953.368l37.034,33.883l-37.034,31.414V953.368z
		 M108.847,953.368v65.297l-37.034-31.414L108.847,953.368z M34.684,991.379l9.78,8.921c3.709,3.394,9.362,3.394,13.071,0
		l9.78-8.921l36.571,30.988H-1.887L34.684,991.379L34.684,991.379z"/>
</g>
</svg>
