<?xml version="1.0" encoding="utf-8"?>
<!-- Generator: Adobe Illustrator 17.0.0, SVG Export Plug-In . SVG Version: 6.00 Build 0)  -->
<!DOCTYPE svg PUBLIC "-//W3C//DTD SVG 1.1//EN" "http://www.w3.org/Graphics/SVG/1.1/DTD/svg11.dtd">
<svg version="1.1"
	 id="Calque_1" xmlns:cc="http://creativecommons.org/ns#" xmlns:dc="http://purl.org/dc/elements/1.1/" xmlns:inkscape="http://www.inkscape.org/namespaces/inkscape" xmlns:sodipodi="http://sodipodi.sourceforge.net/DTD/sodipodi-0.dtd" xmlns:svg="http://www.w3.org/2000/svg" xmlns:rdf="http://www.w3.org/1999/02/22-rdf-syntax-ns#"
	 xmlns="http://www.w3.org/2000/svg" xmlns:xlink="http://www.w3.org/1999/xlink" x="0px" y="0px" width="102px" height="67.12px"
	 viewBox="14.6 16.598 102 67.12" enable-background="new 14.6 16.598 102 67.12" xml:space="preserve">
<g transform="translate(0,-952.36218)">
	<path d="M22.686,969.962c-3.859,0-7.086,3.121-7.086,6.977v51.163c0,3.856,3.227,6.977,7.086,6.977h85.828
		c3.859,0,7.086-3.121,7.086-6.977v-51.163c0-3.856-3.227-6.977-7.086-6.977H22.686z M23.885,974.613h83.43l-39.68,35.465
		c-0.989,0.884-3.08,0.884-4.07,0L23.885,974.613z M20.251,977.593l29.033,25.945l-29.033,24.055V977.593z M110.949,977.593v50
		l-29.033-24.055L110.949,977.593z M52.809,1006.699l7.667,6.831c2.908,2.599,7.339,2.599,10.247,0l7.667-6.831l28.67,23.728H24.139
		L52.809,1006.699L52.809,1006.699z"/>
</g>
</svg>
