<?xml version="1.0" encoding="utf-8"?>
<!-- Generator: Adobe Illustrator 17.0.0, SVG Export Plug-In . SVG Version: 6.00 Build 0)  -->
<!DOCTYPE svg PUBLIC "-//W3C//DTD SVG 1.1//EN" "http://www.w3.org/Graphics/SVG/1.1/DTD/svg11.dtd">
<svg version="1.1"
	 id="Calque_1" xmlns:dc="http://purl.org/dc/elements/1.1/" xmlns:cc="http://creativecommons.org/ns#" xmlns:rdf="http://www.w3.org/1999/02/22-rdf-syntax-ns#" xmlns:inkscape="http://www.inkscape.org/namespaces/inkscape" xmlns:sodipodi="http://sodipodi.sourceforge.net/DTD/sodipodi-0.dtd" xmlns:svg="http://www.w3.org/2000/svg"
	 xmlns="http://www.w3.org/2000/svg" xmlns:xlink="http://www.w3.org/1999/xlink" x="0px" y="0px" width="107.895px" height="100px"
	 viewBox="-3.947 -10 107.895 100" enable-background="new -3.947 -10 107.895 100" xml:space="preserve">
<g transform="translate(0,-952.36218)">
	<path d="M18.421,942.362c-2.268-0.013-3.904,2.286-3.947,3.947v22.368H0c-2.192,0-3.904,2.284-3.947,3.947v56.579
		c0,7.071,5.69,12.876,12.706,13.117c0.15,0.022,0.301,0.036,0.452,0.041h81.579c7.221,0,13.158-5.937,13.158-13.158V946.31
		c0-2.067-1.881-3.947-3.947-3.947L18.421,942.362L18.421,942.362z M22.368,950.257h73.684v78.947c0,2.984-2.279,5.263-5.263,5.263
		H21.217c0.722-1.623,1.151-3.384,1.151-5.263V950.257L22.368,950.257z M31.579,955.52c-2.149,0.076-3.904,2.284-3.947,3.947v18.421
		c0,2.067,1.881,3.947,3.947,3.947h26.316c2.067,0,3.947-1.881,3.947-3.947v-18.421c0-2.067-1.881-3.947-3.947-3.947H31.579z
		 M71.053,958.152c-2.18,0-3.947,1.767-3.947,3.947c0,2.18,1.767,3.947,3.947,3.947h15.789c2.18,0,3.947-1.767,3.947-3.947
		c0-2.18-1.767-3.947-3.947-3.947H71.053z M35.526,963.415h18.421v10.526H35.526V963.415z M71.053,971.31
		c-2.18,0-3.947,1.767-3.947,3.947c0,2.18,1.767,3.947,3.947,3.947h15.789c2.18,0,3.947-1.767,3.947-3.947
		c0-2.18-1.767-3.947-3.947-3.947H71.053z M3.947,976.573h10.526v52.632c0,2.984-2.279,5.263-5.263,5.263s-5.263-2.279-5.263-5.263
		V976.573L3.947,976.573z M31.579,987.099c-2.18,0-3.947,1.767-3.947,3.947c0,2.18,1.767,3.947,3.947,3.947h55.263
		c2.18,0,3.947-1.767,3.947-3.947c0-2.18-1.767-3.947-3.947-3.947H31.579z M31.579,1001.573c-2.18,0-3.947,1.767-3.947,3.947
		c0,2.18,1.767,3.947,3.947,3.947h55.263c2.18,0,3.947-1.767,3.947-3.947c0-2.18-1.767-3.947-3.947-3.947H31.579z M31.579,1016.047
		c-2.18,0-3.947,1.767-3.947,3.947c0,2.18,1.767,3.947,3.947,3.947h55.263c2.18,0,3.947-1.767,3.947-3.947
		c0-2.18-1.767-3.947-3.947-3.947L31.579,1016.047L31.579,1016.047z"/>
</g>
</svg>
