<?xml version="1.0" encoding="utf-8"?>
<!-- Generator: Adobe Illustrator 17.0.0, SVG Export Plug-In . SVG Version: 6.00 Build 0)  -->
<!DOCTYPE svg PUBLIC "-//W3C//DTD SVG 1.1//EN" "http://www.w3.org/Graphics/SVG/1.1/DTD/svg11.dtd">
<svg version="1.1" id="Calque_1" xmlns="http://www.w3.org/2000/svg" xmlns:xlink="http://www.w3.org/1999/xlink" x="0px" y="0px"
	 width="102px" height="102px" viewBox="0 0 102 102" enable-background="new 0 0 102 102" xml:space="preserve">
<g>
	<path fill="#323335" d="M101,79.976c0,1.279-0.239,2.947-0.712,5.007c-0.472,2.059-0.969,3.682-1.491,4.865
		c-0.994,2.368-3.884,4.877-8.666,7.528c-4.45,2.415-8.852,3.622-13.209,3.622c-1.277,0-2.52-0.082-3.729-0.249
		c-1.209-0.165-2.57-0.461-4.083-0.888c-1.516-0.426-2.641-0.769-3.374-1.03c-0.733-0.259-2.048-0.746-3.943-1.456
		c-1.892-0.71-3.051-1.136-3.48-1.279c-4.639-1.656-8.781-3.621-12.429-5.894c-6.06-3.74-12.321-8.842-18.784-15.305
		S15.535,62.174,11.795,56.113c-2.273-3.646-4.238-7.788-5.894-12.429c-0.142-0.426-0.569-1.585-1.279-3.48
		c-0.71-1.893-1.196-3.207-1.456-3.941c-0.261-0.733-0.604-1.858-1.03-3.374c-0.426-1.515-0.722-2.876-0.888-4.084
		C1.082,27.598,1,26.355,1,25.076c0-4.356,1.207-8.759,3.622-13.21c2.651-4.782,5.16-7.67,7.528-8.664
		c1.183-0.52,2.806-1.018,4.865-1.491C19.075,1.237,20.744,1,22.023,1c0.663,0,1.16,0.071,1.491,0.213
		c0.852,0.284,2.106,2.084,3.764,5.397c0.52,0.9,1.23,2.179,2.13,3.836c0.9,1.658,1.728,3.16,2.486,4.509s1.491,2.617,2.202,3.8
		c0.142,0.19,0.555,0.781,1.243,1.775c0.686,0.994,1.195,1.836,1.526,2.521c0.331,0.687,0.497,1.362,0.497,2.024
		c0,0.948-0.674,2.131-2.024,3.551c-1.349,1.421-2.817,2.723-4.404,3.907c-1.587,1.184-3.054,2.439-4.403,3.764
		c-1.35,1.326-2.024,2.414-2.024,3.266c0,0.426,0.117,0.959,0.355,1.598c0.236,0.639,0.437,1.126,0.604,1.457
		c0.165,0.332,0.497,0.9,0.994,1.704c0.497,0.806,0.769,1.255,0.817,1.349c3.597,6.488,7.717,12.051,12.357,16.69
		c4.639,4.641,10.204,8.76,16.689,12.357c0.096,0.048,0.544,0.32,1.352,0.817c0.805,0.497,1.373,0.829,1.703,0.994
		c0.332,0.166,0.817,0.367,1.457,0.604c0.64,0.238,1.171,0.355,1.597,0.355c0.851,0,1.942-0.674,3.269-2.024
		c1.324-1.349,2.579-2.816,3.763-4.403c1.184-1.586,2.486-3.054,3.906-4.404s2.604-2.024,3.552-2.024
		c0.662,0,1.336,0.166,2.023,0.497c0.687,0.332,1.529,0.84,2.523,1.526c0.994,0.687,1.585,1.101,1.774,1.243
		c1.184,0.711,2.452,1.445,3.8,2.202c1.349,0.757,2.852,1.586,4.512,2.486c1.656,0.9,2.933,1.61,3.834,2.13
		c3.312,1.658,5.114,2.912,5.397,3.764C100.929,78.816,101,79.313,101,79.976z"/>
</g>
</svg>
