<?xml version="1.0" encoding="utf-8"?>
<!-- Generator: Adobe Illustrator 17.0.0, SVG Export Plug-In . SVG Version: 6.00 Build 0)  -->
<!DOCTYPE svg PUBLIC "-//W3C//DTD SVG 1.1//EN" "http://www.w3.org/Graphics/SVG/1.1/DTD/svg11.dtd">
<svg version="1.1"
	 id="Calque_1" xmlns:dc="http://purl.org/dc/elements/1.1/" xmlns:cc="http://creativecommons.org/ns#" xmlns:sodipodi="http://sodipodi.sourceforge.net/DTD/sodipodi-0.dtd" xmlns:inkscape="http://www.inkscape.org/namespaces/inkscape" xmlns:svg="http://www.w3.org/2000/svg" xmlns:rdf="http://www.w3.org/1999/02/22-rdf-syntax-ns#"
	 xmlns="http://www.w3.org/2000/svg" xmlns:xlink="http://www.w3.org/1999/xlink" x="0px" y="0px" width="102px" height="82.43px"
	 viewBox="0 0 102 82.43" enable-background="new 0 0 102 82.43" xml:space="preserve">
<g transform="translate(0,-952.36218)">
	<path d="M50.157,962.762c-0.849,0.011-1.592,0.613-1.868,1.053l-6.997,11.99H25.157c-6.586,0-11.957,5.37-11.957,11.957v43.478
		c0,6.586,5.37,11.957,11.957,11.957h76.087c6.586,0,11.957-5.37,11.957-11.957v-43.478c0-6.586-5.37-11.957-11.957-11.957H85.109
		l-6.997-11.99c-0.386-0.641-1.121-1.055-1.868-1.053C76.243,962.762,50.157,962.762,50.157,962.762z M51.379,967.11H75.02
		l6.963,11.957c0.377,0.653,1.114,1.082,1.868,1.087h17.391c4.253,0,7.609,3.356,7.609,7.609v43.478
		c0,4.253-3.356,7.609-7.609,7.609H25.157c-4.253,0-7.609-3.356-7.609-7.609v-43.478c0-4.253,3.356-7.609,7.609-7.609h17.391
		c0.754-0.011,1.491-0.434,1.868-1.087L51.379,967.11z M96.896,985.588c-2.976,0-5.435,2.459-5.435,5.435s2.459,5.435,5.435,5.435
		s5.435-2.459,5.435-5.435C102.33,988.047,99.871,985.588,96.896,985.588z M63.2,988.849c11.432,0,20.652,9.221,20.652,20.652
		c0,11.432-9.22,20.652-20.652,20.652s-20.652-9.221-20.652-20.652C42.548,998.07,51.768,988.849,63.2,988.849z M96.896,989.936
		c0.626,0,1.087,0.461,1.087,1.087s-0.461,1.087-1.087,1.087s-1.087-0.461-1.087-1.087C95.809,990.397,96.27,989.936,96.896,989.936
		z M63.2,993.197c-8.979,0-16.304,7.326-16.304,16.304c0,8.979,7.326,16.304,16.304,16.304c8.979,0,16.304-7.325,16.304-16.304
		C79.504,1000.523,72.179,993.197,63.2,993.197z M63.2,997.545c6.629,0,11.957,5.327,11.957,11.957s-5.327,11.956-11.957,11.956
		s-11.957-5.327-11.957-11.956C51.243,1002.872,56.571,997.545,63.2,997.545z"/>
</g>
</svg>
