<?xml version="1.0" encoding="utf-8"?>
<!-- Generator: Adobe Illustrator 17.0.0, SVG Export Plug-In . SVG Version: 6.00 Build 0)  -->
<!DOCTYPE svg PUBLIC "-//W3C//DTD SVG 1.1//EN" "http://www.w3.org/Graphics/SVG/1.1/DTD/svg11.dtd">
<svg version="1.1" id="Calque_1" xmlns="http://www.w3.org/2000/svg" xmlns:xlink="http://www.w3.org/1999/xlink" x="0px" y="0px"
	 width="82.205px" height="90.709px" viewBox="0 0 82.205 90.709" enable-background="new 0 0 82.205 90.709" xml:space="preserve">
<g>
	<g>
		<path fill="#6D6D6D" d="M41.1,53.044c-13.909,0-25.225-11.262-25.225-25.105c0-13.844,11.316-25.105,25.225-25.105
			c13.911,0,25.227,11.262,25.227,25.106C66.326,41.782,55.01,53.044,41.1,53.044z"/>
	</g>
	<g>
		<path fill="#6D6D6D" d="M8.308,87.874c-3.019-0.002-5.474-2.447-5.474-5.45v-15.07c-0.014-2.616,1.142-5.074,3.175-6.741
			c4.746-3.832,9.841-7.32,15.15-10.373c0.49-0.285,1.053-0.437,1.626-0.437c1.144,0,2.212,0.609,2.791,1.59
			c0.054,0.092,0.109,0.195,0.155,0.298l5.897,12.946l0.22,0.45c0.167,0.357,0.528,0.59,0.923,0.59h16.664
			c0.392,0,0.754-0.232,0.921-0.59l6.118-13.404c0.518-1.15,1.676-1.894,2.946-1.894c0.458,0,0.902,0.096,1.323,0.281
			c0.095,0.041,0.193,0.092,0.294,0.148c5.313,3.056,10.408,6.55,15.152,10.388c2.039,1.669,3.196,4.127,3.181,6.749v15.076
			c0,2.999-2.452,5.439-5.465,5.439H8.308V87.874z"/>
	</g>
</g>
</svg>
