<?xml version="1.0" encoding="utf-8"?>
<!-- Generator: Adobe Illustrator 17.0.0, SVG Export Plug-In . SVG Version: 6.00 Build 0)  -->
<!DOCTYPE svg PUBLIC "-//W3C//DTD SVG 1.1//EN" "http://www.w3.org/Graphics/SVG/1.1/DTD/svg11.dtd">
<svg version="1.1" id="Calque_1" xmlns="http://www.w3.org/2000/svg" xmlns:xlink="http://www.w3.org/1999/xlink" x="0px" y="0px"
	 width="89.568px" height="100px" viewBox="-5.131 0 89.568 100" enable-background="new -5.131 0 89.568 100" xml:space="preserve"
	>
<g>
	<g>
		<path d="M39.653,59.043c-16.278,0-29.521-13.243-29.521-29.521C10.132,13.243,23.375,0,39.653,0
			c16.28,0,29.523,13.243,29.523,29.523C69.174,45.8,55.931,59.043,39.653,59.043z"/>
	</g>
	<g>
		<path d="M1.276,100c-3.533-0.002-6.407-2.878-6.407-6.409V75.87c-0.017-3.076,1.337-5.967,3.716-7.927
			c5.554-4.506,11.517-8.608,17.73-12.198c0.573-0.335,1.232-0.514,1.903-0.514c1.339,0,2.588,0.716,3.266,1.87
			c0.063,0.109,0.128,0.229,0.181,0.351l6.901,15.224l0.257,0.529c0.196,0.42,0.618,0.694,1.08,0.694h19.502
			c0.459,0,0.882-0.272,1.078-0.694l7.16-15.762c0.607-1.352,1.962-2.227,3.448-2.227c0.536,0,1.056,0.113,1.548,0.331
			c0.111,0.048,0.226,0.109,0.344,0.174c6.218,3.594,12.181,7.702,17.732,12.215c2.386,1.962,3.74,4.853,3.723,7.937v17.728
			c0,3.527-2.869,6.396-6.396,6.396H1.276V100z"/>
	</g>
</g>
</svg>
