<?xml version="1.0" encoding="utf-8"?>
<!-- Generator: Adobe Illustrator 17.0.0, SVG Export Plug-In . SVG Version: 6.00 Build 0)  -->
<!DOCTYPE svg PUBLIC "-//W3C//DTD SVG 1.1//EN" "http://www.w3.org/Graphics/SVG/1.1/DTD/svg11.dtd">
<svg version="1.1" id="Calque_1" xmlns="http://www.w3.org/2000/svg" xmlns:xlink="http://www.w3.org/1999/xlink" x="0px" y="0px"
	 width="98.76px" height="102px" viewBox="14.164 2.994 98.76 102" enable-background="new 14.164 2.994 98.76 102"
	 xml:space="preserve">
<g>
	<path d="M67.163,35.079c0-1.997-1.624-3.619-3.621-3.619c-1.994,0-3.616,1.622-3.616,3.619v26.099c0,1.997,1.622,3.62,3.616,3.62
		c1.997,0,3.621-1.623,3.621-3.62V35.079z"/>
	<path d="M64.4,11.588V4.851c0-0.473-0.384-0.857-0.858-0.857c-0.471,0-0.854,0.382-0.854,0.857v6.736
		c-6.453,0.44-11.55,5.81-11.55,12.373c0,5.165,3.158,9.593,7.647,11.458v-0.341c0-2.625,2.134-4.76,4.757-4.76
		c2.625,0,4.761,2.134,4.761,4.76v0.34c4.489-1.867,7.647-6.294,7.647-11.458C75.95,17.397,70.852,12.028,64.4,11.588z
		 M63.542,22.564c-1.623,0-2.945-1.321-2.945-2.946c0-1.324,0.887-2.435,2.091-2.804v1.195c0,0.471,0.383,0.857,0.854,0.857
		c0.473,0,0.858-0.384,0.858-0.857v-1.195c1.204,0.369,2.09,1.48,2.09,2.804C66.49,21.243,65.169,22.564,63.542,22.564z"/>
	<path d="M104.159,60.361H87.563c-3.57,0-6.568,3.991-7.476,9.42l2.078,0.363l-20.966-0.667c-1.785,0.051-3.391,0.787-4.585,1.941
		c-0.601,0.619-1.103,1.331-1.492,2.109c-0.421,0.919-0.652,1.941-0.627,3.019c0.088,3.722,3.185,6.749,6.906,6.749l0.209-0.004
		l0.046,0.001l17.135,1.199l8.863-0.474l-7.725,1.187l-18.35,1.077L61.4,86.282c-5.331,0-9.768-4.336-9.893-9.666
		c-0.032-1.375,0.221-2.694,0.702-3.899L36.321,66.77c-4.347-1.628-8.796-0.48-9.935,2.562c-0.214,0.573-0.296,1.173-0.258,1.779
		l-0.953-0.29c-4.474-1.24-8.873,0.548-9.828,3.993c-0.941,3.401,1.834,7.141,6.214,8.426c-0.13,0.263-0.246,0.534-0.324,0.825
		c-0.922,3.325,1.958,7.027,6.432,8.267l17.186,5.204c4.319,3.929,11.651,6.458,22.011,6.458c10.945,0,20.747-3.138,26.669-7.692
		h10.625c4.287,0,7.764-5.752,7.764-12.849V73.21C111.923,66.113,108.447,60.361,104.159,60.361z"/>
</g>
</svg>
