<?xml version="1.0" encoding="utf-8"?>
<!-- Generator: Adobe Illustrator 17.0.0, SVG Export Plug-In . SVG Version: 6.00 Build 0)  -->
<!DOCTYPE svg PUBLIC "-//W3C//DTD SVG 1.1//EN" "http://www.w3.org/Graphics/SVG/1.1/DTD/svg11.dtd">
<svg version="1.1" id="Calque_1" xmlns="http://www.w3.org/2000/svg" xmlns:xlink="http://www.w3.org/1999/xlink" x="0px" y="0px"
	 width="79.329px" height="100px" viewBox="-42.489 -29.98 79.329 100" enable-background="new -42.489 -29.98 79.329 100"
	 xml:space="preserve">
<g>
	<g>
		<path d="M29.994,38.476c0-0.134,0-0.134,0-0.268v-58.255c0-5.503-4.43-9.933-9.933-9.933H-22.22c-5.503,0-9.933,4.43-9.933,9.933
			v2.282h-0.403c-5.503,0-9.933,4.43-9.933,9.933v58.255c0,5.503,4.43,9.933,9.933,9.933H3.417
			c2.953,5.638,8.859,9.664,15.705,9.664c9.799,0,17.718-7.919,17.718-17.718C36.706,46.664,34.155,41.698,29.994,38.476z
			 M-26.784-20.047c0-2.55,2.013-4.564,4.564-4.564h42.282c2.55,0,4.564,2.013,4.564,4.564v55.57
			c-1.611-0.537-3.221-0.805-4.966-0.94V-7.832c0-5.503-4.43-9.933-9.933-9.933h-36.51V-20.047z M4.223,42.772
			c-1.074,1.611-1.879,3.49-2.282,5.369c-0.268,1.342-0.537,2.685-0.537,4.161c0,0.94,0.134,1.745,0.268,2.685h-34.228
			c-2.55,0-4.564-2.013-4.564-4.564V-7.832c0-2.55,2.013-4.564,4.564-4.564h0.403h5.369h36.51c2.55,0,4.564,2.013,4.564,4.564
			v43.087C10.129,36.463,6.504,39.148,4.223,42.772z M19.122,64.517c-3.758,0-6.98-1.611-9.262-4.295
			c-0.671-0.805-1.342-1.745-1.745-2.685c-0.403-0.805-0.671-1.745-0.94-2.685c-0.134-0.805-0.268-1.745-0.268-2.685
			c0-1.477,0.268-2.819,0.805-4.161c0.805-2.148,2.148-4.027,3.758-5.369c0.94-0.671,1.879-1.342,2.953-1.745
			c0.805-0.403,1.745-0.671,2.685-0.805c0.671-0.134,1.342-0.134,2.148-0.134c0.268,0,0.403,0,0.537,0
			c1.477,0.134,2.819,0.403,4.027,0.94c1.745,0.671,3.221,1.745,4.43,3.087c2.013,2.148,3.221,5.101,3.221,8.322
			C31.337,59.013,25.833,64.517,19.122,64.517z"/>
		<polygon points="26.907,47.335 25.699,46.396 24.894,45.59 23.149,47.604 22.343,48.678 19.525,52.033 18.451,53.376 
			16.84,52.033 15.363,50.691 14.29,49.886 14.021,49.617 10.531,53.644 11.605,54.584 13.753,56.463 15.766,58.208 18.988,61.027 
			28.921,49.08 		"/>
		<polygon points="-30.677,-5.282 -30.677,-2.597 -30.677,0.087 -26.784,0.087 7.847,0.087 7.847,-5.282 -26.784,-5.282 		"/>
		<polygon points="-30.677,6.396 -30.677,9.08 -30.677,11.765 -26.784,11.765 7.847,11.765 7.847,6.396 -26.784,6.396 		"/>
		<polygon points="-30.677,18.074 -30.677,20.758 -30.677,23.443 -26.784,23.443 7.847,23.443 7.847,18.074 -26.784,18.074 		"/>
		<polygon points="-30.677,29.617 -30.677,32.302 -30.677,34.986 -26.784,34.986 7.847,34.986 7.847,29.617 -26.784,29.617 		"/>
		<polygon points="-30.677,41.295 -30.677,43.309 -30.677,43.98 -30.677,46.664 -27.321,46.664 -12.824,46.664 -12.824,42.772 
			-12.824,41.295 -25.576,41.295 		"/>
	</g>
</g>
</svg>
