<?xml version="1.0" encoding="utf-8"?>
<!-- Generator: Adobe Illustrator 17.0.0, SVG Export Plug-In . SVG Version: 6.00 Build 0)  -->
<!DOCTYPE svg PUBLIC "-//W3C//DTD SVG 1.1//EN" "http://www.w3.org/Graphics/SVG/1.1/DTD/svg11.dtd">
<svg version="1.1" id="Calque_1" xmlns="http://www.w3.org/2000/svg" xmlns:xlink="http://www.w3.org/1999/xlink" x="0px" y="0px"
	 width="79.37px" height="90.709px" viewBox="-42.511 -25.334 79.37 90.709" enable-background="new -42.511 -25.334 79.37 90.709"
	 xml:space="preserve">
<g>
	<g>
		<path fill="#105885" d="M27.665,35.715c0-0.114,0-0.114,0-0.228v-49.54c0-4.68-4.116-8.447-9.228-8.447h-39.282
			c-5.112,0-9.228,3.768-9.228,8.447v1.94h-0.374c-5.112,0-9.228,3.768-9.228,8.447v49.54c0,4.68,4.116,8.447,9.228,8.447H2.974
			c2.744,4.795,8.231,8.218,14.59,8.218c9.104,0,16.461-6.734,16.461-15.067C33.902,42.678,31.531,38.455,27.665,35.715z
			 M-25.085-14.053c0-2.169,1.87-3.882,4.241-3.882h39.283c2.369,0,4.241,1.712,4.241,3.882v47.257
			c-1.497-0.457-2.993-0.685-4.613-0.799V-3.665c0-4.68-4.116-8.447-9.228-8.447h-33.92v-1.94L-25.085-14.053L-25.085-14.053z
			 M3.723,39.368c-0.998,1.37-1.745,2.968-2.12,4.566c-0.249,1.141-0.499,2.284-0.499,3.538c0,0.799,0.125,1.484,0.249,2.284h-31.8
			c-2.369,0-4.241-1.712-4.241-3.882v-49.54c0-2.169,1.87-3.882,4.241-3.882h0.374h4.988h33.92c2.369,0,4.241,1.712,4.241,3.882
			v36.641C9.21,34.003,5.842,36.286,3.723,39.368z M17.565,57.86c-3.492,0-6.484-1.37-8.605-3.652
			c-0.623-0.685-1.247-1.484-1.622-2.284c-0.374-0.685-0.623-1.484-0.874-2.284c-0.125-0.685-0.249-1.484-0.249-2.284
			c0-1.256,0.249-2.397,0.748-3.538c0.748-1.826,1.996-3.424,3.492-4.566c0.874-0.571,1.745-1.141,2.744-1.484
			c0.748-0.342,1.622-0.571,2.494-0.685c0.623-0.114,1.247-0.114,1.996-0.114c0.249,0,0.374,0,0.499,0
			c1.372,0.114,2.619,0.342,3.741,0.799c1.622,0.571,2.993,1.484,4.116,2.625c1.87,1.826,2.993,4.338,2.993,7.077
			C28.913,53.18,23.8,57.86,17.565,57.86z"/>
		<polygon fill="#105885" points="24.797,43.249 23.675,42.451 22.927,41.765 21.307,43.478 20.558,44.391 17.939,47.244 
			16.941,48.386 15.445,47.244 14.072,46.103 13.076,45.418 12.826,45.189 9.583,48.614 10.581,49.413 12.577,51.011 14.447,52.495 
			17.44,54.893 26.669,44.732 		"/>
		<polygon fill="#105885" points="-28.701,-1.497 -28.701,0.786 -28.701,3.069 -25.085,3.069 7.09,3.069 7.09,-1.497 
			-25.085,-1.497 		"/>
		<polygon fill="#105885" points="-28.701,8.434 -28.701,10.716 -28.701,13 -25.085,13 7.09,13 7.09,8.434 -25.085,8.434 		"/>
		<polygon fill="#105885" points="-28.701,18.366 -28.701,20.647 -28.701,22.931 -25.085,22.931 7.09,22.931 7.09,18.366 
			-25.085,18.366 		"/>
		<polygon fill="#105885" points="-28.701,28.181 -28.701,30.465 -28.701,32.747 -25.085,32.747 7.09,32.747 7.09,28.181 
			-25.085,28.181 		"/>
		<polygon fill="#105885" points="-28.701,38.112 -28.701,39.825 -28.701,40.396 -28.701,42.678 -25.583,42.678 -12.115,42.678 
			-12.115,39.368 -12.115,38.112 -23.962,38.112 		"/>
	</g>
</g>
</svg>
