<?xml version="1.0" encoding="utf-8"?>
<!-- Generator: Adobe Illustrator 17.0.0, SVG Export Plug-In . SVG Version: 6.00 Build 0)  -->
<!DOCTYPE svg PUBLIC "-//W3C//DTD SVG 1.1//EN" "http://www.w3.org/Graphics/SVG/1.1/DTD/svg11.dtd">
<svg version="1.1" id="Calque_1" xmlns="http://www.w3.org/2000/svg" xmlns:xlink="http://www.w3.org/1999/xlink" x="0px" y="0px"
	 width="100px" height="98.609px" viewBox="-25.833 1.933 100 98.609" enable-background="new -25.833 1.933 100 98.609"
	 xml:space="preserve">
<path d="M21.558,33.542l0.435-1.87c0-2.391-1.957-4.348-4.348-4.348H-4.399l4-14.957v-0.087c0.391-1.435,0.043-3.043-1.13-4.174
	L-18.92,25.542l0,0c-1.609,1.565-2.565,3.739-2.565,6.13v17.391c0,4.783,3.913,8.696,8.696,8.696H4.601
	c3.478,0,6.522-2.043,7.87-4.957h-0.043L21.558,33.542 M4.601,62.107H-12.79c-7.217,0-13.043-5.826-13.043-13.043V31.672
	c0-3.609,1.478-6.87,3.826-9.217L-1.529,1.933L1.558,5.02c2.304,2.304,3.043,5.609,2.217,8.565l-2.522,9.391h16.391
	c4.783,0,8.696,3.913,8.696,8.696c0,1.478-0.348,2.87-1,4.087l-8.739,18.391C14.645,58.803,9.993,62.107,4.601,62.107
	 M26.775,68.933l-0.435,1.87c0,2.391,1.957,4.348,4.348,4.348h22.043l-4,14.957v0.087c-0.391,1.435-0.043,3.043,1.13,4.174
	l17.435-17.435h-0.043c1.609-1.565,2.565-3.739,2.565-6.13V53.412c0-4.783-3.913-8.696-8.696-8.696H43.732
	c-3.478,0-6.522,2.043-7.87,4.957h0.043L26.775,68.933 M43.732,40.368h17.391c7.217,0,13.043,5.826,13.043,13.043v17.391
	c0,3.609-1.435,6.87-3.826,9.217l-20.478,20.522l-3.087-3.087c-2.304-2.304-3.043-5.609-2.217-8.565l2.522-9.391H30.688
	c-4.783,0-8.696-3.913-8.696-8.696c0-1.478,0.391-2.87,1-4.087l8.739-18.391C33.688,43.672,38.341,40.368,43.732,40.368z"/>
</svg>
