<?xml version="1.0" encoding="utf-8"?>
<!-- Generator: Adobe Illustrator 17.0.0, SVG Export Plug-In . SVG Version: 6.00 Build 0)  -->
<!DOCTYPE svg PUBLIC "-//W3C//DTD SVG 1.1//EN" "http://www.w3.org/Graphics/SVG/1.1/DTD/svg11.dtd">
<svg version="1.1" id="Calque_1" xmlns="http://www.w3.org/2000/svg" xmlns:xlink="http://www.w3.org/1999/xlink" x="0px" y="0px"
	 width="100px" height="53.933px" viewBox="-5.348 0 100 53.933" enable-background="new -5.348 0 100 53.933" xml:space="preserve"
	>
<g>
	<g>
		<g>
			<circle cx="75.058" cy="12.893" r="12.727"/>
			<circle cx="14.248" cy="12.727" r="12.727"/>
			<path d="M93.184,30.616c-2.487-2.022-5.13-3.842-7.903-5.445c-0.035-0.02-0.071-0.038-0.108-0.055
				c-0.576-0.259-1.251-0.001-1.509,0.574l-3.221,7.096h-0.003c-0.174,0.376-0.552,0.638-0.994,0.638h-8.777
				c-0.441,0-0.82-0.262-0.994-0.638h-0.008l-3.217-7.096c-0.016-0.035-0.034-0.069-0.054-0.103
				c-0.319-0.544-1.019-0.727-1.563-0.408c-2.774,1.601-5.417,3.419-7.903,5.436c-0.157,0.129-0.286,0.283-0.419,0.432
				c0.077,0.026,0.157,0.042,0.233,0.076c0.082,0.037,0.161,0.078,0.235,0.121c3.223,1.863,6.318,3.995,9.206,6.343
				c1.373,1.13,2.156,2.798,2.145,4.571v1.89h0.26h12.937h10.808c1.281,0,2.32-1.039,2.32-2.32v-7.981
				C94.659,32.539,94.121,31.387,93.184,30.616z"/>
			<path d="M20.979,42.167c-0.009-1.779,0.773-3.448,2.152-4.583c2.881-2.338,5.976-4.468,9.192-6.323
				c0.188-0.11,0.389-0.191,0.596-0.25c-0.164-0.2-0.34-0.392-0.543-0.559c-2.486-2.018-5.13-3.835-7.903-5.436
				c-0.544-0.319-1.244-0.137-1.563,0.408c-0.02,0.034-0.038,0.068-0.054,0.103l-3.217,7.096h-0.008
				c-0.175,0.376-0.553,0.638-0.994,0.638H9.861c-0.442,0-0.821-0.262-0.994-0.638H8.863l-3.222-7.096
				c-0.259-0.576-0.934-0.833-1.509-0.574c-0.037,0.017-0.073,0.035-0.108,0.055c-2.774,1.604-5.416,3.423-7.903,5.445
				c-0.936,0.77-1.475,1.923-1.469,3.134v7.981c0,1.281,1.039,2.32,2.32,2.319H7.781h12.938h0.261V42.167z"/>
			<path d="M37.26,53.933h14.785h12.351c1.465,0,2.652-1.188,2.652-2.652v-9.12c0.008-1.385-0.609-2.702-1.679-3.582
				c-2.842-2.311-5.863-4.392-9.033-6.224c-0.04-0.024-0.081-0.044-0.123-0.063c-0.174-0.078-0.355-0.115-0.533-0.115
				c-0.498,0-0.974,0.287-1.191,0.771l-3.682,8.109h-0.003c-0.198,0.43-0.63,0.73-1.135,0.73H39.638c-0.504,0-0.936-0.3-1.135-0.73
				h-0.009l-3.676-8.109c-0.018-0.039-0.038-0.079-0.062-0.118c-0.243-0.414-0.68-0.645-1.128-0.645
				c-0.224,0-0.451,0.057-0.658,0.179c-3.17,1.83-6.191,3.907-9.033,6.214c-1.069,0.88-1.686,2.196-1.679,3.582v9.115
				c0,1.468,1.188,2.657,2.656,2.657H37.26z"/>
			<path d="M44.653,33.505c-8.372,0-15.184-6.811-15.184-15.184c0-8.374,6.811-15.185,15.184-15.185
				c8.374,0,15.185,6.811,15.185,15.185C59.837,26.694,53.025,33.505,44.653,33.505z"/>
		</g>
	</g>
</g>
</svg>
