<?xml version="1.0" encoding="utf-8"?>
<!-- Generator: Adobe Illustrator 17.0.0, SVG Export Plug-In . SVG Version: 6.00 Build 0)  -->
<!DOCTYPE svg PUBLIC "-//W3C//DTD SVG 1.1//EN" "http://www.w3.org/Graphics/SVG/1.1/DTD/svg11.dtd">
<svg version="1.1" id="Calque_1" xmlns="http://www.w3.org/2000/svg" xmlns:xlink="http://www.w3.org/1999/xlink" x="0px" y="0px"
	 width="164.409px" height="90.709px" viewBox="-37.551 -18.388 164.409 90.709"
	 enable-background="new -37.551 -18.388 164.409 90.709" xml:space="preserve">
<g>
	<g>
		<g>
			<ellipse fill="#105885" cx="92.916" cy="4.776" rx="20.202" ry="20.067"/>
			<ellipse fill="#105885" cx="-3.611" cy="4.514" rx="20.202" ry="20.067"/>
			<path fill="#105885" d="M121.689,32.721c-3.948-3.188-8.143-6.058-12.545-8.585c-0.056-0.032-0.113-0.06-0.171-0.087
				c-0.914-0.408-1.986-0.002-2.395,0.905l-5.113,11.189h-0.005c-0.276,0.593-0.876,1.006-1.578,1.006H85.949
				c-0.7,0-1.302-0.413-1.578-1.006h-0.013l-5.107-11.189c-0.025-0.055-0.054-0.109-0.086-0.162
				c-0.506-0.858-1.618-1.146-2.481-0.643c-4.403,2.524-8.599,5.391-12.545,8.571c-0.249,0.203-0.454,0.446-0.665,0.681
				c0.122,0.041,0.249,0.066,0.37,0.12c0.13,0.058,0.256,0.123,0.373,0.191c5.116,2.938,10.029,6.299,14.613,10.001
				c2.179,1.782,3.422,4.412,3.405,7.207v2.98h0.413h20.536h17.156c2.033,0,3.683-1.638,3.683-3.658V37.658
				C124.03,35.753,123.176,33.937,121.689,32.721z"/>
			<path fill="#105885" d="M7.074,50.934c-0.014-2.805,1.227-5.437,3.416-7.226c4.573-3.686,9.486-7.045,14.591-9.97
				c0.298-0.173,0.617-0.301,0.946-0.394c-0.26-0.315-0.54-0.618-0.862-0.881c-3.946-3.182-8.143-6.047-12.545-8.571
				c-0.864-0.503-1.975-0.216-2.481,0.643c-0.032,0.054-0.06,0.107-0.086,0.162L4.947,35.885H4.934
				c-0.278,0.593-0.878,1.006-1.578,1.006h-13.931c-0.702,0-1.303-0.413-1.578-1.006h-0.006l-5.114-11.189
				c-0.411-0.908-1.483-1.313-2.395-0.905c-0.059,0.027-0.116,0.055-0.171,0.087c-4.403,2.529-8.597,5.397-12.545,8.585
				c-1.486,1.214-2.341,3.032-2.332,4.942V49.99c0,2.02,1.649,3.658,3.683,3.657h17.158H6.661h0.414v-2.712H7.074z"/>
			<path fill="#105885" d="M32.917,69.486h23.469h19.605c2.325,0,4.21-1.873,4.21-4.182v-14.38c0.013-2.184-0.967-4.26-2.665-5.648
				c-4.511-3.644-9.307-6.925-14.339-9.814c-0.063-0.038-0.129-0.069-0.195-0.099c-0.276-0.123-0.564-0.181-0.846-0.181
				c-0.791,0-1.546,0.453-1.891,1.216l-5.845,12.786h-0.005c-0.314,0.678-1,1.151-1.802,1.151H36.692
				c-0.8,0-1.486-0.473-1.802-1.151h-0.014l-5.835-12.786c-0.029-0.061-0.06-0.125-0.098-0.186
				c-0.386-0.653-1.079-1.017-1.791-1.017c-0.356,0-0.716,0.09-1.044,0.282c-5.032,2.885-9.827,6.16-14.339,9.798
				c-1.697,1.388-2.676,3.463-2.665,5.648v14.372c0,2.315,1.886,4.189,4.216,4.189h19.597V69.486z"/>
			<path fill="#105885" d="M44.653,37.276c-13.289,0-24.102-10.739-24.102-23.942c0-13.204,10.811-23.943,24.102-23.943
				c13.292,0,24.104,10.739,24.104,23.943C68.755,26.537,57.942,37.276,44.653,37.276z"/>
		</g>
	</g>
</g>
</svg>
