<?xml version="1.0" encoding="utf-8"?>
<!-- Generator: Adobe Illustrator 17.0.0, SVG Export Plug-In . SVG Version: 6.00 Build 0)  -->
<!DOCTYPE svg PUBLIC "-//W3C//DTD SVG 1.1//EN" "http://www.w3.org/Graphics/SVG/1.1/DTD/svg11.dtd">
<svg version="1.1"
	 id="Calque_1" xmlns:cc="http://creativecommons.org/ns#" xmlns:dc="http://purl.org/dc/elements/1.1/" xmlns:inkscape="http://www.inkscape.org/namespaces/inkscape" xmlns:sodipodi="http://sodipodi.sourceforge.net/DTD/sodipodi-0.dtd" xmlns:svg="http://www.w3.org/2000/svg" xmlns:rdf="http://www.w3.org/1999/02/22-rdf-syntax-ns#"
	 xmlns="http://www.w3.org/2000/svg" xmlns:xlink="http://www.w3.org/1999/xlink" x="0px" y="0px" width="102px" height="102px"
	 viewBox="0 0 102 102" enable-background="new 0 0 102 102" xml:space="preserve">
<g transform="translate(0,-952.36218)">
	<path d="M51,953.362c-27.555,0-50,22.445-50,50c0,27.555,22.445,50,50,50s50-22.445,50-50C101,975.807,78.555,953.362,51,953.362z
		 M51,963.362c22.15,0,40,17.85,40,40c0,22.15-17.85,40-40,40s-40-17.85-40-40C11,981.212,28.85,963.362,51,963.362z M51,970.029
		c-2.761,0-5,2.239-5,5v28.333c0,1.381,0.554,2.637,1.458,3.542l17.708,17.656c1.953,1.953,5.078,1.953,7.031,0
		c1.953-1.953,1.953-5.079,0-7.031L56,1001.279v-26.25C56,972.268,53.761,970.029,51,970.029z"/>
</g>
</svg>
