<?xml version="1.0" encoding="utf-8"?>
<!-- Generator: Adobe Illustrator 17.0.0, SVG Export Plug-In . SVG Version: 6.00 Build 0)  -->
<!DOCTYPE svg PUBLIC "-//W3C//DTD SVG 1.1//EN" "http://www.w3.org/Graphics/SVG/1.1/DTD/svg11.dtd">
<svg version="1.1" id="Calque_1" xmlns="http://www.w3.org/2000/svg" xmlns:xlink="http://www.w3.org/1999/xlink" x="0px" y="0px"
	 width="82.205px" height="90.709px" viewBox="3.551 4.646 82.205 90.709" enable-background="new 3.551 4.646 82.205 90.709"
	 xml:space="preserve">
<title>Artboard 17</title>
<g>
	<ellipse fill="#105885" cx="44.653" cy="32.142" rx="24.78" ry="24.661"/>
	<g>
		<path fill="#FFFFFF" d="M23.294,39.948l1.986,1.976l2.052-2.043l2.051,2.043l1.987-1.976l-2.053-2.042l2.053-2.042L29.38,33.89
			l-2.051,2.042l-2.052-2.042l-1.987,1.975l2.052,2.042L23.294,39.948z M24.528,35.864l0.751-0.747l2.053,2.042l2.051-2.042
			l0.753,0.747l-2.052,2.042l2.053,2.042l-0.754,0.749l-2.051-2.043l-2.053,2.043l-0.753-0.749l2.052-2.042L24.528,35.864z"/>
		<path fill="#FFFFFF" d="M49.447,27.243l-1.986,1.975l2.052,2.043l-2.052,2.042l1.984,1.975l2.052-2.043l2.052,2.043l1.987-1.975
			l-2.053-2.042l2.053-2.043l-1.987-1.975l-2.052,2.042L49.447,27.243z M53.553,28.471l0.751,0.747l-2.055,2.042l2.055,2.042
			l-0.751,0.747l-2.053-2.043l-2.052,2.043l-0.751-0.747l2.052-2.042l-2.052-2.043l0.751-0.747l2.052,2.043L53.553,28.471z"/>
		<path fill="#FFFFFF" d="M43.992,37.428c-2.183,0-3.959,1.769-3.959,3.94s1.776,3.939,3.959,3.939c2.183,0,3.959-1.767,3.959-3.939
			C47.952,39.197,46.175,37.428,43.992,37.428z M43.992,44.44c-1.701,0-3.087-1.378-3.087-3.072c0-1.695,1.383-3.073,3.087-3.073
			c1.703,0,3.088,1.378,3.088,3.073C47.08,43.063,45.695,44.44,43.992,44.44z"/>
		<path fill="#FFFFFF" d="M61.685,27.755c2.182,0,3.959-1.767,3.959-3.939c0-2.173-1.777-3.942-3.959-3.942
			c-2.182,0-3.959,1.769-3.959,3.942C57.728,25.988,59.503,27.755,61.685,27.755z M61.685,20.743c1.701,0,3.087,1.378,3.087,3.073
			c0,1.692-1.385,3.071-3.087,3.071c-1.701,0-3.087-1.377-3.087-3.071C58.598,22.122,59.983,20.743,61.685,20.743z"/>
		<path fill="#FFFFFF" d="M29.821,31.472l-0.616-0.613l-1.741,1.733c-0.01-0.209-0.019-0.418-0.019-0.631
			c0-6.68,5.459-12.115,12.171-12.115c5.34,0,10.006,3.403,11.612,8.467l0.831-0.262c-1.719-5.428-6.72-9.075-12.442-9.075
			c-7.192,0-13.044,5.825-13.044,12.985c0,0.156,0.009,0.309,0.015,0.463l-1.573-1.566l-0.616,0.613l2.713,2.698L29.821,31.472z"/>
		<path fill="#FFFFFF" d="M60.635,31.43l0.689,0.532l1.502-1.93c0.109,0.635,0.168,1.28,0.168,1.929
			c0,6.295-5.145,11.416-11.471,11.416c-1.159,0-2.304-0.171-3.402-0.509l-0.259,0.83c1.18,0.363,2.411,0.549,3.659,0.549
			c6.807,0,12.343-5.51,12.343-12.284c0-0.633-0.056-1.262-0.15-1.884l1.765,1.362l0.535-0.687l-3.033-2.339L60.635,31.43z"/>
	</g>
	<g>
		<path fill="#105885" d="M11.861,92.52c-3.019-0.002-5.475-2.447-5.475-5.45V72c-0.015-2.616,1.142-5.074,3.175-6.741
			c4.746-3.832,9.841-7.32,15.15-10.373c0.49-0.285,1.053-0.437,1.626-0.437c1.144,0,2.211,0.609,2.791,1.59
			c0.054,0.093,0.109,0.195,0.155,0.298l5.897,12.946l0.22,0.45c0.167,0.357,0.528,0.59,0.923,0.59h16.664
			c0.392,0,0.754-0.231,0.921-0.59l6.118-13.404c0.519-1.15,1.676-1.894,2.946-1.894c0.458,0,0.902,0.096,1.323,0.281
			c0.095,0.041,0.193,0.093,0.294,0.148c5.313,3.056,10.408,6.55,15.152,10.388c2.039,1.668,3.196,4.127,3.181,6.75v15.076
			c0,2.999-2.452,5.439-5.465,5.439H11.861V92.52z"/>
	</g>
</g>
</svg>
