<?xml version="1.0" encoding="utf-8"?>
<!-- Generator: Adobe Illustrator 17.0.0, SVG Export Plug-In . SVG Version: 6.00 Build 0)  -->
<!DOCTYPE svg PUBLIC "-//W3C//DTD SVG 1.1//EN" "http://www.w3.org/Graphics/SVG/1.1/DTD/svg11.dtd">
<svg version="1.1" id="Calque_1" xmlns="http://www.w3.org/2000/svg" xmlns:xlink="http://www.w3.org/1999/xlink" x="0px" y="0px"
	 width="89.306px" height="100px" viewBox="0 0 89.306 100" enable-background="new 0 0 89.306 100" xml:space="preserve">
<title>Artboard 17</title>
<circle cx="44.653" cy="29" r="29"/>
<g>
	<path fill="#FFFFFF" d="M19.656,38.18l2.324,2.324l2.401-2.403l2.4,2.403l2.325-2.324l-2.403-2.401l2.403-2.401l-2.327-2.322
		l-2.4,2.401l-2.401-2.401l-2.325,2.322l2.401,2.401L19.656,38.18z M21.101,33.377l0.879-0.879l2.403,2.401l2.4-2.401l0.881,0.879
		l-2.401,2.401l2.403,2.401l-0.882,0.881l-2.4-2.403l-2.403,2.403L21.1,38.179l2.401-2.401L21.101,33.377z"/>
	<path fill="#FFFFFF" d="M50.263,23.24l-2.324,2.322l2.401,2.403l-2.401,2.401l2.322,2.322l2.401-2.403l2.401,2.403l2.325-2.322
		l-2.403-2.401l2.403-2.403l-2.325-2.322l-2.401,2.401L50.263,23.24z M55.068,24.683l0.879,0.879l-2.405,2.401l2.405,2.401
		l-0.879,0.879l-2.403-2.403l-2.401,2.403l-0.879-0.879l2.401-2.401l-2.401-2.403l0.879-0.879l2.401,2.403L55.068,24.683z"/>
	<path fill="#FFFFFF" d="M43.879,35.216c-2.555,0-4.633,2.08-4.633,4.633s2.078,4.632,4.633,4.632s4.633-2.078,4.633-4.632
		C48.514,37.296,46.434,35.216,43.879,35.216z M43.879,43.462c-1.991,0-3.613-1.621-3.613-3.613c0-1.993,1.619-3.614,3.613-3.614
		c1.993,0,3.614,1.621,3.614,3.614C47.493,41.843,45.872,43.462,43.879,43.462z"/>
	<path fill="#FFFFFF" d="M64.585,23.842c2.554,0,4.633-2.078,4.633-4.632c0-2.555-2.08-4.635-4.633-4.635
		c-2.554,0-4.633,2.08-4.633,4.635C59.954,21.764,62.032,23.842,64.585,23.842z M64.585,15.596c1.991,0,3.613,1.621,3.613,3.614
		c0,1.99-1.621,3.611-3.613,3.611c-1.991,0-3.613-1.619-3.613-3.611C60.973,17.218,62.594,15.596,64.585,15.596z"/>
	<path fill="#FFFFFF" d="M27.295,28.213l-0.721-0.721l-2.038,2.038c-0.012-0.246-0.022-0.491-0.022-0.742
		c0-7.855,6.389-14.246,14.244-14.246c6.249,0,11.71,4.002,13.589,9.957l0.972-0.308c-2.012-6.383-7.864-10.672-14.561-10.672
		c-8.417,0-15.265,6.85-15.265,15.269c0,0.183,0.01,0.363,0.017,0.545l-1.841-1.841l-0.721,0.721l3.175,3.173L27.295,28.213z"/>
	<path fill="#FFFFFF" d="M63.357,28.163l0.806,0.626l1.758-2.27c0.128,0.747,0.197,1.505,0.197,2.268
		c0,7.402-6.021,13.424-13.424,13.424c-1.356,0-2.696-0.201-3.981-0.599l-0.303,0.976c1.381,0.427,2.822,0.645,4.282,0.645
		c7.966,0,14.445-6.479,14.445-14.445c0-0.744-0.066-1.484-0.176-2.216l2.066,1.602l0.626-0.808l-3.55-2.751L63.357,28.163z"/>
</g>
<g>
	<path d="M6.276,100c-3.533-0.002-6.407-2.878-6.407-6.409V75.87c-0.017-3.076,1.337-5.967,3.716-7.927
		c5.554-4.506,11.517-8.608,17.73-12.198c0.573-0.335,1.232-0.514,1.903-0.514c1.339,0,2.588,0.716,3.266,1.87
		c0.063,0.109,0.128,0.229,0.181,0.351l6.901,15.224l0.257,0.529c0.196,0.42,0.618,0.694,1.08,0.694h19.502
		c0.459,0,0.882-0.272,1.078-0.694l7.16-15.762c0.607-1.352,1.962-2.227,3.448-2.227c0.536,0,1.056,0.113,1.548,0.331
		c0.111,0.048,0.226,0.109,0.344,0.174c6.218,3.594,12.181,7.702,17.732,12.215c2.386,1.962,3.74,4.853,3.723,7.937v17.728
		c0,3.527-2.869,6.396-6.396,6.396H6.276V100z"/>
</g>
</svg>
