<?xml version="1.0" encoding="utf-8"?>
<!-- Generator: Adobe Illustrator 17.0.0, SVG Export Plug-In . SVG Version: 6.00 Build 0)  -->
<!DOCTYPE svg PUBLIC "-//W3C//DTD SVG 1.1//EN" "http://www.w3.org/Graphics/SVG/1.1/DTD/svg11.dtd">
<svg version="1.1" id="Calque_1" xmlns="http://www.w3.org/2000/svg" xmlns:xlink="http://www.w3.org/1999/xlink" x="0px" y="0px"
	 width="102px" height="100.56px" viewBox="13 3.558 102 100.56" enable-background="new 13 3.558 102 100.56" xml:space="preserve"
	>
<g>
	<g>
		<path fill="#36769E" d="M110,68.449c-2.222,0-4,1.778-4,4v21.667c0,0.444-0.333,0.778-0.778,0.778H22.889
			c-0.444,0-0.778-0.333-0.778-0.778V72.56c0-2.222-1.778-4-4-4S14,70.227,14,72.56v21.667c0,4.889,4,8.889,8.889,8.889h82.222
			c4.889,0,8.889-4,8.889-8.889V72.56C114,70.227,112.222,68.449,110,68.449z"/>
		<path fill="#36769E" d="M60,79.782c0,2.222,1.778,4,4,4s4-1.778,4-4V32.56h12.111L64,4.56l-16.222,28h12.111v47.222H60z"/>
	</g>
</g>
</svg>
