<?xml version="1.0" encoding="utf-8"?>
<!-- Generator: Adobe Illustrator 17.0.0, SVG Export Plug-In . SVG Version: 6.00 Build 0)  -->
<!DOCTYPE svg PUBLIC "-//W3C//DTD SVG 1.1//EN" "http://www.w3.org/Graphics/SVG/1.1/DTD/svg11.dtd">
<svg version="1.1"
	 id="Calque_1" xmlns:dc="http://purl.org/dc/elements/1.1/" xmlns:cc="http://creativecommons.org/ns#" xmlns:rdf="http://www.w3.org/1999/02/22-rdf-syntax-ns#" xmlns:svg="http://www.w3.org/2000/svg" xmlns:inkscape="http://www.inkscape.org/namespaces/inkscape" xmlns:sodipodi="http://sodipodi.sourceforge.net/DTD/sodipodi-0.dtd"
	 xmlns="http://www.w3.org/2000/svg" xmlns:xlink="http://www.w3.org/1999/xlink" x="0px" y="0px" width="62.499px" height="100px"
	 viewBox="-6.25 2 62.499 100" enable-background="new -6.25 2 62.499 100" xml:space="preserve">
<g transform="translate(0,-952.36216)">
	<path fill="#36769E" d="M-5.82,954.363l4.961,10.664l12.617,27.031c0.806-0.344,1.624-0.655,2.461-0.938L-2.93,954.363
		C-2.93,954.363-5.82,954.363-5.82,954.363z M-0.156,954.363l16.797,36.054c2.674-0.682,5.473-1.055,8.359-1.055
		c0.715,0,1.405,0.035,2.109,0.077l-14.375-30.781l-1.992-4.297L-0.156,954.363L-0.156,954.363z M39.258,954.363l-1.992,4.297
		l-10.898,23.32L30,989.714c1.145,0.17,2.255,0.422,3.359,0.703l16.797-36.054L39.258,954.363L39.258,954.363z M52.969,954.363
		L35.82,991.12c0.825,0.279,1.627,0.598,2.422,0.938l12.617-27.031l4.961-10.664H52.969z M25,991.863
		c-17.259,0-31.25,13.991-31.25,31.25c0,17.259,13.991,31.25,31.25,31.25s31.25-13.991,31.25-31.25
		C56.25,1005.854,42.259,991.863,25,991.863z M23.633,996.863c0.447-0.022,0.914,0,1.367,0c14.497,0,26.25,11.752,26.25,26.25
		c0,14.497-11.752,26.25-26.25,26.25s-26.25-11.752-26.25-26.25C-1.25,1009.068,9.763,997.565,23.633,996.863L23.633,996.863z
		 M25,999.363c-13.117,0-23.75,10.633-23.75,23.75c0,13.117,10.633,23.75,23.75,23.75s23.75-10.633,23.75-23.75
		C48.75,1009.996,38.117,999.362,25,999.363L25,999.363z M25,1007.331l4.648,9.414L40,1018.23l-7.5,7.344l1.758,10.312L25,1031.003
		l-9.258,4.883l1.758-10.312l-7.5-7.344l10.351-1.484L25,1007.331z"/>
</g>
</svg>
